<svg id="Layer_1" data-name="Layer 1" xmlns="http://www.w3.org/2000/svg" xmlns:xlink="http://www.w3.org/1999/xlink" viewBox="76 0 140 91.788" style="
    width: 100%;"><defs><style>.cls-10-logo-1{fill:none;}.cls-10-logo-2{fill:#404041;}.cls-10-logo-3{fill:#005fa2;}.cls-10-logo-4{clip-path:url(#clip-path);}.cls-10-logo-5{fill:url(#radial-gradient);}.cls-10-logo-6{clip-path:url(#clip-path-2);}.cls-10-logo-7{fill:url(#linear-gradient);}.cls-10-logo-8{clip-path:url(#clip-path-3);}.cls-10-logo-9{fill:url(#linear-gradient-2);}.cls-10-logo-10{clip-path:url(#clip-path-4);}.cls-10-logo-11{fill:url(#linear-gradient-3);}.cls-10-logo-12{clip-path:url(#clip-path-5);}.cls-10-logo-13{fill:url(#linear-gradient-4);}.cls-10-logo-14{clip-path:url(#clip-path-6);}.cls-10-logo-15{fill:url(#linear-gradient-5);}.cls-10-logo-16{clip-path:url(#clip-path-7);}.cls-10-logo-17{fill:url(#linear-gradient-6);}.cls-10-logo-18{fill:#003274;}</style><clipPath id="clip-path" transform="translate(0 12.04)"><path id="SVGID" class="cls-10-logo-1" d="M103.42,29.986a6.582,6.582,0,1,0,4.886-2.171,6.629,6.629,0,0,0-4.886,2.171"></path></clipPath><radialGradient id="radial-gradient" cx="-190.009" cy="478.528" r="0.811" gradientTransform="matrix(11.439, 0.011, 0.011, -11.472, 2274.442, 5534.526)" gradientUnits="userSpaceOnUse"><stop offset="0" stop-color="#4394d0"></stop><stop offset="1" stop-color="#15256d"></stop></radialGradient><clipPath id="clip-path-2" transform="translate(0 12.04)"><path id="SVGID-2" data-name="SVGID" class="cls-10-logo-1" d="M89.421,9.162c9.7-4.7,16.428-1.459,20.6,2.648a22.379,22.379,0,0,1,1.528,1.654,25.96,25.96,0,0,1,3.893,6.3,20.4,20.4,0,0,0,4.748.329c.1-.006.184-.006.281-.013s.169-.019.258-.025a18.094,18.094,0,0,0,11.378-5.43c.134-.133.267-.275.4-.414-.6-.716-1.218-1.422-1.889-2.1a31.589,31.589,0,0,0-41.2-2.953"></path></clipPath><linearGradient id="linear-gradient" x1="-192.702" y1="461.151" x2="-191.891" y2="461.151" gradientTransform="matrix(0, 36.89, 36.89, 0, -16900.841, 7106.999)" xlink:href="#radial-gradient"></linearGradient><clipPath id="clip-path-3" transform="translate(0 12.04)"><path id="SVGID-3" data-name="SVGID" class="cls-10-logo-1" d="M77.636,25.89A31.588,31.588,0,0,0,95.678,63.046c-8.925-6.054-9.476-13.5-8.008-19.168.194-.751.421-1.47.668-2.15a25.973,25.973,0,0,1,3.511-6.522,20.34,20.34,0,0,0-2.091-4.275c-.052-.081-.1-.158-.151-.239s-.1-.138-.151-.21a18.1,18.1,0,0,0-10.392-7.139c-.182-.049-.371-.092-.558-.137-.321.877-.623,1.765-.872,2.683"></path></clipPath><linearGradient id="linear-gradient-2" x1="-182.413" y1="453.172" x2="-181.602" y2="453.172" gradientTransform="matrix(0, -36.889, -36.889, 0, 16801.73, -6672.224)" xlink:href="#radial-gradient"></linearGradient><clipPath id="clip-path-4" transform="translate(0 12.04)"><path id="SVGID-4" data-name="SVGID" class="cls-10-logo-1" d="M126.694,47.24c-.747.208-1.483.37-2.194.5a26.007,26.007,0,0,1-7.4.221,20.351,20.351,0,0,0-2.657,3.947c-.042.086-.087.163-.131.251s-.069.156-.107.235a18.093,18.093,0,0,0-.986,12.569c.049.181.107.368.161.552.919-.161,1.839-.345,2.758-.588a31.584,31.584,0,0,0,23.157-34.2c-.779,10.756-6.949,14.956-12.6,16.52"></path></clipPath><linearGradient id="linear-gradient-3" x1="-194.521" y1="448.217" x2="-193.711" y2="448.217" gradientTransform="matrix(-36.889, 0, 0, 36.889, -7035.969, -16486.102)" xlink:href="#radial-gradient"></linearGradient><clipPath id="clip-path-5" transform="translate(0 12.04)"><path id="SVGID-5" data-name="SVGID" class="cls-10-logo-1" d="M89.421,9.162a29.86,29.86,0,0,0-10.43,12.9,18.877,18.877,0,0,1,14.055,12.71c.87-.555,3.543-2.666,5.339-8.485,2.172-7.033,6.295-12.222,11.64-14.48a13.923,13.923,0,0,0-11.052-5.2,21.137,21.137,0,0,0-9.552,2.549"></path></clipPath><linearGradient id="linear-gradient-4" x1="-181.7" y1="459.498" x2="-180.889" y2="459.498" gradientTransform="matrix(28.173, 0, 0, -28.173, 5205.383, 12966.063)" xlink:href="#radial-gradient"></linearGradient><clipPath id="clip-path-6" transform="translate(0 12.04)"><path id="SVGID-6" data-name="SVGID" class="cls-10-logo-1" d="M95.678,63.046a29.87,29.87,0,0,0,16.369,2.584,18.064,18.064,0,0,1-.919-5.834,18.8,18.8,0,0,1,4.948-12.729l.045-.069c-.647-.69-2.91-2.392-8.729-1.066C100.217,47.569,92.3,47.38,87.67,43.879c0,0-4.973,10.689,8.008,19.168"></path></clipPath><linearGradient id="linear-gradient-5" x1="-190.993" y1="444.234" x2="-190.182" y2="444.234" gradientTransform="matrix(-27.736, 0, 0, 27.736, -5185.544, -12266.026)" xlink:href="#radial-gradient"></linearGradient><clipPath id="clip-path-7" transform="translate(0 12.04)"><path id="SVGID-7" data-name="SVGID" class="cls-10-logo-1" d="M119.367,21.569a20.378,20.378,0,0,1-4.148-.435l-.071-.015c-.267.98-.487,3.754,3.464,8.014,5,5.4,8.8,12.349,8.081,18.109,0,0,11.745-1.039,12.6-16.52a29.866,29.866,0,0,0-5.954-15.48,18.651,18.651,0,0,1-13.969,6.329"></path></clipPath><linearGradient id="linear-gradient-6" x1="-199.351" y1="456.011" x2="-198.54" y2="456.011" gradientTransform="matrix(0, 28.949, 28.949, 0, -13073.939, 5792.169)" xlink:href="#radial-gradient"></linearGradient></defs>
<g class="ocks-main-logo">
<path class="cls-10-logo-2" d="M163.891,30.845A4.528,4.528,0,0,1,162.1,30.5a3.8,3.8,0,0,1-1.364-.976,4.286,4.286,0,0,1-.866-1.548,6.533,6.533,0,0,1-.3-2.047,6.283,6.283,0,0,1,.313-2.053,4.476,4.476,0,0,1,.88-1.541,3.826,3.826,0,0,1,1.358-.976,4.325,4.325,0,0,1,1.733-.341,4.575,4.575,0,0,1,1.876.362,3.792,3.792,0,0,1,1.365,1.01,4.4,4.4,0,0,1,.839,1.555,6.582,6.582,0,0,1,.287,1.985,6.347,6.347,0,0,1-.328,2.135,4.33,4.33,0,0,1-.9,1.535,3.687,3.687,0,0,1-1.364.927,4.641,4.641,0,0,1-1.732.315m.122-1.146a2.585,2.585,0,0,0,2.121-.949,4.391,4.391,0,0,0,.77-2.817,5.986,5.986,0,0,0-.211-1.691,3.2,3.2,0,0,0-.607-1.174,2.375,2.375,0,0,0-.962-.682,3.534,3.534,0,0,0-1.276-.218,2.972,2.972,0,0,0-1.173.232,2.516,2.516,0,0,0-.942.7,3.434,3.434,0,0,0-.628,1.173,5.387,5.387,0,0,0-.231,1.664,5.472,5.472,0,0,0,.225,1.651,3.3,3.3,0,0,0,.634,1.181,2.563,2.563,0,0,0,.989.7,3.456,3.456,0,0,0,1.289.232" transform="translate(0 12.04)"></path>
<polygon class="cls-10-logo-2" points="179.525 44.876 178.297 44.876 178.297 42.748 171.626 42.748 171.626 33.198 172.853 33.198 172.853 41.602 177.206 41.602 177.206 33.198 178.433 33.198 178.433 41.602 179.525 41.602 179.525 44.876"></polygon>
<path class="cls-10-logo-2" d="M187.049,29.125q-.417-.668-.7-1.153c-.192-.322-.351-.586-.478-.791a2.711,2.711,0,0,0-.362-.478.967.967,0,0,0-.368-.238,1.484,1.484,0,0,0-.485-.068h-.9v4.31h-1.228v-9.55h1.228V25.5h.805l3.369-4.339H189.5l-3.67,4.393a1.232,1.232,0,0,1,.7.389,6.173,6.173,0,0,1,.681.941q.382.622.948,1.569t1.495,2.258h-1.555q-.628-.914-1.044-1.582" transform="translate(0 12.04)"></path>
<path class="cls-10-logo-2" d="M198.121,30.449a3.811,3.811,0,0,1-.929.294,6.15,6.15,0,0,1-1.159.1,5.6,5.6,0,0,1-2-.334,4.087,4.087,0,0,1-1.494-.962,4.245,4.245,0,0,1-.942-1.508,5.64,5.64,0,0,1-.327-1.984A6.527,6.527,0,0,1,191.6,23.9a4.291,4.291,0,0,1,.942-1.582,3.947,3.947,0,0,1,1.48-.969,5.428,5.428,0,0,1,1.931-.328,6.223,6.223,0,0,1,1.33.116,5.873,5.873,0,0,1,.853.252l-.233,1.078a4.743,4.743,0,0,0-.913-.232,6.29,6.29,0,0,0-.914-.068,3.389,3.389,0,0,0-2.6.955,3.974,3.974,0,0,0-.894,2.811,4.7,4.7,0,0,0,.252,1.589,3.305,3.305,0,0,0,.717,1.186,3.018,3.018,0,0,0,1.132.737,4.258,4.258,0,0,0,1.515.252,5.157,5.157,0,0,0,.907-.082,2.991,2.991,0,0,0,.812-.26Z" transform="translate(0 12.04)"></path>
</g>
<g class="rect-main-logo">
<rect class="cls-10-logo-2" x="149.232" y="20.084" width="0.654" height="52.761"></rect>
</g>
<g class="rosatom-main-logo">
<path class="cls-10-logo-3" d="M160.549,48.6h-.984V40.949h2.25a4.6,4.6,0,0,1,1.176.137,2.384,2.384,0,0,1,.89.431,1.913,1.913,0,0,1,.568.743,2.648,2.648,0,0,1,.2,1.07,2.212,2.212,0,0,1-.77,1.82,3.306,3.306,0,0,1-2.147.628h-1.18Zm0-3.737h1.18a2.226,2.226,0,0,0,1.393-.371,1.355,1.355,0,0,0,.476-1.136,1.318,1.318,0,0,0-.476-1.137,2.335,2.335,0,0,0-1.393-.35h-1.18Z" transform="translate(0 12.04)"></path>
<path class="cls-10-logo-3" d="M170.187,48.708a3.622,3.622,0,0,1-1.438-.273,3.057,3.057,0,0,1-1.092-.781,3.46,3.46,0,0,1-.695-1.241,5.254,5.254,0,0,1-.24-1.639,5.007,5.007,0,0,1,.251-1.645,3.593,3.593,0,0,1,.7-1.235,3.061,3.061,0,0,1,1.087-.781,3.461,3.461,0,0,1,1.388-.273,3.664,3.664,0,0,1,1.5.29,3.034,3.034,0,0,1,1.093.809,3.539,3.539,0,0,1,.671,1.246,5.251,5.251,0,0,1,.23,1.59,5.112,5.112,0,0,1-.262,1.71,3.5,3.5,0,0,1-.721,1.229,2.98,2.98,0,0,1-1.093.744,3.74,3.74,0,0,1-1.388.251m.1-.918a2.07,2.07,0,0,0,1.7-.76,3.517,3.517,0,0,0,.616-2.256,4.754,4.754,0,0,0-.17-1.355,2.545,2.545,0,0,0-.486-.94,1.9,1.9,0,0,0-.77-.547,2.83,2.83,0,0,0-1.022-.174,2.384,2.384,0,0,0-.939.186,2.008,2.008,0,0,0-.754.557,2.726,2.726,0,0,0-.5.94,4.292,4.292,0,0,0-.187,1.333,4.381,4.381,0,0,0,.181,1.322,2.621,2.621,0,0,0,.508.946,2.042,2.042,0,0,0,.792.563,2.747,2.747,0,0,0,1.032.186" transform="translate(0 12.04)"></path>
<path class="cls-10-logo-3" d="M181.431,48.391a3.042,3.042,0,0,1-.743.235,4.954,4.954,0,0,1-.929.082,4.5,4.5,0,0,1-1.6-.268,3.28,3.28,0,0,1-1.2-.771,3.361,3.361,0,0,1-.753-1.208,4.521,4.521,0,0,1-.264-1.589,5.229,5.229,0,0,1,.264-1.727,3.412,3.412,0,0,1,.753-1.268,3.175,3.175,0,0,1,1.186-.776,4.353,4.353,0,0,1,1.546-.263,4.993,4.993,0,0,1,1.066.093,4.658,4.658,0,0,1,.684.2l-.187.863a3.767,3.767,0,0,0-.731-.186,5.03,5.03,0,0,0-.732-.055,2.711,2.711,0,0,0-2.082.766,3.18,3.18,0,0,0-.716,2.251,3.751,3.751,0,0,0,.2,1.272,2.64,2.64,0,0,0,.574.95,2.4,2.4,0,0,0,.907.591,3.42,3.42,0,0,0,1.213.2,4.188,4.188,0,0,0,.727-.066,2.391,2.391,0,0,0,.65-.208Z" transform="translate(0 12.04)"></path><path class="cls-10-logo-3" d="M188.3,46.555h-3.268l-.743,2.044H183.3l2.917-7.65h.984l2.863,7.65h-1.027Zm-2.951-.9h2.633l-1.278-3.595h-.044Z" transform="translate(0 12.04)"></path><polygon class="cls-10-logo-3" points="194.074 60.638 193.09 60.638 193.09 53.907 190.828 53.907 190.828 52.989 196.335 52.989 196.335 53.907 194.074 53.907 194.074 60.638"></polygon><path class="cls-10-logo-3" d="M201.44,48.708A3.622,3.622,0,0,1,200,48.435a3.067,3.067,0,0,1-1.092-.781,3.471,3.471,0,0,1-.694-1.241,5.254,5.254,0,0,1-.24-1.639,5.007,5.007,0,0,1,.251-1.645,3.58,3.58,0,0,1,.7-1.235,3.061,3.061,0,0,1,1.087-.781,3.461,3.461,0,0,1,1.388-.273,3.664,3.664,0,0,1,1.5.29,3.034,3.034,0,0,1,1.093.809,3.539,3.539,0,0,1,.671,1.246,5.251,5.251,0,0,1,.23,1.59,5.112,5.112,0,0,1-.262,1.71,3.5,3.5,0,0,1-.721,1.229,2.98,2.98,0,0,1-1.093.744,3.746,3.746,0,0,1-1.388.251m.1-.918a2.072,2.072,0,0,0,1.7-.76,3.517,3.517,0,0,0,.616-2.256,4.754,4.754,0,0,0-.17-1.355,2.545,2.545,0,0,0-.486-.94,1.9,1.9,0,0,0-.77-.547,2.833,2.833,0,0,0-1.022-.174,2.384,2.384,0,0,0-.939.186,2.017,2.017,0,0,0-.755.557,2.725,2.725,0,0,0-.5.94,4.292,4.292,0,0,0-.187,1.333A4.381,4.381,0,0,0,199.2,46.1a2.633,2.633,0,0,0,.508.946,2.051,2.051,0,0,0,.793.563,2.747,2.747,0,0,0,1.032.186" transform="translate(0 12.04)"></path><polygon class="cls-10-logo-3" points="215 60.638 214.017 60.638 213.547 54.661 211.613 60.638 210.586 60.638 208.662 54.683 208.182 60.638 207.198 60.638 207.853 52.989 209.056 52.989 211.121 59.568 213.143 52.989 214.344 52.989 215 60.638"></polygon>
</g>
<g class="cls-10-logo-4 dot-main-logo"><rect class="cls-10-logo-5" x="100.974" y="39.848" width="14.671" height="13.975"></rect></g>
<g class="circle-main-logo">
<g class="cls-10-logo-6"><rect class="cls-10-logo-7" x="94.905" y="-11.683" width="32.12" height="46.422" transform="translate(58.822 122.195) rotate(-68.066)"></rect></g><g class="cls-10-logo-8"><rect class="cls-10-logo-9" x="70.862" y="21.851" width="27.502" height="42.551" transform="translate(-5.215 24.34) rotate(-8.067)"></rect></g><g class="cls-10-logo-10"><rect class="cls-10-logo-11" x="104.181" y="25.378" width="44.542" height="45.474" transform="translate(-2.771 100.239) rotate(-38.065)"></rect></g><g class="cls-10-logo-12"><rect class="cls-10-logo-13" x="74.239" y="0.006" width="40.537" height="41.376" transform="translate(25.571 100.614) rotate(-56.908)"></rect></g><g class="cls-10-logo-14"><rect class="cls-10-logo-15" x="81.62" y="42.243" width="35.579" height="26.22" transform="matrix(0.995, -0.101, 0.101, 0.995, -5.101, 22.407)"></rect></g><g class="cls-10-logo-16"><rect class="cls-10-logo-17" x="111.787" y="13.152" width="30.377" height="36.176" transform="translate(-3.65 37.311) rotate(-11.206)"></rect></g>

</g>
</svg>