<svg width="800" height="600" xmlns="http://www.w3.org/2000/svg"><g stroke-width="0"><g fill="#8ab4f8"><path d="M96 526v-3h-1v-1h-1v-2h-1v1h-1v-3h-1 1-1v-1h-2v-1h-1v1-2h-1v-1h-4v1h-3v-2h-2v-1h-2v-1h-1v1h-1v1h-1v2h-1v1h-1v2h-1v2h-1v1h-1 1v1-1h-1v1h-1v1h-1v1h-2v1h-1"/><path d="M97 525v-4h-1v-3h1v-3h1v-2h1v-1h1v-4h1v-1h1-1v-1h-1v-2h-1 1v-1 1-1h1v-2 1-2h1-1 1-1 1-1v-1h-1v-2h-1v-2h-1v-1h-1v-1h-3v-1h-1v-6h1v-3h1v-3h1v-3h1v-4h-1l1-1v-6h1v-8h-1v-1h-1v-1h-1v-1h-1v-1h-1v-1h-2v-1h-1v-1h-1v-1h-1v-1l-1-1v-1l-1 1-5 2-5 2-3 1-4 2-4 1-4 2-4 1-2 1-3 1-3 1-2 1h1v1-1 1-1 1h1-1 1v1-1 2h1-1 1v2h1-1 1v1h1v1h1-1 1-1 1-1 1-1 1v1-1 1h1-1 1-1 1-1 1v1h1-1 1-1v1-1 1-1h-1 1-1 1v1h-1v-1 1h1v1h1v1h1v1-1h1v-1h-1 2v1-1 1-1 1-1 1h1v1h2v1-1 1-1 1-1 2-1 1h1-1 1v3h-1v1-1 1-1 1h1v1h-1v1h1v1h1-1 1-1 1v4h-1v1h1v1h1v1-1 1-1h1v3h1v1-1 1h-1 1-1v1-1 2-1 2h-1 1-1 1v1h-1 1-1v1-1 3-1 2-1 1h-1v1h-1v1h-1v2h-1v1h-1v1h-1v2h-1v1h-1 1v1h-1v1-1 1h-1 1-1v1h-2v1h-1v1h-1v1h-1v1h-2v1h-4v1h-2v1h-1l-1 1h-3 1-2v1h-1v-1 1h-5l-1-1h-4v-1 1h-1v-1 1-1h-2v-1h-1v-1h-2v-1h-2v-1h-6 1-2v-1H7v-1H5m83 0zm0 0zm0 0zM580 212zM366 74v4l1 5 1 9 1 6 1 5 1 6 1 7 1 8v1h-1v1h2v1l1 1h1l-1 1v2h1v1h1v1h1v1h-1v2h1v1h1-1v1h-1v1h-1v4h-1 1-1 1v1l1 1v-1 1h-1v1h-1v2h-1v1h1v1h-1v1h-2v1h-1v1h1-1 1v1h-1v1h-1 1-1v1h-1v2h1v1h-1v-1h-1v1h-2v1h-1v1h-2v1h-1v1h-2v1h-1v1h-1v1h-1v1h-2v1h-2v1-1 1h-3v1h-1v1h-1v-1h-1v1-1 1h-1v1h-2v-1 1h-1v2h-3v1h-1v1h-2v2h-2v1h-1v1h1-1v-1h-1v1h-1v-1 1-1 1h-1v1h-2v1h-1v1-1 1h-2v-1 1h-3v1h-1v2h-2v1h-1 1-1v1h-1 1v-2h-1v-2h-1 1v1h-1v2h-1 1-1v2h-2v1h-2v1-1h-1v1h-1v-1h-1v1h-1v1h-1v1-1 1h-1v1h-2v1h-1v2h-2 1v-1h-4v-1h-1v2h1v2h-1v3h-1v-1h1v-1h-1v1h-1v2h-1v1h1-1v1h-1v1h-1v-4h-1v2h-1v2h-2v1h1-1 1v1h-2v1h-2v6h-2v-4h-1v2h-1l-1-1v1h2-1v1-1 1h-1 1v2h-2v1h-1 1v-1h-1v-1 2h-1v-1h-2l1 1h1v1h6v4h-3v1-1h-1v1-1 1-1h-1v2h1v1-1 1h1v1h-1v1h-1v1h-4v-1h-1v1h-1v-2h-1v-1h-1l1 1v1h1-1v1h2v2h1v1h1v2h-1v1h-3v-1h-1v-2h-1v-1h-1v-1h-1v-2h-1v3h1-1 1v2h1-2 1v2h-1v2-1h-2v-1h-1v-1h-1v1h2v1h1v1h1v4h1-3v-1h-2v-2h-2v-1h-2v-1h-1v-1h-1v2h1v1h1-1 2v1h1v3h-1v-1h-2 2v1h1v2h1v3-1 2h1v1h-1v1-1l1 1v-1 1h-3 2v1h-2 1v1h-1 1-1v1-1h-1v-1 1h-1v-1 1-1 1h-1 1-1 1v1h1v1h2-3v2-1h-1 1v-1h-2v1h1v2h-1v1-1h1v2h-1v1-1h-1v1h-1v-2h-2v-1h-1v-3h-1v-2h-1v-1h-1v-1h-1v1h1v2h1v3h-1v-1 1h-1v-1 1h-1 3v1-1 1h1v2h1v1h1v2h1v1h-1v1h1v5h-1v1h-2v-2h-1v-2h-2v-1h-6v-1h-1v1-1h-1v1-1 1h1v1h1v-1h2-1v1h1v-1 1h2v1h1v-1 1-1h1v2h1v1h1v3h1v3h-1v1h-2v1h-2v-1h-2v-1h-1 1-1v-2h-1v-1h-1v-1 1h1-1v2h1v1h1-2v1h1-1 2v-1 1h1v1h1v1-1 1h1v1h1v2h-1v2h-1v2h-1v1h-1v1-1h-1v-1h-1v1h1v1h-1v3-1h-3v-1h-4v-1h-1 1-1 1v-1h-1v1-1h1-1 1-1 1v-1h-1 1-1v-1h1-1v-1 1-2h-1v1h1v4h-1v-1h-2v-1 1-1h-1v1h-3v-1h-1v-2h-2v-1h-2v-1 1h-3v2h-1v-1h-1v2h-1v1h-2v-1h-2l-1 2v1h1v-1 1h2-1 1v1-1h1-1 1v-1h1v-1 1-1h1v-1h1v-1h2v-1h1v-1 1-1h2v1h2v2h1v1h6v2-1 1h2v1h-1 4v1h2v1h1v3h-1v1h-2v1h-4v1h-1v-1 1h2v-1 1h5v1h-1v1h-3v1h-2v1h-1v-1h-1v1-1h-1v1-1 1h-1 4v1-1 1-1h3v-1h1v2h-1v1h1v1h-1 1-1v2h-1v1h-3v1h-2v-1h-1v-1h-2 1v1h1-1v1h-1v-1 1h4v1h1v1h1v2h-3v1h1-1v1h1-1v2h-1 1v1h-1v-1h-1 1-1 1-1v-1h-2 1v1h1v1h1v2h-2v1-1h-1v1h1v1h1v-1h-1 1-1 1v4h-1v2h1v1h1v1h-1 1v3h-1v2-1h-1v1-1 1h1-1v1h1v1h-1v3h1v1h-1v-1h-1v1h2v1h1v1h-1 1v6h1v4h1v2h1v2h1v1h-1 1v2h1v3h1v2h1v3h1v1h2v2h1v1h1v2h1v1h1v1h1v1h1-1 1v2h2v1h1v1h2v1h1v1h1v1h-1v1-1 2h-1 1-1v1h1-1 1v1h-1v-1h-1v1h1v-1 1h-1v-1h-2v-1h-4v-1h1-1v2h1v-1 1h3v1h1v1h1-3v1h1v1h1-1 1-1 1-2v-1 1h1v1l2 1 3 1 2 1 2 1 2 1 2 1 1 1h1v1-1h1v1h1v1h2v1h1l-1-1v-1h-1v-1h-1v-1 1-1h-1v-1h-1v-1h1v1-1 1h1v-1h1v-1h1-1v-1h1v-1 1h1v-1h1v-1 1-1h1v2h1v1h1v1h1v1h1v2h1v2h2v1h1v2h1-1 1v1h1v-1h1v2l1 1v1h1v1h1v1h1v-1 2h1-1v1h1-1 1-1 1-1 1v2h1-1v2h-1 1v1h-1 1-1v-1h-1v1h1-1 1-1v1-1 1h-1v1h-1v-1h-1v-1h-1 1v1h-1v-1 2l2 2h1v-1h-1 1v-1h5v-2h1v-2h-1v-1h1v-1h1v-1 1-1h1v1h2-1 1v-1 2h1v-1 1h1v1h5v1h6l1 1h6l1 1h2l1 1h1l1 1h2l1 1h1l1 1h2v1h1l1 1h1l1 1 1 1 1 1 1 1h1v1h1v1h1-1 1v2h2v1h1v1h2v1h3v1h2l1 1h1-2v-1 1h-1v-1h-2 1-1 1-1v-1 1h1v1-1 1h1v1h2v1h1-1 2v1h2v1-1 1h1v1h1v1h2v1h3v1h3v1h-1v2h1v1l1 1h1v1h1v1h1v1h1v1h1v1-1h-1 1v1h1v1h1-2 1v1h2v1h2v1h1v2h1-1v2h-1v1h2v2-1h1v-1h1v-1 1-1h1v-1h1v-1 1-1h-1v-2h1v-2h1v-2h1v-2h1v-3h1v-3l1-1v-2h-1v-1h2-1v-1h1-1v-1 1h-2v1h-3v-1h-1v-1h-1v-1h-1v-3h-1v-1h-1v-2h-1v-2h-1v-1h1-1 1-1v-1 1h1-1 1-1v-2h1v-3h1-1v-3h-1v2h-1v-1h-2v-1h-1v-2h-2v-1h-1v1-1 1h-1v-1h-1v-1h-1l-1-1h-1v1h1l-1 1h-1v1h-1 1v1h1v1h-1 1l-1 1v1h1-1v-2h-1v-12h1v-3l1-1v-1h1-1v3h2v-1 1-1h2v-1h1-1v-1h1v-1h-1 1l-1-1v-2h-1v1-2h-1 1-1v-4h1v-3h1v-3h-1v-4h1v-1h1v-1h-1 1-1l1-1h1-1v-1h-1v-3h-3v1h-2v1h-2v-3h-1v-1h1v-1h1v-2h1-1v-1h1-1 1v-3h1v1-1h-2v-1 1-1h-1 1v-2l1-1v-3h2l1-1h1v-1h1l1-1 1-1 1-1v-1h2v-1h1v-1h2v-2h1v-2h1v-1h1v-3h1v-2h1v-3h1v-4h1v-6h1v-5h1v-7h1v-5h1v-4h1v-1h1v-2h1v-3l1-1v-2h1l1-1h1l1 1h1v1h-2v1h-1v1h7v-1h6v1h2v-1h5v1h1v-1h3v1h2v1h2v1h-2 1v1h1v-1h1l-1-1h1v1h1l1 1h1l1 1h1l1 1h1v1h1v1-1 1-1h-1v2h1v1h-1v5h1v1h-1 1-1v1h1v1h-1 1-1v1h1v5h-1v4h-1 1v1h-1v1h-1v5h-1 1-1v3h-1v1-1h-1v7h-1v1h-1 1-1v2h-1v1h-1v1-1 1h-1v5h1v1h1v3h1-1 1v1l1 1v1h1l1 1h1v1h1v1h1v2h-1v3h1v2h1v1h1v3h-1v5h-1v3h1v6h-2v2h-1v1h-1v2h1v1h1v5h-1v2l1 1v2h1v6l-1 1v5h1v4h-1v3h1v1l-1 1v1l-1 1v5h1v4l1 1 1 1v1h1v1h1l1 1 1 1h1v1h1v1h1v1h1v1h1v2h1v3h-1 1-1v-1h1v-1h-1v1h-1v3h-1v1-1 1h-1v1h-1v1h-1v4h-1v2h1v2h1v5h-1v4-1h-1 1-1v1h-1 1-1l-1 1h1v1h-1 1-2v1h-1v-1 1-1h-1v1h1-1v-1 1-1 4h-1l-1 1v1h1v2l-1 1h-4v2h2v3-1h-1v-1 1-1 2h1-2v1h-1v-1 1h1v2-1 1-1 1h-1v1h-1v1h-1v2l-1 2v7l-1 1-1 6v1h3v2h5v-1h1v-1 1-1h1v-2 1-5 1h-1v-1h1v-1h1v-1h1v-1h4v-1h1v-2h1l1-1h1v-1h2v-1h1v-1h1v-2h1l1-1h1v-5h1v-3h-1v-1h1v-2h1v-2h1v-1h1v-1h1v-1h1v-1h1v-1h1v-1l1-1 1-1v-6h1-1v-1h1v-1l-1-1v-3h-1v-3l-1-1v-1h-1v-1h-1v-1l-1-1v-2h1v-2h1v-2h-1v-4h1v-2h2v-1h1l1-1h2v-1h2v-1h2v-1h4v-1 1-1h3v-1h7v3h1v1h-1v3h1v1h1v1h1v1h1v1h1v1h-1 1v1-1 1h1v-1h-1 1v1h1-1 1v4-1 4h-1v2h1v1-1 1-1 1h1v1h-1v1h1-1v2h-1v1h1v2h-1v2h1v1h1-1v2h-2v2h1v1h2v1h1v1h2v2-1h1v1h1v1h2v1h1v-1h3v1h3-1v-1 1-1 1-1h1v1h1v1-1h1v-2 1h2v1h1v-1 1h1v1h1v-1h-1 1-1v-1 1-1 1l1-1h-2v-1h-2v-1h-1v-1 1-1h-1v2h-2l-1-1h3v-1h-3v-2 3l-1-1h-2 1-1v1h-1v-1l-1-1h-1v1h-1 1v-1h1v-1h-2v-1 1h-1 1-1v1h-1v-1h-1v-1h-1v-1h1v-1h-1v-1h1l-1-1h1v-1h1v-1h-1v1h1-1v-6h1v-2h1v-1h5v-2h-1v-2h-1v-3h-1v-1 1h1v-2h-2v-2h-1v-2h1v-3h-1v-5h-4v-1h-1v-1h-1v-1 1-1h-3v-1h-1v-2l-1-1h-3l-1-1h-1v-1h-1v-1h-1v-1h-3v1-1h-4v1h-2v1h-1v1h-1 1-1v2h-3v1h-1v-1h-1v-1h-6v1h-1v1h-2v-2h-1v-5h1v-7h-1v-2h-1v-1h-1v-4h-1v-3h1v-1h1v-4h1-1v-1l1-1v-2l-1-1v-1l1-1v-1l1-1v-1l1-1 1-1v-1h1v-2h1v-2l1-1v-4l-1-1v-2l-1-1v-1h-1v-1h-1v-1l-1-1v-5 1-1h-1v-1h-1v-3h-1v-3h-1v-2h-1v-1h-1v-1h-1v-1h-1v-1h-2v-2l1-1v-1h1v-1h1v-1h1v-1l1-1v-2h1v-4h-1v-1h1v-1h1v-1h1v-1h2v-1h1l1-1h1l1-1h1v-1h2v-1h1v-1h1v-1h1v-1h1v-1h1v-2h1v-6h1v-3l-1-1v-7h-1v-3l-1-1v-1l-1-1v-2h1v-1h1v-1 1h1v1h2v1h1v1h1v1h1v2h-1v-1h-1 1-1v2h1v1l1 1v1h1v1l1 1v1h-1v-1 1h-1v3h1v4h1v2h1v1h-1v1-1 1h-1v2h-1v4h-1v4h-1v-1 1h-1v2h1-1 1l-1 1v5h1v1h1v1h1v2h-1v2h1v2h-1v2h-2v3h1v2h1v1h3v1h1-1 1v1h5v1h8v1h8v1h2v1h1v3h1-1v1h1-1 1-1 1v1h1v1h1v1h-1 1-1 1v-1 1-2h1v3h-1 1v-2h1v1h1-1v1h1-1v1h1-1v-1h1-1v-1h1v1-1 1-3h1v-2h1v-1h-1v-2h-1v1-1 1h-1 1v1h1v1h-1v-1h-1v-1h-1 1l-1-1v-1h1-1 1v-4h-2v-1 1h1-2v-1h-1v2-1h-1v-2h1v-1h1v-1h-1v1h-1v1h-2v2-1h-2v-1h-1 1v1-1 1h-1v-1h-1v-1h-2v-2h-1v-1h-3v-1h-1v-1h-1v-1h-1v-1h-2v-1h-1v-4h-1v-2h-1v-6h-1v1-1h1v-1h1v-1 1-1h1v-1 1-1h1v-1h1l1-1h2v-1h3-1 1v1h-1 1v1h1v1h1v1h1v1h1v1h1v2h2v1h3-1 1v-1h2v-1h1v-1h1v-5h-1v-1l-1-1h-1v-1h-2v1h-2v1h-2v-3h1v-2h-1 1v-1 1h1v1h1v-1 1-1h1-1 1-1 1v-2l1-1v-1h1v-1h2v-1h-1 2v1-1 1-1h1v1h1v1h1v-1h-1 1v-1h1v-1h2v1h9v1h1v1h1v1h1v1l1 1v1h2v1h2v1h2v1h2v1h2v2h1v1h-1 1-1v-3 1h-1v1h1v1h1v2h1v1-1 1h1v1h1v1h1v1h1v1h-1 1v2h1v1h2v1h9v-1h2l1-1h3v-1 1h1v1h3v1l1-1h1v-3h-1v-1h-1v-1h-2v-1h-4v1-1 1h-1v-4h-1v-2h-1v-1h-1v-1h-1v-1h1v-4h-1v-1h-1 1v-1h-1 1-1 1v-1h1-2 1-1v1h-1 1v1-1h-2v-1h-2v-1h-2v-1h-1v1l1-1v1-1 1h-2v-1h-3l-1-1h-1v-1h-2v-3h-1v-2h1v-1h-1 1v-2 1-1h-1 1-2v-4h1v-2h1v-1h-1 1-1v-1h1-1 1v-6h-1 1-1v-2h-1v-1h-2v-1 1-1h1v-2h-2 1-2 1v-1h-1v-1h1v1h1v-1h1v1-1h2-1v-1 1-1h-1v-1h1-1 1-1v-1h-2v-1h-1 1v-2h1-1 1-1 2v-1h-1 1v-1h1v-1h1-2v-1h1v-2h-1v1-1 2-1h-1 1v-1h-1v-1h1-1v-1h2v-1 1-1h1-1 1v1h2-1 1-1v-1 1h1v-1h2-1 4v-1h2v-1h7l1-1h9v1l1-1v1-1h1v1-1 1-1h6v-1 1h1v-1h2v-1h4l1-1h1l1-1h3v1h1v1h5v-1h1-1v-2h1v-1h1v-1h4v-1h1v-1h7v-1h1v1h1v-1 1h2v1h1v-1h1-1v-3 1h1-1v-1h-1v-2h-1v-1h-1l1-1h1v-1h-3v-1h1v-1h-2v-1h1v-3h-1v-1h-1v-1h-3v-1h-4v-1h-1v-4h2v1h1v-1 1-1 2h1-1 1v1h1-1 1v-2h-1v-1h-1v-1h-1l1-1v1-1h1v1-1h1-1 1v-1 1h1v-1h2v2h1-1v1-1 1h1v-1 1h1v1-1h2v1h-1v1h-1v1h-1v1-1 1h2v-2 1h1v-1 2h1-1v1h1v-4h-1 1-1 1v-1 1h1v1h3-1 1v-1h-1v-1 2h-1v-1h-1v-1h-1v-2h1v-1h-1v-1 1h1-1v2h-3v-1h-1v-2h-1v-1l-1 1v-1h1v-1h2v-1 1-1h-2v1h-1v-1h-1v-1 1l-1-1v-1h-4v-1 1h-1 1-2l1 1v-1 1h-1v-1 1h-1v-1h2v-1h-2v-1h1v-1h1-1v-1 1-2h2v1-1h1v-1h1v-1h-2v-1 1-2h-1v-1 1h2v1h1v1-1h1-1 1l-1-1h1v2h2-1 1v1h-1 1-2v1h1v1h1-1v-1h2v1h1v2h-1 2v2h2v1h1v-1h-1v-2h1v-1h-2v1-1h-1v-1h1v-1 1-1h1-1v-1h1v1h1v-1 1-1 2h1v-2 1-1h1v-1h-1v1-4h1v-1h1v-2h1v-1h1-2 1-1v-1h-1v-1h2v-1 1h1v-1 1h1v1h-1v1h1v1l1-1v1h1-1v-2h1v-1h1l-1-1h1v1-1h1-1v-1h-5v-1h-2v-1h-2 1-2 1v1-1 1h-1v-3h1l1-1h4v1h4v1h3v-1h1v-1h1v1-1h1v-3h1v-2h1v-1h1v2h1v-1h-1v-3h2v-1 1h1v-1h1-2v-1h1v-1 1h1v-1h2l-1-1h-1v1h-2 1v-1 1-1 1-1h2v-1h2v-2h1v-1h2v1h-1v-1h-1v1-1 2h1-1 2v1h-1l1 1v-1l1 1v-1h1-1 1-1v1h1v-1 1-1h1v-1h-1 1v-1h-1 2v-1h3l1 1v-1h-1v-1h-1v1-1l-1-1h1v-1 1h1v-1 1-1h1v-1h1-1v1h1v-1h1v1h1v-1 1h1v-1h2v-2h2v-1h1v1h-1 1-1 1v2h1v-2h1v-1h1v2h2v-1h1v-1 1h2v1h1-1v-4 1-2h2-1v1h1v-1h2v1h1v-1h1v-1h1v1h1v-1h1v-1h1v-1 1h1-1 2v-1 1-1h3v-1h4v-1h2v-1h2v-1h2v1-2h2v-1 1-1h1v-2 2h-3v1h-1v1h-1v-1 1-1 1h-1v-3h-1v3h-1v-1h-1v-2h-1v-1h1v-1h-1v1h-1v1-1h-1v2-1h-1v1-1 1h-1 2-1 1v1h1-1 1-1v1-1h-2 1-1v1h-1v-1h1v-3h-1 1v-1h1v-3h-1 1v-1h1v2h-1 1v1h1-1 1v-1h1v-2 1-1h1v-1h-1v1-1h-1v-1h1-1 1v1h1v-1 1-1h1v1h1-1v1h-1v1-1h1v3h1v-1h1-1v-1h2v-1h1v1h-1 4-1v-1h-1v-1h-2v-1h4v-1h1v2h1v-1h1v-1h1v2h1v1h-1 2v-1 1h1v-1h-1v-1h3-1v-1h-3v-1h4-1 2-1l1 1h-1 1v1h1v1h1v-1h2v1-1 1-2h1v-1h3v1h3v1h2v1-1h1v1h1l-1 1v-1h-1v1h-1v1h1-1 2-1v1h-1v2h-1v1h-1v1h-1v2h-1v1h-1 1-1 1v1h1v1h-1 1v-1h1v-2h1v-1h1v-1h1v-1 1h2-1 2v-1h-1 1v-1h-1 2v-1h1v1h-1v1-1 1-1 1h2v-1 1h1-1v2h-1v2h-1 2v-1h2v1-1h1v-1h1v-2h1v-1h1v-1h1v-1h2v1h-2v1-1 1h-1v1h1v1h-1v1h2v-3h4l-1 1h1-1 2v-1 1h1v-2h-1v-1h-2 1-2 1v-1h1v-1h1v-1h1v1h-1 2-1v1h2v-1 1h1v-1h-1 2v-1h1-2v-1h-1v1-1h-1v-1h2v-1h3v-1h1v-1h1v-1h1v-1h1v-1h1v2h-1v1h2-1 1v-1h2-1 1v1-1 1h2-1 2v1-1 1h-2v1h1-1v2h2v-1h2v-1h1v1h-1 1-1v1h-1v1h1v1h1v-1 1h1v1h2v-2h-1v-2h-1 1v-1h-1v-1h-1v-4h-3v-3h-1v-1h-2v1-1l-1-1v-3h-1v-1h-1v-2h3v1h2v1h5-1 1v1h1-1v-1h3v-1h3v1h1-1 1-1v1-1h3v-1h2v-1h2v-1h1v-1h1v-1h1v-6h2v1h1v-2h-1v-2h-1v-1h-2v-1l-1-1v-5l1-1v-2h1v-1h1v1h1v-1 1-5 1h-1v-1h1v-2h1v-2h1v-1h1v-1l1-1v-1h1v-2h1v-1h1v-1h1v-2h2v1h1v-1h-1v-1h2v-1 1-2h1v-1l-1 1h-1 1l1-1v-2h1v-1h1v-1l1-1h1l1-1h1v-3h1l1-1v-1h1l1-1v1l1 1h2v-1h1v1h1v-3h1v-1h1v-1h1v-1h1v1-1h2v1h1-1v1h-1 1-1 1-1 1v1h1v1-1h2v-1h3v1l-1 1h1v1h-1l1 1v1l1-1v1h2v1h1l1 1h1v1-1h1v1h1v-1h4M567 251v1h-2v1-1 1h-1 1-1v-1h1v-1h-1v-1h-1v-1 1h3v1h1zm0 0zM416 516zm-21-236h1l1-1h1v1-1h2v1h2v1h1v1-1h-2v1h1-1 1-1 1v2h-1v-1 1h1-1v1-1 1h1v2h-2v1h1-1 1-1 3v1h1v1-3 1-1h1v-1h1v1h1v2h1v3-1h-1 1v1h-3v-1 1h-1v1h-1v1h-3v-1h-1v1h-2v1h-1v1h-1v1h-4v-2h-2v1h1v1h1v1h-1v-1h-1v-1h-1v-1h1v-5h1v-6h1v-1 1-1h2v-2h2v-1 1h1v-1h-1zm-5 2v1h1-1v2-1h-1v-1h1v-1zm190-20h1v1-1h-1zm108-132h1v-1 1h-1zM582 241h-1 1zm4 1zM282 414zm0 0zm-21-18v-1 1zm0 0zm1-4zm0 0zm0 0zm0 0zm0 0zm0 0zm0-1zm-1 3zm-2 0zm0 0zm2 1zm-2-1zm0 0zm1 1zm0 0zm1-1v-1 1zm-2-3zm0 0zm0 0zm0 0zm3 1zm-3-1zm0 0zm2 2zm0 0zm0 0zm1-1zm0 0zm0-1zm-3 3h-1 1zm-1-1v-1 1zm3 2h-1 1zm-2 0zm2 0zm-2-2zm0 0h-1 1zm1 0h-1 1zm6-3zm-5 0zm5 0zm-5 0v-1h1v1h-1zm19 17zm206-86v1h-1v-1h1zm-43-26h1v1h1-1v-1h-1zm-66-151zm-78 55zm-11 12zm-18 22v1-1zm-9 6v-1 1zm0 2h-1v-1h1v1zm5-5v-1 1zm1 0v-2h1v1h-1 1l-1 1h1-1 1-1v1-1zm4 4v-1 1zm-7 4h1-1v-1h1v-1h1-1 1v-1 1-1 2h-1 1v1h-2zm-5 9zm7-17zm0 5zm-5 9zm-2 3zm-1 1zm11-19v-1 1zm0 1v-1 1zm-8 8zm4-2v-1 2-1 1-1zm-4 8v-1 1zm4-5zm-3-1zm-4 8h1-1zm0-1zm4-7h1v1h-1v-1zm0 4zm-6 7zm12-17zm-1 0v-1 1h1v-1 1h-1zm-5 10zm5-8zm-14 22zm9-21zm5 2zm20-29zm-25 26h-1 1zm-5 15v1-1zm12-18h-1v-1h1v1zm-4 7zm-8 11zm4-13h-1v-1 1h1zm5-3h1-1zm-1 2zm-4 0zm7-1h1v1h-1v1-1h-1v-2 1h1-1 1zm-15 24zm0-2zm0 0zm-27 57zm0 0zm4-20zm3-1zm9-34zm-11 19zm0 1zm8-20zm-15 72v1-1zm22 50zm1-1zm1 1zm-1-1zm-2 0zm3 1zm-4 0zm2-1zm-2-1zm3 4zm0-4zm0 1h-1 1zm-1 2v-1 1h1-1 1v1-1 1-1h-1zm-1 0zm0 0zm1-2h-1 1zm-2 2zm0-1zm4 0h-1 1zm-2 3v-1h-1 1-1 1v1zm-2-2v-1 1zm-1-3h1-1zm4 0zm-2 3zm0-1zm-1 1v-1 1zm4 1zm0-2zm0 0zm-3 1zm2-1v-1 1zm-3 1v-1h1v1h-1 1-1zm4-3zm-4 2zm4-2zm-3 3zm-30-104zm0-1v1-1zm0 1zm-4 3zm0 0zm0 0zm0 0zm31 97zm1 0zM756 96v1-1h1v-1 1h-1zm-4 8h-1 1v-1h1v-1 1h1-1v1h-1zm-55 28v-1 1zm36-21v-1 1zm-2 2v-1 1h1-1zm1-1h-1 1v-1h1-1v1zm1 14zm-3-11v-1h-1 1v1zm-58 38h1-1v-1h1v1h-1 1v1h-1v-1zm8-12h-1v-1 1h-2v-2h-1 1v-1h1v1h1v1-2h1v1-1 1h1v-1 2h-1v1zm-10 10h1-1zm13-9h1-1zm-13 20v-1 1h-1v-1h-3v1-1h-1 1v-1h3v1-1h1-1v-1h1-1 1-1v-1 1h1v-1h1v-1h2-1 1-1v1h-1 1-1 1-1 1v1h-2v1h1v1h-1v1h1-1zm1-11zm-3-8h-1 1v-1 1zm2 8zm-1 8v-1 1zm0-1h-1v-1h1v1zm1-21h-1v1h-1v-1h2zm-2 4h-1 1-1v-1h2v1h-1v-1 1zm3-6h-1v1h-1 1-1l1-1h-1 2zm-2 0zm2 29zm0-6zm14-4v1h-1v-1h1zm14-18v-1h-3v-1h4v-1h1v2-1h-1v2h-1zm-11 18h1v1-1h2v1h1-1v2-1 1-1l-1 1v-1h1-1v-1 1h-1v-1h-2v-1 1-1 1-1h1zm4 4v-2h1v-1h1-1v-1h-1 1v1h1v1-1h1v1h1v1h-1 1-1v1h-1v-1h-1v1h-1 1v1h-1v1h-1 1-1v1h1v-1h1v-2h1v1h1v1h-2v1h-1v1h-1v1-1h-1 1-1 1-1 1v-3h1v-1zm-15-35v-1h-1 1v1h-1v-1 1h-1 1v1-1h1-1v1h-1v-1h1v-2h1v-1h2v-1h2v-1h2v-1h1v-1h2v-2h1v-1h1v1h1v4h-1v2h-1v2h-1v1h-2 1-1 1v-1h-1v1h-1v1h-1v1h-1v1h-2 1v-1h1v-2 1h1v-1h1v-1 1-1h-2v1h-3 1v1-1 1h1-1v-1h-2zm49 42zm-37-15zm-15 2h-1v-1h1v1zm8-12zm-1-11h-1v1-1 1-1h-1 1v-1h1v1zm20 14h-1v-1h-2v1-2h1v1-3h-1v-1h1-1 1v-2h-1 1l1 1h-1v2h1v1h-1l1 1h-1 1v1h1v1-1 1zm23 21v-1 1zm-3-2zm-42-27zm-7 29zm4-6zm0-8h-1 1-1 1-1 1v-1 1h1-1zm7-22-1-1v1h-1v-1h3v-1h2v1h1v1h-2v1h-2v-1zm5 15v1-1h1v1h-1v-1zm38 23h-1 1zm-44-27zm39 25zm-36 7zm13 0h-1 1zm-3-41zm5 1v-1 1-1 1-2h1v2h-1zm4 3v1-2h-1 1v-1h-2v-1h3l-1 1h1v1h-1 1-1v1zm-8 20zm-8 9v1-1 1h-1v1h1-1v1-2h-1v-1h-2v1-1h-3l-1 1v-1h1-2v-1 1l1-1h-1 1v-1h-1v1-1h-1v1-1 1-1h-1v-1 1h-1v-1h1-2v-1h1v-1h-1 1l-1-1h3v1-1 1h-1 1v2-1h1-1 1v-2h1v-1h1v-1h1v3-1h3v1h-1v2h1-1 1-1 1v-1h1v-1h-1 1-1 1-1 1-1 1v-2h2v2-1 1h-1v1h1-1v1h1v1-1h-3 1-1 1v1h1v1h1v1zm9-10zm-11 1zm-7-17zm8 1h-1 1zm14 33v-1 1zm-25-15zm9-11v-1h-1 1v-1 1-1h1v1h-1v1-1 1zm-9 13zm0 0zm30 9zm-33-17v1h-2v-1h1v-1h1v1zm19 2h1v1h-1v-1zm-10-6zm1-22zm2 20zm-2 21v-1 1zm-9-2h-2v-1h1v-2 1h1v1-1 1h-1 1v1h1-1 1-1zm9-19v-1 1h1v1h-1v-1zm-6-7v1h-1v-2h1-1l1 1zm28-11v1-1zm13 34zm-40-15h1-1v1-1zm8-1zm14-4v-1 1zm-18-1v-1 1zm19 30zm-28-9zm20 11h-1v1-1h-1v-1h1v-1h1-1 1v-1h2v-1h1v-1h2v-1 2h-1v2h-1v1h-2v1h-1zm-5-17zm15-27zm-21 12zm-2-8zm-4 25zm22-26v-1 1h1v-1 2h-1v-1zm-26 8zm10-14v1-1zm-7 12zm-3 2zm49 24zm0 0zm-36-18zm4 23h-1 1zm11-35zm-15 22h1-1zm3 1zm-12-8zm7-23zm4 31zm3-5h-1 1v-1 1zm16-14v1-1 1-1h-1 1zm-23 28zm7-6h1v1-1 1h-1 1-1 1-1v1h1-2v1-1 1h1-1 1v3h-1v-6h-1v-1h1v1h1zm-4-4zm15-23h1v1h-1v-1zm20 29h1v1-1h-1zm-2 1zm-42 0zm8-7zm-5-19v-1 1zm-5 1zm7 10zm-3-9zm-4 11h1v1h-1v-1zm-2-12zm-1 0h1-1v1-1zm1 1zm3 9v1h-1v-2h1v-1h1-1 1v2h-1zm10-2zm37 16zm-50-22v-1 1zm2 3h-4l-1 1v-1h-1 1-1 1-1 1v-1h1v-1h1l1 1v-1 1-3 1h1v2h2v1h-1zm3 10zm4-5zm15 7zm-12-8zm4-6v-1 1zm-11 20zm23 12zm0 0zm-22-36zm3 7v1h-1v-1h1v-2h2-1 1-1 1v-1h1v-1h2-1 2v1h-2v2h1-1v2h-1v-1h-2 1v-1h-1v1h-1zm42 23zm-26-14h1v-1 1h-1zm-7 3zm-9-14zm-4 3v1h-1v-1h1zm14-14v1-1 1-1h-1 1v-1 1zm-7 15zm11-9zm-19-13zm-7 29zm18 4zm23-27zm15 39h-1v-1h-1v-1h1v1l1 1v1-1zm-50-9zm3-23zm-3 13v-1 1zm47 19v-1 1zm-41-21zm1 18zm39-5zm-40-34zm20 14zm-14 31zm-16-6h-1 1zm-2-13zm27 2zm-23-5h1-1zm-1 13zm-1-18h1-1v1-1zm19 11h1-1zm-11-17zm-4 10zm21 24zm-16-34v1-1h-2v-1h2v1zm-2 0zm-3 20v-1 1zm3 19zm42-12zm-38-26h1v1h-1v-1 1-1 1l-1-1v1-1 1-3h1v1h1v-1 1h-1 1v1h-1zm15 32v1-1zm-14-5zm9-36v1h-1v-1h1zm31 37zm-41-42v-1h1v1h-1zm-1 1zm13 5zm-4 24zm-8 11zm-1-40v1l-1 1v-2h1v1-1zm-9 26zm25-21zm-89 64h1-1zm-1 0zm9-4zm6-2zm2-1zm-28-2h-1 1zm67-44zm-15 28zm16-24zm-30 23h-1 1zm14 9zm-9-3zm26-41h1v1h-1v-1zm-18 45v-1 1h1-1v1-1h-2v1h-1v-1h1v-1h1v1-1h1v1zm16-38h2v1h1-1v1h-1 1l-1-1h-1v-1zm2-2v1h-1 1-1 1-1v-1h1-1 1-1 2-1zm-21 35zm20-35zm-1 2h1-1zm-18 39v-1h1v1h-1zm-7-4v-1h1v1h-1zm10-8zm12 7zm-22-7zm-10 18zm10-18zm20-5v1-1zm-24 20h1v-1 1h-1zm11-2zm-17 4zm7-16h1-1 1-1v1-1h-1 1zm22-5 1-1v1h-1zm-13 10zm4-6zm-3 4h-1 1-1v1h1-1 1-2v-2 1h1v-1 1-1h1-1v1h1zm-11 12v-1 1zm13-4h-1 1zm17-42v-2l1 1h1v1h-2zm-28 31zm-6 0h1-1zm34-29v-1 1zm0 2zm-32 46zm-1-19zm7 14zm9-5v-1h1l-1 1zm-9-9v-1 1zm8 11zm-13 4zm18-9zm13-12v-1 1zm-14 17h-1 1zm11-6zm-13 1zm10-12zm-23 19zm0 2zm8-10zm3 7h-1v-1h1-1 1v1zm14-39h-1l1-1v1zm-23 42h-1 1-1 1zm11-5v-1 1zm-1-9zm-1 8zm-7-3zm17 2zm-5-3zm-18 15v-1 1zm28-24h-1 1-1 1-1 1zm-3-2zm-2 14zm-17-2zm-6 13zm12-15zm-13 4zm20 1h-1 1-1 1v-1h-1 1v1-1h1v1h-1zm-1 2zm-12-5zm-1 1zm7-3zm-5-4zm-9 0zm30 6h-1 1zm-14 5zm5-5zm12-29h-1v-1 1-1h-2v1-1h-1 1-1v-1 1-1 1-1 1l-1-1v1-1 1-2 1h2-1 3v1h1v1zm-64-29h1v-1h2v1h-2v1-1h-1v2-1h1v1h1v2h-1v-1h-1v1h1v1l1 1h-1v-1 2h4v-1 1h-4v-1h-1v-3h-1v-2h1v-1zm13 0v-1 1h3v2h-1v-1h1-1 1-1v1-1 1-1h-2v-1 1-1zm22-28h1v1h1v1h1-1v1h-2v-3zm-28 19h4v2h-1v-1h-1v1-1h1v1-1 2h1v1h-1v2h-1v1h-2 1-1v-1h-1v2-1h-1v-5h1v-2h1zm14-1h1-1 1v1h-1v-1zm0 2v-1 1zm1-2h1v2h-1v-1 1h1v-1h-1v-1zm-11 17h1-1zm1 0v1-1 1-1zm-11-3zm0 1zm-51 119v-1h-1 1v1zm3 16zm2-5v-1 1zm2 5zm-1 0v1-1h1-1zm-1 0zm21-33v-1 1-1 1h-1v-1h-1v1h-1 1v-1h-1 1-1v1-1h-1v-1h-1v-1h1v-1 1-1h1v1h1v1-1h2v-1 1h-1v-4 1h1v-1 1-1 1h1-1v1h1v-1h2v-1 1h1v-1h1v2h1v2h-1v1-1 1h-2v-1 1-1h-1 1v-1h-1v1h-1v1h1v2h1v-1h1v2h-1v-1h-3zm-15 1h-1 1zm3-1h1v-1 1h-1zm1-1zm9 4zm0-7h-1 1zm-1-1h-1v-1h1-1 1v1zm-2 2zm-6 1h-2 1-1 1v-1 1-1 1h1zm8 2zm0 1zm-1 0zm1 0zm5-2v-1h1v1h-1zm0-2zm-1 0zm-18 17zm18 20zm-21-19zm15-6zm-5-2h-1 1zm9 29h1-1zm1 0zm0 0h1-1zm-4 0h1v1h1v2h1-3v-1h1-1v-2zm6-2zm1-1v1h1v1h-2v-2h1v1-1zm2 3h-1v-1l1 1zm-3-3zm-1 0v1-1zm1 0v2-1h-1v-1h1zm6-14v-1 1h1-1zm0 0h1-1v1-1zm3-23zm-29 16zm30-20v-1 1zm3-27h-1v-1h2v-1 2h-1v-1 1zm-7 55v-1h1v1h-1zm-4 16h-3 3zm-20-7zm0-13zm-3-3v-1h1v1h-1zm3 14h1-1zm11-18zm8 28zm-8-41zm24-11zm-34 44zm12 2zm21-47zm-35 30zm25 4v1-1zm8-37h1-1zm-34 40zm7-8h-1v1h-1v2h-2v-1h-2v-1h1-1 1-1 1v-1h-1 1v-2h4v1h1v1zm1 1v-3h1v-1 1-1h1v1-1h1v1h1v1h2v1h-1v2h-1v-2h-1v-1 1-1 1h-1 1-1 1-1 1v2h-2v1h-1v-1h-1v-1h1zm11 20zm-20-24h1v1l1-1v1h-2v1h-1 1-1v1h-1v-1h1v-1h1v-1zm38-26zm-19 16zm2-6zm-20 18zm5 17zm18-11zm-8-38zm-14 42h1-1 1-1 1v1h-1v-1 1h-1v-1h1v1-1zm11-42zm-10 37zm6 11zm13 8h-1v-1h1v1zm14-51zm-23-5zm-4 48zm9 6zm2 2h-2v-1h2v1zm-13-6zm0-7zm31-39zm-28 32zm-10 7v-1 1-1 1-1 1-1h1v1h-1v-1 1-1 1zm15-43h1-1 1-1zm-13 33zm31-48zm-33 56h1-1zm36-35v-1 1zm-28 26v-2 1h1v1h-1zm12 25h-1v-1h1v1zm-18-38h1v-1 1h-1zm0 21v-1h2-1v1-1 1-1h-1v1-1 1zm14-24v-1h-1 1v1zm11 24zm-11 12v-1 1zm-5-34v1-1 1-1 1h-1 1v1h-1 1v1-1 1h1-2v1h-1v-1h1v-1h-1 1v-2h1zm11 39h-1 1zm15-53zm-32 34h-1v-1 1h-1v-1h5v1h-3zm17 2zm-18 2zm8-6v-1 1zm-8 11h1-1zm26-31h1-1zm-3 23zm-21-8zm5-14zm26-11zm-17 46-1-1v-1h1v1h1-1v1zm-28-24v-1 2-1zm27 26v-1 1zm2 1h-1 1zm6-15zm-5 0zm-18 2zm-4-6v-1 1zm23 7zm-7-43zm-23 38zm8-5zm13-33h1-1zm-8 21zm32-16zm-39 30h-3v1h2v1l1 1h-2v-1h-2v-1h-1 1v-1h1v-1h3v-1 1h1l-1-1h1v2h-1zm4 6v-1h-1 2-1v1zm5 0zm11-19v1h1l-1 1h-1v-2h-1v-1h1-1v-1h2v1h2v1h-1v1-1h-1zm-12 21zm12 10zm-10-28h-1v-1h-1v1h-1l-1-1h1-1v-1h-1v1h-2v-1h2v-1 1h1v-1h1v-1 1h1v-1h1v3h1-1 1v1zm27-19v-3h1v1-1 1h1-1v1h1-2v1zm-19-6v-1h1-1v1zm-14 49v-1h1-1v1zm14 2h-1 1zm-10-8zm31-39zm-1 2zm-29 35v-1h1l-1 1zm10 13v-1h1v1h-1zm4-1zm-9-23h-1 1v-1h1v1h-1zm-17 24zm-8 1v-1h2v1h1v-1h3-1v1h1-1v1h1-3v-1h-3zm-20-88v1-1zm1 1zm-5 2v2h2v-1 1-1 1h1v1h4v1h-3v-1h-3v-1h-1v-1h-1 1v-2h1v1h2-1v1h-1 1-1v-1h-1 1-1zm-1 25h1v1h1-1v1-1h2v1-2h1-1v-2h-1 2v1-3h1v-1h-1v1h-1v1h-1 1v-1h1v-1h3-1v1h-1v1l1 1v1h-1v-1h-1 1v1h1v1-1 1h1v5-2h-2v1-1h-1v2h1-1v1h1v1h-1v4-1h-1v-6h-1v1h-1 1-1v-1 2-1h-1v-2h1-1v-1 1h-1v2l1 1v2l1 1v1h1l1 1v1h1v1-1h1v-1 3l1 1h-1v-1h-1v-2h-1v-1h-1v-1h-1v-1h-1v-3h-1v-5h1v-2h1v-1h1v-1 1h-1v2h-1zm5 10v-1 1-2 1-1h1v2h-1zm6-33h-1 1zm-6 27v4-4zm-32 29h1v1h-1v-1 1h-1v1-1h1v-1zm0 0zm3 5h-2l-1-1-1-1v-1 1h1v1-1h1v-2h-1 2v1h2v1-1l-1 1v2zm-3-4zm0 0v-1 1zm27-54h1v1-1h-1zm8-5h-1v-1h2v1h1v-2h1-1 3v1h4v1h1v1h-4v-1h1-1 1v-1 1h-3 1-5 1-1v1h-1 1v-1zm-19 117zm0 0zm-2 0v-1 1zm0-1zm0 0zm0 0zm46-25h1v-1 1h-1zm-46 15zm0-1zm0 0zm0 0v1-1zm0 0zm0 1zm0 0zm-1-1zm0 0zm0 1zm71-18h1-2 1zm-2 2zm1-1h-1 1zm5-1zm-1-1h-1 1zm1 3h-1 1zm-14 2zm10-5h-2v-1h1v1h2-1zm1 0h1v1h-3v-1h-1 3zm-11 5zm9-4h-1v-1h1v1zm-91 44v-1l1-1v-1h1v-2h1v-1h1v-1h1v-2h1v-1l1-1v1h1v2h1v1l1 1v1h1v1h-1v1h1-1v1h1v2h-1 1v3h-1v1h-2v-1h-5 1-1v-2h-2v-2 1h-1zm3 2zm-1-17 1-1v-1h2-1v1h-1v1h-1zm-1 16zm3 2zm20-27v1-1zm-2-6zm-2 2h-1 1zm1-1zm-1 5h-1 1zm1-2zm-1 12zm1-15v-1 1zm3-1zm-4 7h1-1zm1 1h1-1zm-1-1h-1 1zm3-7zm-1 6h-1 1zm0 2zm2-2zm-2 0zm0 8zm0-13zm-3 1zm-1 3v-1 1h1-1zm3 2zm1-3zm2 3v-1 1zm-6-5h1v1h-1v-1zm4 1h-1v-1h1v1zm-3 0v1-1zm4-3zm-3 4zm2 4zm0-6h-1 1zm0-2zm2 6zm-3 1zm1-4zm-1 0zm0-2zm1 3zm0 2zm-15 7zm13-10h1v1h-2v-2h2v1-1 1h-1zm2 3h-1v-1 1h1zm0 9zm27-35 1-1v-1h2v-1h3v1h1l1 1v1h-1v-1 1h1v-1l-1-1v1h-2v2h1v-1 1h-2v-1h-1l-1-1h-1v1h-1zm-3-3v1h1v1h1-1v2h-1v-1h-1v1-1 1-1 1-1h-1v-3h2zm-18 73zm0 2zm0-2v-1h-1 1v1zm14 0v-1h1-1v1zm-13-1zm1-2h-1 1zm4 1zm-6 3h1-1zm1 0zm4-3zm9 1zm-50-1v1h-1v1-1h-2v1h-2v-1 1-1 1h-2v-1 1-1 1h-3 1-2v-3h1v-1h1v-1h1l1-1v-2h1v-2h1v-1h1v-1h5v1h3v1h1v3h1-1v1h-1v1h-1v1h-2v1h-1v1zm5-1v-1h2v1-1 1h-1v1h-1v-1zm-16 5h1-1 1-1zm2-2h1-1zm-4-32zm2 31zm1 3v-1 1zm-1 2zm-3-38h-1v-1 1h1zm4 36v-1h1-1v1zm-4-36zm16 32zm-13 5h1-1zm13-5zm-7 5zm1 33v-1 1zm9-43zm-7 10h1-1zm-7-3h-1 1zm-4-32zm-1-2zm7 36h-1 1v-1h1v1h-1zm7-4zm-13-30zm15 30v-1 1zm-5-10zm-7 12zm17-4zm-17 6h1-1zm-1 0zm0 1v-1 1zm2-1zm13 35zm-14-35zm-1 37h-1 1zm0-36v-1 1-1 1-1h1v1h-1zm-3-37zm19 27zm1 5h-1 1zm-16 2zm0 1v-1 1zm6 34zm-5 5zm-4-72zm18 28h1-1zm-18-28zm3 32zm-4-34zm47 43zm0 0zm-1 0zm1 1v-1 1zm0-15h1v1h-1v-1h-1v-1h1v1zm0 14h-1 1zm-55-43zm1 1zm0 0h-1v-1 1h1-1 1zm-1-1 1-1v1h-1 1-1zm-42 56h1-1zm-2 4zm9-38v-1 1zm-7 34zm4 52zm-1-1v-1 1zm0 0zm0-4zm3-2zm-9-41h1-1zm74 18h-1v-2 1-1l1 1v1zm-1-1zm0 1v-1 1zm0-1zm0 0h-1 1zm0 0zm-5 3zm-26-54v-1 1zm2 46zm-2-36h1v-1 1h-1zm1 1h-1v-1h1v1-1 1zm-38 188zm0 0zm1-33zm-6 14v-1 1zm0-3zm3 22v-1 1zm1 0h-1v1h1-1v-1h1v1-1zm-1 1zm1 0v-1 1zm2-34zm-2 34zm1 0zm0-1zm3-36zm-3 32h-1 1zm-3-22h1-1zm21 1zm-18 25zm-3-24v-1 1zm-1 27zm3-31zm0 29v-1 1-1h1-1v1h1-1zm-58-93v1h-2v-2h-1v-1 1h1v-1 1-1 1h2v1zm0-26h1-1zm2 5zm21 36h-2 1v-1 1h1zm-21-36zm-1-3zm0-1zm-1 0zm11 24zm-11-21v-1 1zm1-3v-1 1-1 1zm0 0zm-1-1zm1 1zm-16 35h1-1zm16-35zm0-1zm0 1zm5 19zm-6-19zm2 5zm-16 30h-1 1zm15-35zm-1 44zm1-44zm0 0zm-1 0zm1 0zm1 5zm-1-5zm13 38zm-27-2zm15-31zm0 0zm-15 31v-1 1h1-1zm-2 0zm15-36v-1 1zm0 0zm-14 36h1-1zm14-36h1-1zm2 5zm0 0zm-2-5zm5 23zm-4-23v-1 1-1 1zm0 0h-1 1zm-1 0zm-13 35h2v1h1v1h1v1h1v1l1 1v1-1 1-1h-1v-2h-2v-1h-1v-1h-1 1-2v-1 1-1h-1 1zm14-35zm1 5zm-1-5zm60 25zm0 0zm-60-25zm1 45v1-1h-1v-1h-1 3v2-1h-1zm-1-45zm-1 0zm0 20h1l1-1v2h1-1v3h-3v-3h1v-1zm1-20h-1 1zm0 0zm-15 36v-1 1zm14-36zm1 0h-1 1zm1 6zm-2-6zm61 25zm0 0zm0 0zm-7 95zm77-39zm1-1v1-1h-1 1zm-2 2 1 1h-1v-1h-1 1zm-15-10h-1 1zm15 10zm-1 0h-1 2v1h-1v-1zm1 1h-1 1zm3-2zm-21-6zm18 6h-1 1zm1 2zm2-1zm1 0h-1 1zm-2-1zm0 0zm3 2v-1 1zm-3-2zm0 1v-1 1zm-1-1zm2 1h-1v-1h1l1 1h-1zm2 1h-1v-1h1v1zm1 0h-1 1zm-2-1h-1 1zm-2-1zm-134-59v1-1zm130 60zm0 0zm-9-5zm11 6zm-16-11zm16 10h1-1 1v-1 1h-1zm-2 0zm4 0zm0-1zm-18-9zm18 9v1l-1-1h1v1-1zm-71 0zm0 0zm0 0zm69 1zm1 1-1-1h1v1zm-1 0v-1h-1 1v1zm-36-53zm-8 6v-1 1zm4-2zm0 1zm0 0zm0 0v-1 1zm25 19h-1 1zm0 0zm-6-18zm3 15zm2 6zm0 1zm-2-7zm-5-17zm6 5v-1 1zm1 18zm-47 9zm-6-41zm10 31zm14-151h-1v-1h-1 1v-1h-1 1-1v1-1h-1v-1h-1 1-1 1-1 1v-1h-1v1-1 1-1h-1v-1h-1v-2 2-1h1v-1h-1v1-3h1v-1h1v-1h2v1h3v1h-1v5h-1 1v4zm0 0zm17-12v-1h-1v-1h3v1h3v1h1v1h-5v-1h-1zm-16 11zm-1-3zm1 3zm0-2h-1 1zm0 2zm0 2v-1 1zm-1-4v-1h1v1h-1zm15-11zm-19 10zm5 1v-1 1zm-1 2h1-1zm1-2zm-1 1h1-1zm1-2zm1 3v-1 1zm-2-4zm-20 14v-1h-1v-2h2v1h-1v3h1v1-1h-1v-1h-1 1zm-11-8h-1 1zm-1 0zm1 0v1-1 1-1zm1 0zm9 5h-1 1zm0 3v-1 1zm0-3zm-164 82zm4-3zm0 0zm17 26h-1 1zm5 0zM527 96v-1h2-1 2v1h1v1l1 1h-3v-1h-2v-1zM279 417zm0 0zm0 0zm6-7h-1 1zm5 0v-1h-1 1v1zm42 17zm3 3zm-1-1h-1v-1h1v1zm1 1v-1h-1 1v1zm0 0zm-3-2v-1 1zm9 6h-1 1zm-2-1zm0 0zm16-42zm0 0zm4-9v-1h1-1v1zm-7 6zm-1-15zm0 0zm2 15zm-3-11zm1-4zm-2 11h1-1zm0-6v3-4 1zm2 11v-1 1zm2 2-1-1h1v1h1v1h-1v-1zm-2-18zm0 0zm8 17v-1 1zm-9-5h-1l1-1v1zm4 5zm-3-17zm4 18zm-6-8v-2 2zm1-9v2l-1 1v-1l1-1v-2 1zm10 7h-1v-1h1v1h-1 1zm-9-8zm0 1h-1 1zm8 8zm1-1h1-1zm-10 7v-2 1l1 1h-1zm9-5v-1 1zm-10 2 1 1h-1v-3 2zm4 4v-1 1zm-1-18h-1 1zm0 1h-1v1h-1v-1h1v-1h1v1zm1-3h-1 1v2h-1l-1-1v1-1l1-1v-2h1v2-1 1zm-1 3zm2-1zm-2 1zm0-1v1-1h-1 1zm3-3h-1 1zm-3 4zm15-20v1h-1v-1h1zm39-65v-1h-1 1v-1h-1v1-1h1v2zm-11 15zm-6-5zm-1 4h-1 1zm21-5zm0 0zm0 0zm0 0zm0 2zm-1-4zm0 1zm0 0h1-1zm-1-3h-1 1zm-2-6zm0 0zm0-1zm0 1zm3 6zm-3-6zm0 0zm3 6zm-1 0zm-3-6zm3 7zm-3-8v1-1zm1 1zm-10-6h-1v1h-1v1h-2v1-2h1l1-1h2zm12 12zm-2-6zm2 6zm1 0zm-3-6zm2 7zm-3-8v1-1 1-1zm3 7zm-12-12zm12 14zm1-2zm-3-6zm0-1v1-1 1-1zm1 7zm-2-6zm3 6zm0 0zm-1 0h1v1h-1v-1zm-2-10v1-1zm0 1v1h1-1 1-1v-1zm0 3zm-14 0zm4-5zm-2 1v1h-1v-1h1-1 1zm2-1zm-2 1h-1 1zm13 3zm-1 0h1-1zm2 7h1-1zm-2-8v-1h-1 1v1zm0 1h1-2v-2h1v2zm-2-1h1v1-1 1h1v1h-1v1h-1v-3zm175-23h-1 1z"/><path d="M6 433h1v1-1h1-1v1h1-1 2-1 1v1H8v-1 1-1 1h1-1 1v1-1 1-1 1-1 1h2v1-1 1h1v1-1 1-1h1v1h1v1-1 1-1 2-1h1v1h1v1h1-1 1v1-1 1-1 1-1 1h2v1h1v1h1v1h1v1-1h1v2-1 1h1v-1 1h1v2-1 1-1h1v2h-1 1v-1 1-1 1h1v1h1-1 1v1h1v1h1v2-1h1v1h1v2h-1 1-1 1v-1 2-1 2-1 1-1 1h1v-1h-1 1-1 1l-1-1h1v1h1v1h2-1 1-1 1v1-1 1-1h-1v-1h-2v-1h1v1-1h1v1-1 1-1 1-1h-1 1v-1 1h1v1h1v1-1 1h2v1-1 1h-1v-1 1h1v1h1v2-1 1-1h1v1h1v1h1v1h1v1h1-1 1-1 1v1-1 1-1 1h2v1-1 1-1h-1v-1h1v1-1 1h2v-1h-1 1-1 1-1v-2h-1 1-1 1-1v-1l2-1 3-1 3-1 2-1 4-1 4-2 4-1 4-2 3-1 5-2 5-2 1-1h3v1h1v1h2-1 1v1h1v1h2v1h1l1-1h12l1 1h3v1h2v1h2v1-1h-2v-1 2h1v1h1v2h1v1h1v2h1v1h1v1-2 1h1v1h1v2h-1 1v3h1v3-1 1h1v3h-1v-1 1-1h-2v1-1h-2v1h-4v1h-5v1h-1v1h-2v1-1h1v1-1 1-1 1h1v1h-1v1h-1v1h-1v1h-1v1-1h-1l1 1h-1v5h1v1h1v1h1v1h2v1h2v1h1v4h1v3h1v1h2v2-1h5v-1h2v1h-1 1v1-1 1-1 1h1v-1h3v-1h1v1-1h2l1-1h-1 4v-1h1v-2h1v-4h-1v-2h1v-4h1v-2h1v-2h-1v-2 1-2h1v-1h1-1v-1h1v1h1-1v1h1-1 1v-1h1v-1 1-1 1-1h2v1-1h1v1-1h1v-1h2v-5h-1v-1h-1v-1h1v1h1v1h1v1h3-1 1-1 1v-1h2v-1h2v-1h1v-1h1v-1h2v-1h1v-1h1v-1h1v1h-1v1h-2v1h1v-1h1v-1 1-1 1-1h1v1h-1 1v1-1h1v1-1h-1v-3h1v-1h2v-1h1v-1h1v-1h1v-1h1v-1l1-1v-1 1h1v1-1 1h1v-1h2v-1 1l1-1h1-1 1v-1h3v-1h-1v-1h3v-1h3v-1h2v-1h1v1h-1v1h-1 1-2v1h1-1 1v-1h1v1h1v1h-1 1v1h-1v2h-1 1v1h3v-1h1v-1h1v-1 1-1h1v-2 1-1h-1v-1h-1v-2h-1 1v-1h-1 1-1 1-1v1h-2v-1h1v-1h1v-1h2v-1h1v-1h1l1-1h1v-1h1v-1h2v-1h1v-1h2v-1h3v-1h4v-1h5v1h-3l-1 1h-3v1h-2v-1 1h-3 1v1-1 2h1v-1h2v1h1v1h-1v2h-1 1v2h-1v1h-1v2h1v1h1v2h1-1 1v1h-1 1v1h-1 1v1h-2v2-1 1-1 1-1h-1v-1h-2 1v1-1 2-1h-2v-1 1h-1v1-1 1-1 1h-1v1-1 1h-1v1h1l1 1h1v-1h1v1-1h1v1-1h2-1v1h1-1 1v-1 1h1-1 2-1 2-1 1v-1h1v-1h1v-1h1v-1 1l1 1h2-1 1v3h1v1h3v-1h-1v-1h1v-2h-1v-1h1v-3h1v-1h1l1-1v-1h1l1-1h4v-1h1v-1h1v-1h2v1h1v1h4v-1h3v2h2v1h4v-1h1v-1h1v-3h1v-1h1v-1h3v-1 1h1v-2h-1 1v-1h2v-1h2l1-1 1-1h1l1-1h2l1-1h2v1h2-4v1-1 1h-1 1-1 1-1v1h-1 1-1 3l1 1v1h1v1h1v1h-1v1h1v1h1v1h-3v2h-1v1h-1v1-1h1v2h1l-1 1v3h3v1-1 1h1l1 1v-1 1h2v-1h1-1 2v-2h1-1 1v-3h-1v-2h-1v-3h1v-1h1v1h5v-1h1l1-1v-1h1v-1h1v-2h1v-1h1v-6h-1v-2h-1v2h-1v-1h-1v-3h1-1 1-1 1-1 1v-1h-1v-2h-1v-1h-1v-2h-1 1-1v-2h-1v-3h-1 1v-1h-1l-2-2h-1v-1h-2v-1h-2 1-1 1v-1h-1v-1h1v-1 1h1v-1 1-1h-1v-1h-1v-1h-1v-1 1h-1 1-1 1-1v-1h1-1v1-1h-1 1-2v-1 1-1 1h-1v-1h-1v-1h-1 1v2h2v2-1h-1v1-1h-1v-2h-1v-1h-2v-2h-1v-1h-1v-1h1-1 1-1 1v-1h-1 1v-1h-1 1v-1h-1v1-1h1-1v1-2 1h-1v-1 1-1h1-1v-1 1-1 1-1h-1v-1l-1-1-2-1-2-1-2-1-2-1-3-1-2-1h-1v-1h-1 1-2v-2h1-1 1-2v-1h1v1h2v1h1-1v-1 1-1h1-1v-1 1l-1-1v1-1 1-1h-1 1-1v-1 1h-1v-1h-1 1-1v-1 1-1h-1v-1 1h-1 1v1h1-1 1-1v-1h-1v-1 1-2h1v-1h-2v1h-2v-1h-1v1-1 1-1 1h2-1 1v1h-1v-1 1-1h-1v1h1v1h1-1 1-2 1-2 1-2 1-2v-1h-1v2h2v2-1h-1v1h-1v-2h-1v1h1-1v-1h-1v-1 1-1 1h1v1-1h-1v-1h-1v-1h1v1h1v1h1v-1h-1v-1 1-2h-1v-1h-1v1h1v1h1v1h1v1h-1v-1h-1v-1h-2v-2h-1v1-1 2h-1v-1h-1v-1h-1v-1h-2 1v1-1 1h2v1h1v1h2v1l-1-1v1-1 1h1v1l-1-1h1-1v-1h-1v1-1h-1v1h1v3-1h-1v1h-2v-2h-1 1-1v-1 1-1h-2v-2h-1v-1h1-2v-2h-1v1h1v1-1h-1v-1 1-1 2h-1 1-1v1h1v-1 1h1v1h1-1 1v1-1 1h1-2v-1h-1 1-1 1v-1h-2v-1h-1v-1h-1v1h1-1v1-1h-2 1-2v-2h-1v-1 1h1-1v1-1 1-1 1-1h-1v1-1h-1v-1h-2v1h1-1 1-1v-1h-1 1-1v-1h-1 1v-1h1v1-1h1v1-1 1h1v1h1-1v-3h1v-2h-1v-1h-1v-1h-1v-2h1v1h1v-1h-1 1v1-1 1-1 1-1 1h1-1v-1h1v1h1v1h1v-1h-1v-1h4v-1h-1v1-1h-1v-1h-1 1v-1h1v1h1v-1h-1v-1 1h1v-1h-1v-1h-1v2h-1v-1h1-1v1h-1v-1h-1v1h1v1h-2v-1h1-1v-1 1-1h-2v-2h-1 1v-1 1-1h-1 1-1v-1h-1v-4h-1 1v-1 1l-1-1v1-1h1v-2h1v-1h1-1v-1h1-1 1-1v1-1 1-1h-1v1h1-2v2h-1v1h1-1v-1 2h-1v-3 1h-1v-1 1h1v1h-1v-1 1-1 1-1h-1v2h1v1h-1v-1 1h1v1h-1v-3h-1v-1 1-1 2h1-1v-1 1h-1v-1h1-1 1-1v-1h-1v1-1h1v-1h-1 1v-1 1-2h-1v1-2h-1 1-1 1v-1h-1v-5 2h-1 1l-1 1h1v4h-1v1h-1v1h1v2-1h-1v-2h-1v-1 1-1 1h-1v1h1v2-1h-2 1-1 1-1v1h-1v-1 1l-1-1v1-1h-1v-1h-1v-1h-2 1-1v-5h-1v-4 1-1h-1v-2h1v-6h1v-3h1v-1h2v-1h1v2-1 1-1 1h1-1v-1h1v2h1-1 1v-1h-1 1-1 1v1-1h-1 1v-1h1v-1 1h1v1h-1v-1 1-1 2-1 1-1h1v1-1 1h1-1 1v1-1h1v1h1-1v-1 1-2h-1v-1h1v1h-1 1v-3 2-1 1h1v-1 1-1h-1 1v-1 1-1h-1 1-1v-2 1h1-1 1v-1h-1v1-1h1-1v-1h1-1v-1h1v1-1 1h1v-2 1-1h1-1 1v-1h-1v-1 1-1h-1v1-1h1-1 2v1-2 1-3 1-1 1h1v-1h-1 1v-1h-1v1-1 1-2 1-1 1h1-1v-1h1v1-1 1-1h1-1 1v-2h1-1v-1 1-1h1v1-1h3v1h1v-1h-2v-1h-2v1h-2v1h-1v-1h1v-2 1h-1v-1h1v-1 1-1 1-1 1h1v-1h1-1v-1h-1 1-1v1-1 1h-1v-1 1h-2v-1h-1v-2h-1v1-1h1-1 1v-2h1v-2h1v-1h1v-1h2v-1h1v1h3-1 1v1h3v-1h1v-1h-1v1h-2v-1h1-3v-1h-1v-2h2v-1 1h2v-1h-1v-1h-1 1-1v-1h-1 1-1v-3h1v-1h1v-2h1v-1h1v1h1v-1h1v-1h2v-1h1l1-2v-1h1v-1h2v-1h1v-1h1v-1h-1v1h-1v-1h-1v-1 1-1h1v-2h1v-1h2v-1h1v-1 1-1 1-1h1v-1h2v-1h2v-1 1-1h3v-1h-1l-1 1h-3v1h-1v-1h1v-1h-1v1h-1v1h-1v-1h-1v1h-1l-1 1v1h-2v1h1-1 1-2v-1 1h-1v-1h-1v-2h-1v-1h-1v-1h-1v-3 1h1v1h1v-1h2v-3h1v-1h1v-1h1v-1h2v-1 1h1v-1 1-1h1v-1 1-1 1h1v-1h1v1-1h-1v-1h-2v-1h1v-2h1v-1h1v-1h1v-1h1v-1 1h1v-1 1-1 1-1h1v1h1-1 1v1h4v1h-1 2v1h2v2h1v-1 1-1 1-1h1-2v-1h-1v-1h1-1v-1 1-1h-1v-1 1-1h-2 1v-1h-1 1-1v-1h-1v-1h-2v-1 1-1h-1v1-1h-1v-1h1-1 1v-1h-1 2v1h-1 4v-1h1v2-1h1v-2h-1v-1h1v1-1h-2 1-1 1v1-1h-1 1v1h-1v-1h-3v-2h1v-1h1v-1 1h1v-1h4v-1 1h1v-1 1h1v-1 1-1h2l-1-1v1h-1v-1 1h-1 1l-1-1h1v-1h-1v-1 1-1 1-1 1-1 1-1h-1v1-1h-1v1h-2 1-1 1v-1h-1v-1h-1 1v-1h-1 1v-1h-1v-1h1v-1h1v-1h2v1h2v-1 1-1h2v-1h2v-1 2h1v1-1 1h1v-1h1-1 1v1h1v-1h2v-1h-1v-1 1h-1v1h-2v-1h-1v-2h-1v1-2h1-2v-1h-1v1-1h-1v1h-3v-1h-1v-1h1v-1h2v-1h1v-1h2v-1 1h1v-2h-1v1-1 1h-1v-1 1-1h1v-1 1h-1v-1h1-1 1v-2h-1v-1 1h-3v1h-2v-1h1-1v-1h1v-2h-2v-2h1v-2h1v-1h1v1h1v-1h1-1v2h1v-1h2v1h-1 1v3h1-1v1-1 1h1v-1h1v-1 1h1v-1l-1-1h1v-2h1v-2h1l1-1h1v-1 1h1v-2 1h-1v-1h-1v1-1h-1v-1h-1v-2h1v-1h2v-1h3v1h1v-1h1v2h1v1h5v1-3h-3v-3h1-1v-1 1-1h-1v-3h1v-1h2v-1h3v-1 1h1v-1h1v1-1h1v-1h-1 2v-1h-1v-1 1h-5v-1h1v-1h3v-1h1v-1h2-1 2v-1h2v-2 1-2h-1v-1h1v-1l1-1h2v1h1v-2h1v1-1h1v-2h3v1h2v-1h1v1h2v-1l-1-1h1v1-1h-1v-1h3v1h1v-1h1-1v-2h-2v-1h-1v-1h1v-1h1v-1h2v-1h3v1-1 1h1-1v1h-1v1h-1v2h-1l1 1h2v-1 1h1v-1h1v-1h2v1-1h1-1v-1h1v-1h-1v-1h1v-1h1v-1h-4v-1h1v-2h1-1v-2h1v-1h2-1 2v-1h4-1v-1h1v1h1v1-1h1v1h2v1h1v-1 1h2v-1h1v1-1 4h1v1h1v-3 1h1v-1h1-1 1v-2h1-1 1v2h1v1h2v1-1h1v-2h1v-1h1v1-1h3v-1h-1 1-1v-1h2v-1h3v1h1v2h2v-1h-1 1v-2h1v-1h1v1h1v-3h1v1h2v1h1v-1h-1v-1h-1 1v-2h2-1v-1h1v-1h2v2h2v-2l1-1v-1h1v-2h2v1h2v1h1v1h1v1-1 1h1v-3h-1v-4h-1v-1h-1v-2h1v-2h1v-1h1v1h1l1 1h1v-2h-1v-1h-1 1v-1h2v-2h2v1h1v-4h4-1v-2h1v-1h1v1h1v-1h1v-1h1v-1h1l1-1h6v2h5l-3-21-1-5-1-6-1-9-1-9L9 72m12 372zm5 5zm-4-4zm-1-1v-1 1zm1 1zm1 1zm3 3zm-1 0v-1zm-6-6zm3 1zm0 1zm3 2v-1 1zm-2-1zm2 2zm-1-1v-1h1-1 1-1 1v1-1 1h-1zm-2-2zm3 3zm-3-3zm3 3zm-11-9zm-4-4H9v-1 1h1zm4 4zm-7-6zm0 1zm7 5zm0 0v-1zm-7-6zm13 10v-1 1h1-1Zm-11-8zm16 12zm15 15zm7 5zm-3-2zm1 1zm-13-8zm0-1zm-1-2zm2 2v-1h-1 1-1 1-1 1v1-1 1-1 1Zm8 5zm-7-4zm7 4Zm-5-2v-1 1zm10 6zm-17-13zm6 4v-1 1-1 1zm11 9zm-7-6zm6 6zm1 1v-1 1-1 1zm0 0zm-2-2h1v1-1h-1zm0 0zm76-9h-1 1zm1 2h-1v-1h2v1zm-2-3h-1 1zm3 6h-1v-1l1 1zm-4 41zm28-24h-1 1zm16-11h1zm1 0zm0 0zm0 0zm9-10h1v-1 1h-1zm5-4h3v1h-4v1h-2v1h-1v1h-1v-1h1v-1l1-1h1v-1h2zm12-2zm-1 1zm2-1v-1 1zm-1 0zm-9 3zm9-3h1v1-1h-1zm-1 0zm2 0zm-10 3zm9-3h1-1zm1 0zm0 1h-1 1zm-2 0v-1 1zm1 6zm0 0zm-8-5h-1 1zm9-1h-1 1zm-1 2v-1 1-1h1v1-1 1-1h-1v1zm0-2v-1 1zm0 6zm24-14h-1v-1h-1v-1h1v1h1v1zm-7 14zm6 0zm-4 0v1h-1v-2h1v-1 1-1 2zm2 0zm0 0zm8 5zm-8-5zm7 5zm-5-5zm-2 0zm-8 3v-1zm4-4h1-1zm7 0zm4 6zm-11-5h1-1zm-2-2h1-1zm6 2zm-5 2zm0 0zm7-3v1-1zm-2 1zm3-1zm-8 3zm3 1zm-1-5zm0 4v1-1 1-1zm5-2zm14-18h-1l-1-1v1-1h1l1 1zm-10-3v2-1 1h-1v-2h1zm4 2v1h-1v-1h1zm5 1h1v1h-1zm-3-1zm2 1zm-1 0h1zm-5-2zm26 10v-1 1zm7-3zm-14-2h-1 1zm10 2v1h-2 1v-1h3v-1h3v-1h1v1h-1v1h1-6zm18-6zm-1 0v1-1zm4-9zm0 0v3-1h-1v-3 1-1h-1v-1 1-1h-3v-1h-1v-2 1h2-1 1v1h2v1-1 1h1v1h1v1zm-8-8h-1 1zm8 8zm0 0zm2 5v1h1-1v-1h-1v-1h1v1zm1 2zm-7 3v-1 1zm4-7zm0 0v-2 2h1v1-1h-1zm-7-8zm8 19h1-1zm18-8zm0 0zm0-2zm0 0v1-1zm0 1zm0 0zm-6-10zm-1-1zm-1-1zm-1-3zm1 0zm0 0v1-1zM261 425zM571 233h1v-1h-1v1h-1 1zM577 259zM578 261h-1 2-1zM567 230h-1 1zM562 224h-1 1zM565 223h1v-1 1h-1zM551 240v-1h-1 1v1zM554 264h1v-1 1h-1zM574 218v-1h-1 1-1v1h1zM579 222h1v-1h-1v1zM566 221h-1v-1 1h-1 2zM582 259l-1-1v1h1z"/><path d="M578 223h2v1h1v-2h-1v1h-1v-2h-1v-1h1v-1h1v1h-1 1v1-1 1h2v-1 1-1h1v-2h-1v-2h-1v1h-1v-1 1h-2v1h-1v-1h1-1v-1 1h-1v-1 4h1v-1 1h-2v1-1h-1v-1h-1v1-1 1h-1v1h1v1h1v1-1h1-1 1v1h-1 1v-1h1v1h1v-1 1-1 1zM665 137h1-1 2v-1h-1l-1-1v2zM646 171h-1v-1h1-1 1-1v1-1 1h-1v-1 2h2-1 1v-1zM670 137h-2v1h1v-1h1zM635 182h1v-1 1h-1zM659 162v1-1zM636 168h-1 1v1-1h1-1 1-1zM669 158v-1h-1v1h1zM666 138h1-2 1-1v1h1-1 1-1 1v-1zM664 140v1h1v1-1l1 1h-1 1v-1h1-1v-1h-2zM666 133v1h1v-1h-1zM653 177h1v-1l-1 1v-1 1h-1 1-1 1zM671 135h-2 1v1h-1 1v-1h1zM669 135zM668 141h1v-1 1-1h-2v1h1-1 1zM665 145v-1h-1v-1h-4v-1 2-1 1-1 1h1v-1 1-1 1h1v1-1h2v1-1 1h1zM678 145v1-1h1-1zM700 140v-1 1zM677 137l-1-1h1-1v2h1v-1zM683 144v1h1v-1h-1v-1 1zM718 160zM683 128v1h2v-1h2v-1h-1v-1h-2v1h-3v1h1v-1l1 1zM688 143v1h1v-1h-1v1-1zM676 150h1-1v-1 1h-1 1zM681 129v-1h-1v1h-1 1v1-1 1-1h1zM674 152v-1h-1v1h1zM701 143v-1h-1v-1h-1 1l-1-1h1-1 1v-1h-1v-2h1l-1-1h-1 1v2h-1v1h1v3-1 1l-1-1v2-1h2v1h1zM699 136h1v-2h1v1-2h-1v1h-4v1h3v1zM685 154h-1v1h1v-1zM673 150v-1h-1v1h-1v1h2v-1zM704 134v-1h1-1 1v-1h-1l1-1h-3v1-1 1h2v1h-1 1v2-1zM682 142h1v-1h1v1h-1 2v1h1v-2h1-1v-2h2v-1h-2 1-2v1h-1v1h-1 1-1 1-2v3h-1 1v-1zM675 141h1v-1h-2v-2h-1v-1 3-1 1l-1-1h-1v1h-1v1h-1 1-1 1-1 1-1 1v1l1-1h4zM678 151zM675 148v1h1v-1h-1zM676 146h1v-2h-1 1-1v1h-1v2h1v-1zM676 148v-1 1zM678 143h-1v1h1v-1zM696 135zM698 130v1h1v-2 1h-1zM721 160h1v1-1h-1zM680 135v-1 1zM706 136h-1 1v1-1 1-1zM676 147z"/><path d="M684 138v-1h-1 1v-1 1h-1v-1h-1v3-1l1 1v-1 1-1 1h1v-1h-1zM681 137v-1h-2v1h1v1-1h1v1-1zM676 147zM672 143v1-1h1-1zM674 148h1-1zM702 139zM682 125v1-1h-1v2l1-1v-1zM672 153v1h1v-1h-1 1v-1h-1v1h1-1zM670 151h1-1zM680 141v-1 1-1h1v-2 1h-1v-1 1-1h-1v2-1h-1v-1h-1v1h-1 1v2h2v-1 1h1zM267 236v1-1h1-1 1-1 1-1v-1h1v-1h-1v2zM262 248zM262 244v1h1v-1h-1zM265 242v1-1 1-2 1zM265 244h-1 2v-1h-1 1v-2 1-1 1-1 1h-1 1-1v1h-1v1h1zM377 144zM268 240h-1 1-1v-1 2h1v1-1h1v-1h-1zM262 240h-1 1zM257 255v1-1zM262 241zM730 115v-1h-1l1 1zM778 87v-1 1h-1 1v1-1h1v-1h-1v1zM752 104h1v-1h1-1v-1 1h-1v1h-1 1zM7 433zM14 439zM7 433zM14 439v-1 1zM14 439zM7 434zM14 439zM25 448zM23 446zM25 447v-1 1zM22 445zM22 444zM19 443zM25 449v-1 1-1zM46 466zM36 460v-1 1zM25 448zM39 460zM22 445zM46 466zM35 457v-1 1-1 1zM29 453zM25 448zM22 445zM24 447h1v-1 1-1h-1 1-1v1zM21 444v-1 1zM22 445zM33 457v-1 1-1 1-1h-1 1v1zM31 455zM26 449zM32 457zM21 444zM32 458zM44 465zM47 467zM40 462zM26 449zM41 462zM34 458zM41 462zM23 446zM22 445zM88 516zM118 502zM122 461l-1-1v1h1zM163 467zM163 467h-1 1zM163 467zM163 467zM146 478h-1 1zM189 451h1v1-1h-1zM213 457zM205 460zM180 454zM189 451zM180 454zM208 461zM207 456zM188 451zM190 451zM190 451zM189 451h1-1zM189 451zM212 457v1-1zM210 458zM205 460zM205 460zM188 452zM220 439h-1v1h1v-1zM213 444v-1h-1v-1h-1v1h1v1h1zM190 451v-1 1zM189 454v-1h1v1-1h-1v1-1 1zM189 452v-1 1zM189 458zM204 456h1-1zM210 458zM210 458zM218 463zM189 458zM210 458zM217 463zM172 457h1v-1 1h-1zM189 458zM212 458zM213 457zM181 453h-1 1zM202 461v-1 1zM217 463z"/><path d="M177 453h-2v1h-1l-1 1v1h-1v1h1v-1h1v-1h2v-1h4v-1h-3zM190 452h-1 1zM188 452v-1 1zM190 452h-1 1zM268 430zM260 422h-1 1zM283 415zM268 430zM264 439v1-1zM268 430zM265 439zM260 393h-1 1-1 1zM259 393zM259 393h-1 1zM268 430v-1h-1v-1h-1v-1h-2v-1h-2v-1 2h1v1h3v1-1 1h1v1-1 3h1v1-3zM259 395zM261 395h-1 1zM258 393v-1 1zM271 437zM264 440v-1 1zM270 435v-1h-1v1h1v1h1-1v-1zM261 395zM278 415h-1 1zM261 390h1v-1h-1v1zM261 396zM261 394v-1 1zM259 394zM261 395zM260 395zM260 395zM259 394zM268 433zM261 389zM259 394h-1 1zM261 396v-1 1zM268 433h1v1-1h-1v-2 2zM285 410h-1 1-1 1zM290 410v-1h-1 1v1zM335 430zM332 428v-1 1zM335 430v-1h-1 1v1zM335 430zM332 427zM334 429v-1h-1v1h1zM358 400zM351 373zM351 373zM359 403zM380 439h-1v-1 1h-1 2zM367 352h-1v1h1v-1zM352 388zM359 403zM339 433zM357 424v-1h-2v-1 1l-1-1v1h1v2h2v-1zM359 382v-1h1-1v1zM357 398h1-1 1-1zM339 433zM354 390zM358 399zM353 369v-2h-1v2l-1 1v1-1l1 1h1v-2h-1 1zM359 390v-1 1zM350 385v-1 1h-1 1zM351 373zM357 399zM352 372v-1h-1v1h-1v1h1v-1h1zM359 404zM351 373zM343 434h-1 1zM351 389v-1 1zM357 399zM353 391v1h1v-1h-1v-1h-1l1 1zM359 404zM363 418zM358 399zM358 399zM357 443zM351 373zM358 399zM358 399zM358 398zM349 378v-1 4-3zM349 384h1-1zM358 399zM351 373zM358 399zM358 399v-1 1-1 1zM357 399zM357 402v-1 1zM368 423zM358 399zM358 399zM342 434h1-1zM357 398zM353 388zM350 377zM358 399zM358 399h-1 1zM350 388h1l-1-1v-1 2zM360 381h1-1zM359 382zM351 374h-1 1zM357 399z"/><path d="M357 419v1h-1v3h3v-3h1-1v-2l-1 1h-1zM358 399h-1 1-1 1zM359 405zM355 368h-1 1zM357 399zM343 435v-1 1zM359 383v-1 1zM358 399zM357 399zM352 371h-1 1v1-1zM341 434h-1 1zM358 399zM358 399zM359 444h1v1-2h-3 1v1h1v1-1zM358 399zM359 404zM358 399h-1 1-1 1zM343 435h1-1zM352 372zM357 399v-1 1zM342 435zM358 399v-1 1-1 1-1 1zM358 399h-1 1-1 1zM351 373zM362 422zM357 399zM360 381h-1 1v-1h-1 1-1v1h1zM359 404zM359 404zM359 404zM354 371zM344 435zM358 399zM352 372zM371 437zM349 383v-2 2zM359 404zM353 389v-1 1zM349 385v-2 3h1l-1-1zM357 399zM352 372zM352 371zM394 281zM394 281zM395 302zM388 301h-1 1zM412 305zM421 313v-1 1zM414 347zM411 306v-1 1-1 1-1 1-1 1zM412 351zM422 313v1h1v1-1h-1v-3h1v-1h-2v2h1v1zM414 347h1-1zM410 305zM411 305h-1 1zM421 310zM421 313v-1 1zM404 285v-2h-1v2h2-1z"/><path d="M402 284v3h1v-1h1v-1h-1v1-2 1-1h-1zM411 351h1-1zM421 310h-1 1zM417 398zM417 398v-1 1-1 1zM420 392zM417 394zM424 465zM428 455zM415 517h1-1v-1h1-1v1-1 1zM415 488zM413 490h1-1zM416 512h-1 1-1 1zM415 517zM416 517zM417 483zM415 517v-1 1zM416 516zM416 516zM411 494zM414 517zM415 516v1-1h-1v1h1-1v-1h1zM414 516v-1 1zM417 483zM416 516zM416 516zM411 497zM413 492v-1 1zM434 491zM416 516zM447 434v-1 1-1 1zM443 435v-1 1zM447 433zM447 434zM447 434zM451 429zM469 450zM470 438v-1 1zM471 456zM471 456zM471 457zM472 453h-1 1zM466 435zM485 481zM489 480zM489 481zM491 481h-1 1zM493 482h-1 1zM490 481h-1v-1 1h1zM488 480zM492 482v-1h-1v1h1zM492 482v-1 1zM489 480zM489 480zM489 480zM471 471zM487 482zM485 481zM485 481zM490 480zM486 481v1h1v-1h-2 1zM487 482h-1 1zM487 481z"/><path d="M487 481h-1 1v1h1l-1-1zM488 480zM491 481h-1 1zM490 481zM488 482zM456 291zM443 301v-1 1zM438 300zM442 301h1v-1l-1 1zM457 292h-1v-1 1h1zM457 290zM457 292zM443 305v-1 1zM443 301h-1 1zM443 303zM442 300zM453 317v-1 1zM443 303zM443 295h1v1h1-1v-1h-1zM443 303zM443 300zM444 303v-1 1zM442 299zM456 291h1-1 1-1 1v-1 1h-1zM442 302h1-1zM455 363zM442 303h1-1zM443 301zM479 371zM483 321h1-1zM484 368zM474 360zM484 323h-1 1zM483 318zM482 362zM467 364h-1 1zM468 327zM478 323zM464 291zM474 361v-1 1zM489 307zM476 328h1-1zM483 318zM473 328zM480 323zM484 368zM464 291zM480 323zM464 291h-1v-1 1h1zM467 329zM487 306zM467 327zM484 368h-1 1zM484 368zM480 323v-1 1zM484 369v-1 1zM485 369v-1l-1-1v1-1 2h1zM469 325h1-1zM508 290zM508 279zM508 278v-1h-1v1h1zM510 282v-1 1zM511 320v-1h-1v1h1v1h1v-1h-1zM511 334h-1 1zM505 277zM504 280h1-1v-1 1zM510 334zM508 289zM508 276zM511 335v-1 1-1 1-1 1zM508 283zM511 334zM510 281v1-1zM508 283h-1 1zM509 275zM511 334zM510 275zM507 282h-1 1zM506 291zM507 276v-1 1-1 1zM506 281h-1 1zM507 279zM508 275zM510 282v-1 1zM506 277h-1 1zM507 276zM508 279zM508 278zM507 278zM493 288zM508 277h-1 1zM506 279zM508 283zM510 281zM507 282zM508 275zM505 278v1-1zM509 275v1-1zM528 324zM519 323h1-1zM515 326zM514 326h1-1zM520 323zM515 324zM516 322h-1 1zM528 325v-1h1-1v1zM514 325v-1h-1 1v1zM514 327zM514 325zM562 245zM558 239v-1 1zM580 243zM585 243zM566 244h1v-1h-1v1zM597 185h-1 1zM595 209zM596 207zM565 246zM568 265zM561 252h1v-1h-1v1zM575 203v-1h1-1v1zM565 246zM566 244zM577 225h1v1-1h1v-1h-2v-1h-2v1h1-1v1h1v2h1l1-1h-1v-1zM596 208zM557 238h1v-2h-1l1 1h-1v-1 1h-3v1h-1v1h-1 1v1h2v1h2l-1-1v-1h-2v-1h3zM564 224zM572 203h1-1 1-1zM551 241zM574 203zM581 246zM594 209v-1 1zM566 235h1v-1h-1v-1 2zM591 188zM558 244h1-1zM573 203h1-1zM560 236zM568 239zM558 246v-1 1-1 1h1v-1 1-1h-1v1-1 1-1 1-1 1zM596 207zM565 246zM565 253zM571 203zM594 208zM580 212zM561 240zM571 203zM574 203zM560 245v1-1h-1v1h1v-1 1h1v-1h-1 1-1 1-1zM582 241zM582 263h-1 1zM564 252zM579 258h-1 1zM550 232v-2 1zM595 209zM569 220zM564 234zM568 265zM585 242zM588 219h1-1zM570 239v-1 1-1 1zM562 250h1-1zM562 245zM580 243zM563 241h3v-1h-5v1h1v-1 1h1zM595 207zM585 243zM574 219v-1h-1 1v1zM560 222h1v-1 1h-1zM572 219zM572 232zM561 250h1-1zM558 236h1v-1h-1v1zM561 239zM561 252zM592 188v-1 1h1v-2 1h-2v1h1zM585 243h1v-1h-1v1zM589 215v-1 1zM582 261zM559 235zM588 219zM559 235zM579 217zM577 223z"/><path d="M558 233v1h-1v1h-1v1h1v-1h1-1 1v-1h2v-1 1h-1v-1h-1zM596 207zM566 236v-1h-1v-1h-4v2h-1 1v1h-1 1-1 1v1h1v1h2v-2h1v-1h1zM567 237h-1v1h1v1h1v-1h2v-2h-1 1-1 1-1 1v-1 1h1v2h1v-2h1v-1h-2v-1h-1v-1h-1v1-1 1-1h-1v1-1 1-1 1-1 1h-1v3zM559 244zM593 204h1-1zM585 241v1-1zM595 207zM560 237zM574 254zM562 252zM560 237zM535 255h1v-1h1l1 1h1v1h2v-1 1h-1v-2h2v-1l1 1v1h-1v-1 1h1v-1l-1-1h-1v-1h-3v1h-2v1l-1 1zM44 465zM46 467zM46 467v-1 1-1 1zM45 466zM45 466zM244 448v-1 1zM25 447zM9 435zM527 96v1h2v1h3l-1-1v-1h-1v-1h-2 1-2v1zM745 91h2v-1 1h-2zM741 88h1v-1h1-2v1zM756 96h1-1v1-1zM745 87zM744 91v-1h1v-1h-1v1h-1 1v1zM266 390zM226 319zM546 258h3v1h3-1v-1h1-1v-1h1-3v1h-1v-1h-2v1zM697 132v-1 1zM355 421v1-1zM206 458zM732 112v-1h1-1v1h-1 1zM733 126zM733 111v-1 1zM731 113h1-1v-1 1zM212 458zM210 458zM521 178h1v1-1h-1zM226 440l-1-1h-1v1-1l1 1h1zM120 456h-1 1zM119 455h-1 1zM121 458h1v-1h-2v1h1zM269 444h1-1zM216 437h-1v2h1v-1 1-2zM408 295h1-1zM608 107h-1v2h-1v5h1v1-2h1v1h1-1 2v-1h1v-2h1v-1h-1v-2 1-1h-1v1-1h1v1h1v-2h-4zM636 88v3h2v-1h1-1v-1h-1v-1h-1zM614 116v1-1 1h2v1-1 1-1h1-1 1v1h-1 1v-2h-3v-1 1zM612 123h1-1zM613 123v1-1 1-1zM532 175h-1 1zM279 417zM278 420zM279 420v1-1zM279 420zM279 423zM280 424zM281 425zM279 417zM279 417zM287 435zM287 435zM287 434v1-1zM287 434zM287 436zM287 436zM488 482v-1h-1l1 1zM487 482v-1h-1 1v1zM527 171zM526 170v1-1 1-1zM237 443h-1 1zM225 440v1h1v-1h-1zM507 279zM507 278zM507 278zM508 279zM508 278zM508 279zM210 458zM262 392zM262 392zM262 392zM262 392zM262 392zM262 392zM259 394zM259 394zM257 392zM261 394zM262 391zM261 393zM261 393zM262 392zM262 392zM262 392zM259 391zM259 391zM259 391zM259 391zM259 391zM259 391zM266 390zM261 390zM261 389zM262 391zM20 443h1-1v-1 1zM418 480zM418 480zM418 480zM688 130h1-1zM580 262h1v1-1h-1zM472 453zM88 516zM88 516z"/></g><g fill="none"><path d="M510 290zM510 290zM508 290v-1 1zM508 289zM508 289zM508 289zM530 255h1v1-1 1-1 1-1h1v1h1v-2h1-1v-1h-1v-1M526 202v4h1-1v-4zM525 211v1h1v1h1l-1-1v-3M278 415v1h1v-1h-1 1M574 259h-1v2h1-1v1h3-1v-2h-1v-1zM577 259h1-1zM576 259h1-1zM577 262h-1 1zM576 263zM601 198h2v-1h1l1 1h-2v1h-1v-1 1h-1v1h2v1-1h-1v1h-1v-1 1h-2v3h1v1h-1v-2h-1v1h-1v1M615 191h-1l1 1v1-1h1v1h1v1l-1-1h-3v1h-2 1v1h-1 1v1h-1v1-1 1h-1v-1h1-1 1-1M608 194zM609 194h1-1zM566 222zM556 251v-1 1zM558 256zM557 256h1-1v1-1zM556 256zM554 256zM575 219h-1 1zM572 220zM578 220zM579 220zM574 224zM573 224zM574 224zM574 223zM578 257zM580 256v1-1h-1v2h2v-1h-1v-1zM579 257zM579 256h-1v1h1v1-2zM578 256v1-1zM579 256z"/><path d="M610 196v1l-1-1v1l-1-1h1v-1h-2 1-1v-2 1-1h1v1-1 1h1v-1h-2v1h-1v1-1 2h-2v1h-2v1-1 1-1 1h-1M623 188v1h-2v1M617 190zM618 190h-1v-1h1-1v1h-1v1-1 1h-1v-1 1M621 190h-1v-1 1h-1v-1h-1v1M626 188v-1h-1 1-1 1-1 1v-1h-1v1M623 188zM625 187h-2v1M625 187zM626 189v-1M661 174h1v-2 1M672 157h-1v1h-1v1h-1v-1 1M650 170h1-1v-1h-1 1v-2M648 175h-1v1h1M637 168zM654 178h-1v1h-2"/><path d="M662 173v1h-1v1-1 1M635 183v-1 1zM648 179h-1 1-1 1zM631 168h1-1zM665 139v-1 1zM644 181h-1v1M665 141zM643 182h-1v1h-1v-1h-1M659 167h1v1h1-2M657 176v-1 1-1 1h1v-1h1v-1M654 176h1M646 180zM629 184zM667 166v1h-2 1v-1h-1v-2h-1M668 143v-1 1h-1 1zM639 167zM650 173v-1h1v1-1 1-1 1-1h1M645 173zM658 163h1v-1l-1 1zM649 167zM634 188v-1h-2v-1 1h-1M670 151zM659 174h2M669 159v-1 1zM649 170v1h-1v1h-1 1v3M664 140h1-1zM646 179h1v-1h-1v1zM645 173zM665 138zM656 168h-1v1h1-1v1h-1v-3h-1v1-1M661 174zM649 167zM650 174h-1M639 167zM629 185zM666 161v1-1h3v1h1v-1 1M638 184v-1h-2v1M639 175h1v-1h-1v1zM670 162h1-1v-1h1v-1h-1v-1h2v-1h-1 1-1M634 188h1-1M665 145zM671 151v1-1zM661 165h-4v1h2v1M649 169zM664 141zM667 163h-1v1h3v1h1-2"/><path d="M648 178v-1h-1v1-1h-1v1h-1v1h1v-1h2v1-1h1-1v-1 1zM635 168h-1 1zM649 177zM640 174zM633 176zM647 180h-1v1-1 1h-2M640 182v1h-1v1h-1M634 184v1-1 4M640 174zM634 187zM646 172zM672 165h-1v-1h-1 1v-1h-1 1-4M628 187h-1v2h-1M639 175zM640 174zM658 176h-1v1h-2v1h-1M659 168h-2 1v-1h-1v1h-1M653 166h-1v-1h-1 1-1v1h1v1-1h1M652 179zM652 173zM657 176zM649 174h1M634 188v-1 1zM648 176v-1h1-1 2v1M662 164h-1 1-1 1-1 1zM648 169zM640 174zM647 177zM657 176zM664 164v1h-1v1h-1v-2h-1v1M651 179h-1v1h-3M653 167h1v-1h1-1v-1h-1v1M668 165h-1v1h1v1h-1v-1M659 162zM655 176v-3M636 183zM652 172v-1h1v1h-1v1h1v2h1v1M649 174zM659 162zM636 181zM649 174h-1 1v-1 1-1h1v1-1M638 183h-1 1-1 1zM649 178v-1 1zM647 180v-1h-1v1h1zM644 173zM650 167h-1v1h-1 1v2M671 164zM661 141v-1l-1 1h1zM648 177h1v-1h-1v1zM639 182zM639 168v-1 1zM661 175h-2v2-1h-1M647 179zM631 187v1h-1M633 187zM632 168zM635 184v-1h1-2v1M651 179h-1 1-1 1zM669 159h1-1 1-1v1h1-1v1-1h-3v1h-1 1M662 173zM652 174zM634 183zM665 162v-1 1-1 1zM671 158zM648 179zM655 173h1v3h1M629 186h-1v1M646 172zM632 168zM641 168zM662 174h-1 1zM652 168v-1 2h-1v1h-1M653 174zM692 153h1v-1h-1zM681 126v-1h1v-1h1v-1h1v-1h1v1h-1 1-1 1M682 146zM701 169zM673 160zM682 139v-1 1zM703 127zM692 162v-1h1v-1h2M682 139zM695 167v1h-2v1h-1v1h-1v1h1v1-1h1M696 171h-1v1h-1v2h-1v1h-1M688 154zM686 144zM705 126v1-1zM677 123h2v1h1-1v-1 1-1h-1 2M712 160v1h-1v1h-1v1h-3M690 173v-1h1-1v-1 1h-1M683 124zM683 165zM674 163h1-1 1-1v-1h-1 1v-1h-1v-1 2h-1v1h2zM685 144zM718 154v1-1h2v1h1v3h3v1M675 124h1v-1h1-1v1M726 166h-1 1zM682 139zM685 171zM698 171h-1 1-1 1zM682 172v-1h1v-2h1v-1h1-1M672 164zM676 158zM721 162zM679 135zM719 163v-1h2v-1 1-1h-1M685 173h-1v-1 1h-1v1h-1M684 168h-1 1-1v-1h1v-1M682 140zM702 172h-1l1-1h-3M724 164v-1 1zM688 154h-1v1-1 1-1 1h2v1h1v-1 1h1-1v1l1-1v1-1 1-2h1-1v-1h-2v1-1h-1zM689 150zM726 165zM677 123"/><path d="M692 161h-1v-1h1-1 1v-1h1v-1h-1 1v-1h1v1h1v-1M706 168v-1 1h-2v-1h1M692 175v1-1h-1M676 158zM676 158zM693 156h-1 1-1v2M706 167zM689 114h-1v-1h-1v1h-1M685 145v-1 1-1h1v-1h-1v1-1 1h-1 1v1zM676 156z"/><path d="M691 159v3h-1 1v1-1h1M679 137zM697 153zM686 154zM687 138h-1 1zM701 171v-1 1zM695 130zM696 154zM688 163v-1h-1v-1h-1v-1h-1 3v1-1h-1v-1h1-1v-1h1v-1 1-2h-2v2h-1 1-1 1v1h-1v1h-1 1-1v-2h1v-1h-3v1-3h-1v1h-1v1h-1v2h-1v1-2h-1 1v-1 1-1h-3l1 1h-1 1v1h-1v1h2-1v1h1v-1 1h1v1-1 1-1h1v1-1h1v1h-1 1l-1 1v-1 1h2-1v1h1v-1h3v1-1h2v1h1v2-1h1-1v-1h1v-1 1-1zM700 131h1v-2h-1v2-1 1z"/><path d="M685 166v-1h-1 1-1v1-1h-2v-1M679 135zM722 165h1v-1h1-1 1v-1h-1M724 165zM697 172h-1v-1h1v-1 1-1h2M685 145z"/><path d="M699 171h-1v3h-2v-1h1v-1M689 139v-1 1zM697 153zM689 163v1h1v-3h-1 1-1v-1h2-1v-1h1-1 1-1 1v-1 1-1h-1M678 159zM701 171zM701 171zM723 160zM673 138v-1 1zM676 124v-1h-1 1v-1M682 146zM703 170h1v2h-1v-1 1h-1 1-1M682 146zM677 163h-1v1h-1v2-1 1-1h-2v1h-1v-1M721 165h-2v-2h1-1M679 137zM724 149h-4v-1h-2v-1h-3v1M686 144zM679 135h1-1zM676 158zM682 146zM723 167v-1 1zM683 164v1-1zM725 149v1h1-1v-1h-1M688 155zM670 151zM726 167v1-1l-1-1v-1h-1v1h1v1h1zM711 128zM682 164h-3v-1h-2M682 140zM684 166h1v1l1-1h-1M688 170v1h-2M677 122zM692 129v-1 1h-1 1v1-1 1-1zM685 144zM695 155h-1v1-1h-1v-1h1-2 1v1h1-1v1M698 151h1v-1 1-1 1h-1zM691 154zM715 148v1h1v1h1v3l1 1M721 162zM685 144zM689 167h-1 1-1 1zM682 174v1h-1v2h-1v1h-1M682 125v-1zM675 136zM705 167h-2 1v-1h-1v1h-1v1h-1v1h-1M721 162zM672 138zM699 170v-1h-1v1h-2v1M698 166h-2v1h-1M672 138zM707 166h2-1v1M680 131zM676 156zM700 169h2-1 2v1M708 167h-2 1v1h-1M686 154h-1 1zM719 161zM677 161zM675 136zM683 164z"/><path d="M690 158h-1v-1 1-1h-1v1h1v5M686 154zM701 131v1h1v-1h-1zM707 163v1h-2v1M683 124zM687 155zM690 150v-1 1h-1 1zM700 132zM728 149h-3M679 178h1v-1h-1v-1h-1 1-1 1v-1h1M688 155zM693 171h1v-1h2v-1h1v-2h1v-1M686 154h-1 1zM723 163v1h-2v1M676 157v-1 1zM679 176zM679 137h1-1zM689 172h-1v-1 1-1 1-1h1v-1h-1M698 170v1-1zM721 164zM676 122v1h-1v1M697 171zM671 158h1-1 2v-1h-1 1-2M680 119h-1v1h-2v1h-1v1M686 114v2h-2v1h-1v1h-2v1h-1M673 161zM686 171h1v1h-1 1v1h-2 1-1M670 151zM697 153zM680 123h1v-1h2v1-1 1h-1v1h-1v-1 2h-1v1h-1 2M691 154h1-1zM680 137zM722 159zM682 125zM672 164h-1 1zM688 170zM695 157h1-1 1v-1h-1v-1M685 123h1v-1h1v-2h1v-2h1v-4M673 151zM698 130zM705 165h1v1-1h1v1M691 154zM720 161h-2v-1h-2v1h-1 1-2v-1h1v-2h-1v1h-1v1h-1M695 130zM695 160v-1h-1v-1h-1v2h-1v1M683 165zM684 165zM693 129h-1v1h1v-1zM680 175v-2h1v-1h1M682 125zM683 124h1v-1h-1v1zM691 175h-1v1h-2 1v-2h1v-1M724 167h-1v-1h-1v-1M724 166zM724 159v3h1v1h1v1h-1 1v2h1v2h-1M575 226zM245 387zM209 365v1h-1 1v1h1v1-1h1v1h-4v1h1v1M247 385h-1 1zM205 375v2h1-1v-1h-1v-1M204 375v1-1M193 311h1v-1 1h1v-1 1M246 387h1v1-1 1-1h-1M191 332h-1 1-1 1v-1h-1 1-1 1-1v1h1v2-1 1h1-1M247 388zM243 388h2-1 1-1v-1h-1M229 306h2M192 331v-1 1h-1v-1 1M246 385zM244 384zM237 293v-3h-1v-1h-2v-1h-1M182 332h-1v3h-1v4M194 319v-1 1-1h1v1h-1 1v1M186 333v-2h-1v1M247 384zM248 382v-1h1v-1h-1v-1M199 356v-2 1h1-1 1-1v-1h1-1 1v-2h1M234 383h-1 1-1 2-1M197 313h2v1h2M248 386zM231 306h1v-1h1v-2h1-1 1v-1h-1v-1h1v-2 1-1M191 309v1h1v1h1v-1 1M247 385zM225 382h-1M229 384v2h1v-1h1v1-2h-1M193 322v1h1v1M180 339v2h-1v2h1v3M214 380v-2 1-1 1"/><path d="M208 370h-1v-1h-1v-1h-1v1h1M241 386v2h1M246 386zM191 325v1h1-1v1h1M192 306h-1v2h-1v1-1h1v1M203 368v2h1v1h1v1h1v2h-1v1M187 333v-1h-1 1v1h-1M192 327h-1v1-1h1v1M242 383h2v1h2v1h1v-1 1h-1v-1h1v1h1M187 333"/><path d="M192 328h-1v-1 1M244 386zM195 318v-1 1-1h-1l1 1h-1v-1 1-1 2M245 386h1-1v-1h-1v-1h-3v-1 1h-1v-2h1-1v1h2M213 381h2v1h-1 1M233 288h-3 1v-1h-2M196 354h1v1-1 1-1 1h1v-1h-1v-1 1h1v-1 3h1M210 364h1v1h-1v-1 1-1 1h1v1h-1v-1h-1M204 375h-1v1-1h-1v1M196 356h-1v-2 1-1 1h1v2M180 346v1h1-1 1v4M185 332h1-1"/><path d="M243 386v-1 1h1-1M230 311v-2h-1v-1h-1l-1-1h-2M211 286zM248 386zM203 377h2v1M181 351v1h1-1 2M243 383zM227 300h-1 1v-1 1-1h1v1-1h1v1h1v-1M235 383h-1 1-1 1-1v-1h-1v-1h1v1h1v-1M232 383h1-1 1-1 2M245 385zM247 386v-1 1zM217 383h-1v-1 1-1M227 384h1v1-1h-1v-1 1-1 1h1v1h1-1v-1h1M244 387v-1 1zM222 283l-1-1h-1v-1h-2v1h-1M199 298h-1v2h1v1h3M248 388zM248 386zM195 315v-1h2v-1M234 296h-3v-1 1h-2v-1 1h1v-1h3M205 369v-1 1-1 1-1M244 389v-1h-1v-1 1M233 298zM245 387zM225 384v-1h-1v-1 1-1M191 328v1h1-1 1v1-1 1M183 352v1h1v1h1v1-1 1h1v-1 1h1M238 383v-1 1h1v1h1v1h1v-1 1M245 386zM202 376h-1 1M219 379h2v1h1v1h1M193 326h-1v-1 1-1h-1"/><path d="M202 376v1h1-1 1v1h1-1 1-1v-1M196 315h1-1v2h-1 1-1v1M236 381v-1h2v1h-1v2-1M232 362v-2h-1v-3h-1v-1M243 384h1-1zM212 380h-1v-1h1v1h1v1M247 384zM201 355h-1v1-1h1v1-1 1h-1 1v3M200 315l-1-1h-2M193 322h-1v1-1h1-1M248 384zM244 386zM197 301h-1v1h-2v1h-1v1h-1v2M201 352h1-1v-1h1v1-1 1-1h1-1 1-1v1h1-1v1h-1v2M191 355v-2h-1v-1h1v-1h1v-4h-1l1-1h-1 1v-2 5h1v1h-1M202 301h-1v1h2v-1h1v1h-1v1M205 368h-1 1M203 303h-3M243 387v-1h-2v-1h-1v1h2-1 1-1M248 384zM216 380v1h1v2h1M247 386v-1 1zM244 387h1-1 1v-1h-1v1zM220 385v1h2-1 1v-1h1v1-1M245 387zM195 311v-1h1v1h1-1v1-1h-1v1-1 1-1 1-1 1h-1v1M248 386zM197 314v1-1h-1v1-1 1M200 303v-1h-3v-1M223 384v-1h-1v-1h1v1-1h1v1h1-1l1 1M192 330h-1 1v1M188 332v1-1 1M230 299h2v-1h3-1 1v-1M216 283h-1v1h-1v1h-1v1-1 1h-1v1M239 384h-1 1-1 1M248 386h-1 1zM229 287v-1 1-2h-6v-1h-1v-1M194 324h-1v1-1 1M196 357v1h1v-1h-1v-1 1h1v-1h-1v-2M205 378h1v1-1h1v1-1 1-1M191 331v-2M200 296h1-1 1v1h1v1h-2v-1 1h-1M205 288h-1 1-1v1h-1v-1h-1v1h-1v2h-1M223 381v1h1v-2 1-1h1M189 333v-1 1-1h-1M246 385h-1 1zM246 387h1-1v-1 1M244 386z"/><path d="M241 385h1-1 1v1-1M224 336v1-1 1-1zM187 355v-1h1-1 1-1 2v1M244 387zM184 330v1h-2v1M242 383zM189 351v1l1 1h-1 1M200 291v1h-1v3h1-1 1-1 1v1M225 334v-1h-1v-1h1-1v-1 1-1h1v1-2h1v-3h-1M188 333v-2 1-1 1-1 1h1v-1h-1M194 313h1v-1 2h-1v1h1M225 380v2h2v1h1v1h1v-1M190 334v-1 1-1h-1 1-1M245 387z"/><path d="M229 383h-1v-1h-1v-1h-1v-1h1v1h1v2-1 1h1v1M193 325v1M214 379h1v1-1h-1v-1h1v1M195 320h-1v-1 1-1 4-1h-2M246 389v-1h-1 1-1 1v1zM218 383h1v1-1 1h1-1 1v1M230 299zM188 331v-1 1h-1v1h-1 1v1M244 387v-1 1zM214 380h-1 1M209 380h1-1 2v1-1h1M208 378v2h1M200 291"/><path d="M229 384h-1v-1h-1v-1h-1v1h1v1M224 382l1 1h-1 1v-1M205 365v-1 1h1-1v1h2M224 325v-2h1v-4h-1 1-1 1v1h-1v-1h-1v-1h1v1-1h2v-2h-1v-1M242 386"/><path d="M207 366v-1h-1v-1h1v1h1v-1h1-1v1M242 386v-1"/><path d="M208 365h1v-1 1-2h1v1M239 384h-1v-1h-1 1M208 286h-1v1h-2v1M194 354h-1v1-1h1M191 329v3M185 332v-1 1-1 1-2h-1M191 334v-1h-1v1M230 384h-1v-2h1v1h2-1 1M204 364h1v1M194 354v1h1-1v1h1v-1 1h1M248 385v-1h-1 1-1v-1h1v1-1h-1 1v-1M245 387zM233 295h1v-1h2v-1 1-1h1M212 287h-1 1-1v1-1h-2M225 307h-1v-1 1h1v-1h1-1v-1h-1 2v1h1v1h2v-1M227 315v-2h1-1v-1h1-1v-1h3M225 315h-1v-1h-1 2v1h1-1 1v1M189 355v-2h-1v-1h1v-1M203 361v1-1 1h-1 1-1 1v2h1M207 378v-1 1M216 382h-1v-1h-1v-1 1h-1v-1h1M216 382h-1 1M224 382h-1v-1h-1v-1h-2l-1-1M201 314v1h-1M683 142h1-1zM261 239v-1 1zM297 199h1v-2M292 206h1v-1h1v-1h1-1v-1h1v-1M257 252v-1h-1 1-1 1v-1 1-1 1M271 240v-1 1zM331 180h1v-1 1h1v-1M260 242v-1h-1v-1h-2 2v1h1v-3h-1v-1h-2M377 136v-2h1v-1h-1v-1h-1v-1h-1v-2l1-1h-1l-1-1v-1h-1M268 229v1h1v1h1v1M261 241v-1h-1v1h1zM266 236v-1 1-1 1zM273 175h-1v-1h-3v2h-1v1-1h-1v1M347 137l-1-1h-1v-1h-1v1h-1v1M282 211h1M260 250h1v-1h-2 3v-1 1l-1-1v1M295 202v-1h1v-1h1v1h-1v1h1v-3M372 153h-1 1-1v-1h1v-1h2v-1h1v-1h-1M317 156h-1v1h1v1M287 159v2h1-1v2h-1v1h3M285 171h-1v-1 1h-2l-1-1h1v-2h1v-1h1v-1h1-1v-1 1-1h-3v1h-2v1M352 130v1-1 2h-1v-1M298 195v1h4v1h-1 2v-1h-1 1v-1h1v-1h1M341 145h-1v-1h-2v2h-1v1M267 238h1v-1 1h-1v-1 1zM268 238zM265 245zM262 244zM267 177v1h-1v-1h-3v2h-1v1h1v1M289 206h1v-2h1v-2h1v4M258 252h1-1zM258 251zM319 186v2h-1 1v-1h1-1 1v-1M267 234v-2h-1 2-1v-2h-1 1-1v-2M316 187h1-1 1v-2h1v-1h-1 1v2h1M261 250v-1 1-1 1zM357 125h-1v1h-1v1-1 2h1M347 134v1-1 1h1v1M276 216h1v1h1v-2 1h1v1h-1 1v-1h2v-1M256 255zM256 253h1v1h-1 1v1-2M256 234h1v1h1v1h2v1h2v2h1M299 159v-1h-2v-1h-1v1-1h-1v-1h-1v1h1-4v1h-2 1-2v1h-1"/><path d="M257 251h1v-1 1h1v1-1h1-1M339 175h1v-1h1M262 248zM353 168h2v-1h2v-1h1v-1h1v-1h1v-1h2v-1h1v-1h1M269 236v-1 1zM257 237h1-1v-1h-1v-1M308 159v-1h-1 1-1v2h-1 1M307 160h-1v1h-1v-1 2M263 239h1v1h3-1v-4h-1M305 163h-1v-1h-1v-4 1-1h-1v1h-2v-1 1h-1M261 249v-1 1-1h1v-1h-1v-2 1-3h-1v-1M261 244h1-1zM275 175v-1h-1M266 236zM266 241zM285 210v-1M281 215v-1h-1 1v-1 1-1h1-2v-1 1h2M343 172h1v-1 1h2v-1h1M259 253zM269 235v-1 1zM259 253zM258 254zM305 194h1M337 147h-1v3h-2v-2h-2v1h-1v1h1-2v2h-1 1v1h1v1h-1v-1h-2v-1h-1M282 213v-2M261 250zM259 189h-2 1v1M261 242h-1v-1 1h1zM266 239h1-1zM375 143h1v-4h1v-1h1v-1h1-1v-1h-1M311 162v-1h-2v-1h-1v-1M279 218h-2v-1h-1l-1-1M257 255zM261 241zM265 241zM286 209h1v-1h2v-1h-1M279 172h-3v1h1v1-1h-1l1 1v1M326 183h2v-1 1-1h1v-1h2v-1M320 186h2v-2h1v-1M341 174h2v-2M279 167h-1v1h-1v1h1v1h2v2h1M377 145v-1 1l-1-1v-1h-1 1-1M343 140v1h1v1M327 152v2M312 191v-1h2v-1h2v-2M265 244zM262 183h-1v1h-3v1h-1v1h-3v1h-1v1h5v-1 1-1 1h1M269 237v-1h-1v1h1zM265 236v-1h-1v-1h-2v-1h1v1h1v1h2v1-2h1M356 128h-1 1-1M364 161h1v-1h1v-1h2v-1h1v1h1v-1h-1v-2h1v-1h1-1 1v-1h1v-1M287 214zM257 253h3-2v-1h-1M290 165h-1v1h-1v1h1v1h-1l1 1M281 172h-1M374 149v-1h1-1 1v-2h1v-1h1M288 211zM267 243zM338 176h1v-1M343 137v1h-1v2h1M233 238l1 1h-2v1-1 1h-1v-1 1h-1v-1 1h-4v1h-1v-1 1h-1M242 206h-1l-1 1h-1v2h-1v2h-1l1 1M224 241v1h-1v2h3v1h1M232 256h-1v1-1 1-1 1h-1M251 268h1v-5h-1v-1h1v-1h-1v-1M248 255v-3h-1v-2h-1M253 203v-1h-5v-1h-1v-2h-1v1h-1v-1h-1M253 262zM218 260v-1h-1v1h-1v-1 1-1 1M240 275h-1 1-1v-1h2-1v-1h-1v-2h1-1v-1 1h1v1-1 1h1v1M213 284h1v-2h1v1h1v-2h3v-1 1h1M234 209h-1v1h-1v-2h1-1v1h-1v-1h-1v1h-1v2h-1v2h2M217 270h1v-1h1v1h-1v1h1M211 282h-1v1h-1v1M246 250v-1M232 287h4v1h2M237 228v1h1v1h2v-1h1v-1 1h1v1h-2v1h-1v-1h-1 1-1v1M239 264zM237 213v-1 1h-1v1h-1v-1 1-1h1-1v-3h-1 1v-1h-1M231 285v1-1M220 281h1v1h2v2h1v1h3v-1h1v1-1 1h2v1M257 190v1-1h-1v1h-1v-1 1h-3v1h-2v1h-1v3M245 276h1v-1h2v-1h1v-3h-1v-3M253 262zM241 285v1-1h1v-1h1v-2h1v-1M253 258v1-1h2v1-1h1v-2h-1v1-1h1v-2h-1v-1h1M253 264zM231 231h-1v-1h-2v1h-1v1h-1v1h1v1h-1 1v1h-1M253 262zM235 219h-1v1-1 1h1v-1 1-1h1v2h-1v-1 1h-2v1h-1v1h-2M230 257v-2h-2 1l-1-1h-1v-1h-2"/><path d="M246 249h1v1h1v1h1v2h1v3h1v1h2v1M241 273v1h1v1h2v1h1M227 252h1v1-1 1h1v1h1-1v1h1v1h2M244 281v-1h1v-2h-1v-1h-1v-1 1-1h-1v-1h-2M228 247h-1v1-2l-1 1h-3M215 283zM223 247h-1 1v-1h-2 1v1h-1 1-1v1h1v1-1h1v1M234 225h1v1h2-1v2-1h1v1M209 265v2h-2v1h-1v-1h-1v-1M230 286h1v-4h-1v-1h1v2-1 2h1v1h-1 1-1M223 249h1M249 196h1v1-1 4h3M207 271h1v2h1v1M212 273h1v-1h1v-1h1v-1h1v1h1v-1M224 253h-1v-1h-1 1-1 1-1v-1h-1v1-1 1-1 1h-1v-1 1h-1v1h-1M251 260v-1h-1v-1h-1v-2h-1v-1 1-1h-3 1v-1 1h1v-1 1h1M221 271v-1 1h-2v1h-1M216 260h-1v1-1 1h-1v-1 1h-2v1h-1v1h-1v1h-1M215 283zM227 245v-1h-1 1v1-1h-1 1-1 2v1-1h-1v1h1v2M226 235h1v1h1v1h-1 1-1 2v-1h2v1-1 1h1M239 264h-1v-1 1-1h1v1-1h1v1M238 288h1v1-3h1v-1h-1v-1h1v1h1M231 284zM215 282v1-1zM249 267v2h1-1 2v-1M237 231v-1 1-1h-1v-2 1h-2v1h-2v1-1 1h-1M215 274v1h-2v1h-1v2M212 280h1v-1h1v1h-1v1h-1v1h-1M230 213v2h-1v1h1-1v1h2v-1h3v-1 1h1v2h-1 1-1v1h1v-1 1M218 253v1h-1v1h-1v2h-1v1M242 264zM244 199h-2v1h-2v1h-1v2h1v1h1v1-1h1v1h1v-1 1M230 223v1h-1v1h1v1h3v-1h1v1-1M231 283zM267 240zM289 164h1M289 169h-1 1-1 1-1v1-1h-2v1h-1v1M280 172v1h-1v-1M277 175h-2M274 174v1h-1M263 181v1-1 2h-1M259 188v1M258 190l-1 1v-1M253 200v3M243 205v1h-1v-1 1M238 212v1h-1M238 231h-1 1-1M232 237v1h-1v1h1-1 1v-1 1h1v-1M256 235v-1M275 216h1M283 211v4h2v-5M285 209h1M288 207h1-1v-1h1M298 197h-1v-2h1M323 183h3M733 149h-2v1-1h1-1 1-1v-1h-3v1M739 146h-1v1h-2v1h-2v1h-1M795 94h-4v1h-1v-1h-1v1-1h-1l-1-1h-1v-1h-2v-1l-1 1v-1l-1-1h1v-1h-1 1v-2h-3v1h-2v1-1h-1v-1h-1 1v-1h1-1v-1h-2v1-1h-1M774 85v1h-1v1h-1v1h-1v3h-1v-1h-1v1h-2l-1-1v-1 1h-2v1l-1 1h-1v3h-1l-1 1h-1l-1 1v1h-1v1h-1v2l-1 1h-1 2v-1 1h-1v2-1 1h-2v1h1v1h-1v-1h-1M752 105h-1v2h-1v1h-1v1h-1v2h-1v1l-1 1M746 113v1h-1v1h-1v2h-1v2h-1v1h1v-1 5-1 1h-1v-1h-1v1h-1v2l-1 1v5l1 1v1h2v1h1v2h1v2h-1v-1h-2v6h-1v1h-1M17 442v-1 1-1h-1 1M15 440v-1 1-1 1-1h-1v1M8 434H7h1-1l1-1H7v1M10 436H9v-1 1-1 1-1 1M10 435H9v-1 1h1M14 438h-1M9 436v-1H8M17 441h-1v-1h-1M14 440v-2 1-1M7 434v-1H6M13 438l-1-1v1-1 1-1M33 459h-1v-1 1-1 1-1M44 465h1v1-1h-1M32 457v-1 1h-1 1-1"/><path d="M31 457h1v-2h-1M53 470h-1 1-1 1-1v-1h-1v-1h-1v-2h-1 1-1v-2 1-1h-1v-1 1-1 1-1h-1M34 458h-1v-1M24 447v-1 1h-1v-1M31 455v-1h-1 1-1v1-2h-2 1v-1h-1M23 446v1-2 1-1h-1v1M32 458v-1M26 450v-1 1-1 1h-1 1-1 1v-1h-1v-1 1-1l-1-1h1-1M28 452v-1 1-1h-1 1-1v-1h-1v-1 1M21 444h-1M33 457h-1 1v1h-1 1"/><path d="M47 463v1h1-1 1v2h1-1 1v1h-2v-1 1-1 1-1h-1v1h1v1-1 1M22 446v-1 1-1h-1v-1M35 459h-1v-1M19 443v-1h-2v-1 1-1 1"/><path d="M34 458h1v1-1 1h1v1-1 1-1h-1 1-1 1-1M63 504v-1h1M59 509v-1h1v-1h1v-1M64 502v-1M62 505v-1h1M61 506v-1h1M64 501v-1 1-1M49 519h1v-1 1-1M57 513v-1h-1 1v-1 1-1M52 517v-1h1v-1M45 520h3M31 524h1M41 522h1v-1h1M23 522h1v1-1 1h1v-1 1M22 521v1h1-1 1M57 511h1v-1M43 521h1v-1h1M53 515h2M55 515v-1h1-1 1M32 524h2M56 514v-1 1-1h1M50 518h1v-1h1M36 524v-1h2-1M34 524h1v-1 1h1M27 523h2l1 1h1M25 523h2M48 520v-1h1M58 510v-1h1M37 523h3l1-1M5 516h2v1h1M21 521h1M16 518h1v1h1M8 517h2v1h1M18 519h1v1h2v1M76 511h-1v1h-1 1-1v1M69 520v1h-1M67 523h-1M71 518h-1M73 513v1M74 513h-1M78 513v-1h-2v-1M88 515h-1v-1h-2M85 514h-2v1M100 509v3h-1v1h-1v1M98 514v1h-1v3h-1v3h1M91 518v-1h-2v-1h-1v1-2M97 521v2M96 523h-1v-1h-1v-1M100 504h-1 1v2-1 1M97 523v2M93 521h-1v-1M96 526v-3M101 506v1h1-1v1h-1v1M112 492h-1v-1h-2v-1h-1v-1h-1v-1h-1v-5h1-1v-1 1-1h1v1M91 452v1h2v1M97 475v2h-1M89 451h1v1h1M93 450v-1h-2v-1M95 455v1h1v1M89 447h-2M96 473h1M96 452v-1h-2v-1h-1M95 480v3h-1v1M93 454h1v1h1"/><path d="M107 483v-1h1v-1h1v-1M91 448h-1v-1h-1M88 449v1h1v1M96 457h1v1h1v1M94 484v2h-1v5M139 482v1h1v2h-1v1M137 492v1h1v3M139 486v1h-1v4h-1v1M125 474h1v-3M124 501h-1v1h-5v1-2h-1M131 501h-1v1-1h-1v1h-2M139 481v1M117 501h-1v-1h-1v-3h-1v-1M127 502h-1v1h-1v-1 1-1 1-1h-1M138 496v1h-1v2h-1v1h-4 1l-1 1h-1M65 524h-1M101 502v1h-1v1-1 1M98 463v3h-1v1M98 459v4M126 471h-1v-1 1-3h-1v-3h-1 1v-2h-1v-1h-1v-1 2-1 1-1h-1v-1h-1v-2h-1v-1h-1v-2h-1v-1h-1v-2 1h2v1-1h-2v-1h-2v-1h-3l-1-1H98l-1 1h-1M119 474h2v-1h2v1-1h2v1-1 1M111 478h-1v-1 1-1 1-1h-1v1-1h2v-1h1v-1h5v-1h2M109 480h1v-1h1v-1M141 479v-1h-1v1h1-1v1h-1v1M164 464v3M157 470v1h-2v1M149 472v3M150 475h-1v2h-2v1h-1v1-1h-1v1-1h-2v1-1 1M160 468h-1v1h-1v1h-1M150 473v-1h-1v-1h-1v-1h-1v1M155 472h-2v1h-1 1-1 1-3M162 468h-1v-1h2v-1h1v-1"/><path d="M147 471h1v1h1M164 467h1v1-1h-1v1-1h-1 1v-1h-1v1-1 1-1 1h-1v1M143 479h-1v1h-1 1-1v-1h1-1M188 456v-1h1v-1M190 458h-2v-1h-1 1v-1M188 450v1h-2v1h-2M195 445h-1v1h-1v1h-2v1h-1v1h-1v1h1M200 441v1h-2v1h-1v1h-1l-1 1"/><path d="M191 450v-1h1-1v1h1v1M203 440h-2v1h-1M206 458h1-1zM194 455h-1v1-1 1h-1v1h-1v1h-1M188 453v-1h-1v1h-1 1-1v-1h2-1 1v-1h1v-1h-1M200 459v-1h1v-1 1-1 1-1 1-1h1v-1 1h1M206 457h1-1zM192 451v1h1v1h1v2M184 452h-1v1h-2M204 441v-1 1-1h-1 1M253 443h1M280 407zM285 414h-1v2h-1M267 449v-2h3M265 439v-1 1-1h1-1 4-2v-1M291 412v-1h-2v-2 1h-1 1-1M296 412h-5M337 431h-2v-1h-1v-1M334 429h-2M353 367h-1 1v1-1 1h2v1-1h-1v3h-1 1-1v3h-1v1h-1v1h1v3h2v-1h2v-1h3v1M370 463v-2h-2v-1h1v-4h-1v-1h-2v-1h-1M343 436v-1h-2v-1h-1v-1 1-1h-1v-1 1h1-1 1-1 2M374 336h-1v4h-1v3h-1v2h-1v2M354 417h1l1-1h-1v-1h1v1h2v1h1v1h1v-1 1-1h1v1M365 454h-1v-1h-1 2-1v-1h-1v-1h-1 1v1-1h-1v-1h-1v-1h-1v-1M368 430v1h1v2h1v1h1v3h1v1h1v1h1v1h3v-1h2v-1 1h1-1v1h1-2v1h1v2l-1 1v3h-1v3h-1v2h-1v2h-1v2h-1v2h1v1M360 402h-1 1v1h-1v1h1-1v1h-1M361 418h2v2h1v1h2v1h1v-2M367 420h1v3h1-1v3h-1v2h1-1 1-1v-1 1h1-1 1-1v1h1v1M346 435v1h1v1h2v2h1v1-1 1-1l-1-1v-1h-1v-1h-1v-1h-1v-1h-2M350 374v-1 2l-1 1v1l1-1v-2zM357 399zM370 347v1h-1v1h-1v2h-1v2h-2v1h-1v1h-2v1M355 391z"/><path d="M344 435h1-1v-1 1zM358 405h-1v1-1 1h-2v-3h1-1v1l-1 1v3h-1v12h1v2h1-1v-1l1-1h-1M360 448h-1v-1h-1l-1-1v-1h-1v-2h1v-1h-3v-1h-3v-1h-2v-1h-1M190 450h1M390 285v-2h1-1v-1M392 282h-1 1zM390 286zM397 302h-6v1h-7M392 282h-1v1h1v-1zM378 312v1h-1v5h-1v7h-1v2"/><path d="M391 282v1-1h2v-1h1v-1h1M384 303v-1h1v-1h2v-1h-1l-1-1h-1l-1 1h-1v2l-1 1v2M405 285v1-1zM411 306v-1 1h-1v-1h2v-1h-2v-1h-2v-1h-3v1h-1v-1h-1M400 288h1-1v-1h2v-2h-1v-1 1-1h1-1v-1 1h1v-2h-1 1-1 1-1v-1h2v1M404 284v-1h-1 1v1zM429 348h-1v2l-1 1M413 362v-1h-1 1-1v-3h-1v-1h-1v-1M416 365h-1v-1h-1v-1M415 346v-6l1 1v-1h1v-3h1v-5h1v-1h1v-1h-1 1v-1h-1 1-1 1v-3h1v-2M404 285h1-1zM406 292h1-1zM418 424zM418 399v-1h-1v-1h-1v-2h1M424 476v1-2M417 404v-1h1v-3M437 382v1l1 1v4l-1 1v2h-1v1M418 424h1v-4h-1v-3M430 365v2h1v3h1v1h1v1-1 5l1 1v1h1v1h1v1l1 1v1M428 455v-1h1v-1h1v1h-1v1h1M420 381v-3h1-1 1v-3h-1v-1h-1v-2h-1v-2M419 480zM409 500v-2h1v-1h1v-1h1v-1 1-1 1-2h-1 1v-1M411 519h-2v-2h-3v-1M418 483v-4 1-1 1-1h1v1-1 1h1v-1h2v-1h-1 1-1l1-1h1-1 1v-1h1-1 1M433 490h1v3h-1v5h-1l-1 1h-1v2h-1v1h-1v1h-2v1h-1l-1 1h-1v2h-1v1M412 519zM415 512h1v-1 5-1 2h-1v1-1M439 458v1h1v1h1v1l1 1v3h1v2M431 401l1 1v2l-1 1v1h1-1M463 433h2l1 1v1M451 429h3l1 1v-1h3v1h1v1h1v1h1l1 1h1M463 438h-6M457 439h-3v1-1 1h-4v1h-1M440 446v1h-1v4h1v2h-1v2h-1v2l1 1M464 433zM470 450h-1 1v1h-1v-1 1-1h-1M481 460v1h-3M471 471zM489 480v1-1h-1l1 1v-1zM489 480z"/><path d="M487 479v-1h1v1-1 1h1v1h2v1"/><path d="M490 481h1l-1-1h-1v1h1zM488 481h-1 1v-1 1h-1 1zM476 476zM472 471h-1 1zM489 479h-1 1v1-1zM487 480h-1 1zM487 480v-1M469 474zM470 460v-2h1v-7h-1 1-1v-1M474 464v5M459 292h1v1h5v-1h-1v-1h-3v-1h-3v1h1v1zM442 304zM449 359v-1h-1v-3h2v-2h1v-2h-1v-2h1v-2h-1v-1h-1v-1h-1v-3M461 364h-2v-1h-2M438 294h-1v1h-1v3-1h1v1h-1v1-2 2h1v1h1v1-1 1-1h1v1h-1 1-1 1-1 1v1h1v1-1h1-1 1v1h-1 1v1h1M448 342v-2l1-1M453 327h1v-1 1-1 1h-1zM454 328v-1 1-1h-1v1h1zM457 363h-3v-1h-1 1-1v-1h-3v-1h-1v-1M442 334h-1v1M452 321v-2h-1v-3h1v-1 1h1v-1M453 315l-1-1v-1h-1v-1l-1-1v-1M444 308l1 1v3h1v8l1 1v1l-1 1v6h-1v2h-1v1h-1v1h-1v1M434 339h-1v1h-2v1M477 326v2h-1 1-1 1-1v1-1 1h-1v-1h-1v-1 1h-1 1v2h-1v3M468 325zM464 291zM465 293zM490 308zM465 293zM469 365zM468 326v-1 1-1 1zM468 325zM478 323v-1h1v-1h2v-1h1v-1h1v-1M467 328h1v-1h-1v1-1 1zM464 291zM465 293zM465 293zM469 325h-1 1zM471 327h1v-1h-1v1h-1 1zM483 322h-1v1-1 1-1h-2 1v1h-2v1h-1v1M467 328h1-1zM468 327v-1 1-1h1-1v1zM461 351v1h2-1 1v1h1v1h1v1M468 327v-1 1zM469 327zM467 328v-1 1zM488 290h1v-1h1v-1h1M468 327h1-1zM470 357v2h2v1h1v1h1v-1 1-1h-1 1v1h2v1-2h2M468 325zM478 368v-1h-1v-1h-3v-1h-5M468 334v-1h-1 1-3v1h-2v1h-2v1h-1v1-1 1h-1v1-1 1h-1v1h-1v1-1h1v6h1v2h1v4h1M475 313zM479 358h1v1h-1v1h-1v2h1v1-2h1M484 375v-1 1-1h-1v1h1-1v1h1-1v-1h1-1v-1h1-1v-1h-1v2h-1 1v-2l-1-1v1M467 324zM465 293zM467 327h1-1 1-1zM483 322v1h1v-1h1v-1h-1M506 278h1v-1 1-1h-2v2h2v-1h-1zM508 281h-1v-1 1h1zM504 277v1h1v-1h-1M507 282zM508 281zM497 236v-2l1-1v1-1h-2v-1h-2 1v2h-1v1-1h-1v-1 1l1 1 1 1h2zM506 282h-1 1zM508 281h-1 1zM494 232v-1 1zM508 294v1-1 1h2v1h1v2l1 1v4M507 276"/><path d="M494 231v1h-1v1-1h1v-1 1h1-1 1v-1h-1zM508 281zM494 232zM494 232zM516 322h3v1h2v-1 1-1h-1v1-1h1v1h2v1h2v1M530 272h-2l-1 1h-7v1h-2v1h-4 1-1M528 327h1v4h-1v1h1v1h1v1h1v2h1M525 325h2v1-1h-1 1v-1h1-1 2-1 1-1v1h-1 1-1 1v1h-1 1v1M522 346h-2v-1h-2v-1h-1v-2h-1 1v-1h-1v-1h-1v-1h-1v-1M514 338h-1v-1 1-1h-1v-2h-1v-1h-1v-1h1v-1 1M509 277h-1v1h1v1h-1 1v1-2 1-1h1v2h-1v1h2-1M189 454h-1 1v-1h-1M585 216v-1 1h-2v1h1v1h1-1 2-1v1h-1v2h-1v1-1 1h-1v4-1h1v1h-1v1-1 2h-1v-1M579 260h-3 1v1h3v-1h-1zM576 257h1v-1h-1v1z"/><path d="M577 261v-1h-1v1h1zM575 254h-1 1zM595 209h-1v1h-1v1h-3v-1h-4v-1h-4l-1 1h-1v3h1v-1 1-1h-1 2-1 2v1h2v1h5v1M564 228h1v-1h1v1h1M594 209v-1h2-1v-1h1-2v-1 3zM577 256zM561 244v-1h1-2 1v1z"/><path d="M597 205v1h-1v3h-1v1M573 226h2v-1h-1 1-2v-2h-1l1 1h-1 1-1v1-1h-1v-1h-2v-1 1h1v2-1 1h2v1h-1v1h-1v1-1h-2v1M559 236zM576 257zM578 259v-1h-2v1h2zM567 251zM582 239v-1h1-1v-1 1h1-1 1v1h-1v2h1v1h1v1h1v-2 1h1v1h-1 1-3v-1h-1v-1 1h-1 1-1 1v4M580 259v-1h-1v1h1zM567 251zM577 257v-1 1zM578 255v-1h1-1v-1h-1v1l1 1zM578 260h1-2v-1h-1v1h2zM580 260h-1 1zM574 255v-1 1zM560 243v-1h1v1-1 1-1h1-2v1z"/><path d="M578 260v-1h-1v1h1zM579 232h-1v-2h-2 1v-2h-1v-1h-2v1h1-1v1-2h-1v-1M580 260zM582 246h-1v-1h1-1v-2 1h-1v-1 2h-2v-1h1v-1h1v-1h1v-1M590 215h1-1v1-1h-1v1h1-1v1h-1v2h1-1v-1l-1 1v-1h-1v-1h1v-1h-1v-1 1h-1M581 259h-3 3zM578 257zM584 263h-1v1h-1v-1h-2v-1 1h-1v-1h-1v1h-6M596 208zM581 261v-1h-1 1v1zM580 256zM572 232zM557 238zM585 242h1-1v-1 1zM585 242v1-1h1-1zM225 451h-1l-1 1h-1v1l-1 1h-1v1h-1v3h-1v1h1v2h-1v1h1v1h-3v-1h-1l1-1h-1v-2h-1 1-1M374 459v-1 1h-1M260 398h-1v1-1 1h1v-1 2-1h1-1v1-1h1v1h-1 1v1h-1v-1 1M277 415h-1l1-1h-1 1v1h1M265 407v-1h-1 1v1h1v1h1v-1 1-1 1h2-1 1v1-1 1-1 1-1h1-1v1h1-1 1v-1 1h1v1h1M237 449v1h-4v-1h-1v-1h-2v1h-1v1h-1v1h-3M124 502h1l-1-1M83 515h-2M64 524v1h-1M70 518v2h-1M72 516h-1v2M94 521v-1h-1v1M73 514v1h-1v1M80 514v-1h-2M92 519v-1 1-1h-1 1-1M66 523v1h-1M12 437h-1v-1 1-1 1-1h-1M201 461l-1-1h-1M34 458v-1h-1v1h1M212 458v-1 1M214 459h-1l-1-1M212 458h-1M211 458v1h-1v1h-1v1h-1 1-3 1-1v-1 1h-1 1-1v-1h1-2v1-1h-1 1-1v1-1h-1v1h-1M248 445h-2v1h-1 2v-1M248 448v2h-1v1h-1v1h-4v-1h-2v-2h-3M251 445zM253 444v-1h-1v1h-3v1h-1M254 444v1M254 445h-1M254 443v1M247 445h5"/><path d="M252 445h1-1v-1h1M251 445h-1v1h-1v1h-1v1M253 445v-1 1M253 445h-2M217 282v1h-1M270 233v1-1zM283 221v-3h-4M270 232v1h1v1h3v-1h1v-2h-1v-1h-1v-2h-2v-1"/><path d="M272 227v1h1v-1h1v1h4v-1h1v-1h1v-1h-1v-1 1-1 1-1h-1v-2M278 222h1v1-1 1-1 1h1v-1 1-1h3-1 1v-1M271 227h1-1v-1l-1-1h1v1h1v1M525 196h1v1h1v-1l-1-1v-1h1v-1h1-3v1h-1v1h-1 1v-1h1v-1l1 1h-1M526 207v-1 2-1M192 350h1v2-1h1v1M65 496v-1 1-1 1-1 1-1h1v-1 1-1h-1v-1 1-1 1-3 1-1h-1v1-1 1-1h-1v-1h-1v-1M64 503v-1 1-1M64 500v-1h1-1 1v-1h-1 1M474 472h-1v1h1v1h-1v1h1v1h1v1h1v-1M478 478v-1h1l1 1v1-1 1h1v-1h1-1 2l1 1v-3 2h3v1h-3l1 1h1M476 476h1-1 1-1 1v-1 1M474 469v1h1-1v-1h1v1h-1v1h-1l1 1M478 461h-2v1h-1v2h-1M477 476h2M479 476v1"/><path d="M479 477h-1v1h-1 1M422 508h-4v1h-1v1h-1v1h-1v1M414 519h-2M411 519zM412 519h-1M20 444v-1h-1M211 286zM211 286zM211 286zM471 319v1h-2v1h-1v1h-1v3h2-1 3v-1 1h2v-1 1-1 1-1 1-1 1h2v-1h2v1-1M486 305h1v-1 2h2v2h1-1 5v1h2v-1h1M226 319zM299 199zM442 304v-4h-1 1v-5h1v-1h-3v-1h-2v1M368 124v-2h-2M366 122h-4v1h-2v1h-1v1h-1v1h-1v-1M373 124h-5M423 357v1h2v1h1v1h1v1h1v1h1v2h1v1M423 356v1M425 354h-1v1l-1 1M450 335v-2h1v-4h1v-2h1v-1 1-1M441 335h-1M438 336v1h-1l-1 1h-1l-1 1M428 343v1h1v2M431 341h-1v1h-1v1h-1M449 339h-1M427 351v1h-1M426 352v1h-1v1M429 346v2M448 339h1-1v-2h1v-1 1h1v-2M440 335v1h-2M554 257zM673 136zM672 136v1-1h1-1zM673 137zM97 493v1h1v1h1v2h1v1M100 498v1h1M93 491v1h1v1h3M101 499v1h1-1 1-1 1-1v2M226 316h1v-1h-1 1M218 272h-1v1h-1v1-1 1-1 1h-1M223 269h1v1h-3M225 253h-1M225 250h1v1h1-1 1-1 1-1 1v1h-1 1-1 1M239 371h-1v-2h-1v-1h-1v-2h-2v-1h-1v-3h-1M393 297h2v-1h1v-1h1M469 475v-2h1M413 350v-2h1-1 1v-1h1v-1M411 352v-1 1-1 1-1 1-1h1v-1h1M410 356v-4h1M311 415h-1l-1-1h-6l-1-1h-6v-1M332 429v-2h-1 1-1v-1h-1v-1h-1l-1-1-1-1-1-1-1-1h-1l-1-1h-1v-1h-2l-1-1h-1l-1-1h-2l-1-1h-1l-1-1h-1M283 416h-3M288 410h-1v-1h-1v1-1 1h-1v1h-1v1M283 431v2h1v1h1M284 412h1v2M285 441v2h-1v1h-1v1l-1 1h-1v1h-5v-1h-1v1h-1v3h1v2h1v3h-1 1-1v2h-2v1h-1M283 428v2h1-1 1-1 1-1 1-1v1M267 437h-2l-1 1h-2l-1 1h-1l-1 1-1 1h-1M257 441h-1v1h-2M479 482v-1h-2v-1h-1v-1h-1v1-1 1-1 1-1M450 310h-1v-2h1-1 1v1h1v-2h-1v-1h-1v-1h-1v-1M448 304h-2v-1h-1v-1 1h-1v1h-1v2l1 1v1M212 278h-1v1h1v1M546 271v1h-1v-1 1h-1M556 268h-1l-1 1h-1l-1 1h-4v1h-2M532 272h-2M173 458v-1 1-1h-1v-1 1l-1 1v1h-1v1h-1M164 465h-1v1h-1v1h-1v1h-1M169 460v1h-1v1h-1v1h-2v1h-1M181 453h-1v1h1v1h-3v1h-1 1-1l-1 1v-1 1h-2v1h-1M359 378v2h1v1h1-2v1h1-1 1v1h-1v1M359 384h-1v3M358 387v1h1v3h-1v3h-1v4h1-1 1v2-1h1v2l1 1M362 356l-1 1-1 1-1 1h-1v1h-1l-1 1h-2v3l-1 1v2M419 392h1v-6h-1v-3h1v-2M424 460h1v-1h1v-1h1v-1h1v-2M413 490h-1v-2h4l1-1M430 455v-3h-1v-2h-1v-1h-1v-1h-1v-1h-1v-1h-1M424 446l-1-1-1-1h-1v-1h-1v-1l-1-1-1-1v-4h-1v-5l1-1v-1l1-1v-1h-1v-1M433 434v1h2v-1h1v-1h6v1h1v1h1v-1h3v-2h1-1 1v-1h1v-1h2v-1M430 415v3h1v1h1v2h1v7h-1v2M443 467v2h1v1h-1v1h1-1 1-1v6l-1 1-1 1v1h-1M435 393v1l-1 1-1 1v1l-1 1v1l-1 1v1M431 406v4h-1v1h-1v3h1v1M314 159v-1h-1v1h-1v2M348 136v1h-1M308 191h1v-1h1M327 155h-1v-1h-1v1h-1v1M355 128h-3v2M351 131h-2v2h-2v1h-1 1M323 158h-1v-2h-1v-1h-3v1h-1M344 143v2h1v3h-1v-1 1-1h-1v-1h-1v-1h-1M333 179h1v1-1h1v-1h2v-2h1M308 192v-1M324 157h-1 1v1h-1 1-1M327 154v1M347 171v-1 1-1h1v1h1v-1h1v-1h3v-1 1-1M317 158h-1 1-3v1M344 142v1M324 156v1M290 164v1M266 228v-1M312 161h-1v1M305 162v1M306 194v-1h1M266 227h1v2h1M307 193v-1 1-1h1M310 190v1h1v-1h1v1M68 521h1v1-1h-1M68 521v1h-1v1h-1M272 458h-1l-1-1h-1v-1 1-1h-3v-3l1-1h-1v-2h-1v1-1h1v-1h1M114 496v-3h-1v-1h-1M202 361h1-1 1M224 249h1v1M201 359v1h1v1M206 458v-2h2v-1h-1 1v-1M206 445h1v-2h1v-1h-1v-1h-2v1h-1v-1M207 452v-1h-1 1-1v-1h-1v-2h1v-1M203 457h1v1-2 1-1h-1 1M206 447h1v-2h-1M200 459v-1 1M208 454v-1h-1 1-1v-1"/><path d="M208 458v-2 1-1 1h-1v1M530 173v-1h-2 1-1v1h1M570 241h-1 1-1v4h1v1h2M572 263h-1v1h-1v1h-4v1h-1v1h-1v2h1-1v1h-5v-1h-1v-1h-2M572 246h2v1h3v1h1v1h1v3h-1v1M571 240h1v1h1v1h1v2h-1 1-1v-1h-1v-2 1-1 1h-1v-1h-1"/><path d="M581 241h-2v1-1h-1v-1 1h-1v-1 1-1h1-1v-2h-2v1h-1v-1 1h-1 1-1v1-1h-1v1-1l-1 1M207 460v1-1 1-1zM533 340v-1 1-1h4v1h1M535 344v-1 1h-3l-1 1h-2v1h-7M538 340h1v1h1v1h1v3h-1l-1 1v-1h-2M512 312h-1 1v1-1 2h-1 1v1h-1v2h1v3h1M513 320h1v1h1l1 1M228 351v-1h-1v-2M226 346v-6h-1 1M227 348v-2h-1M270 447v-1h-1v-1h-1v-1h1v-1h-1v-1h-1 1-1v-2h-4 1-1 1v-1h1-1 1-1 1M205 439h-2v1M8 435v-1 1-1 1h1"/><path d="M9 435v-1H8h1-1M199 460v-1h1M397 295v-1h2v-1h1v1h3v-1h1v-1h4v-1h-1 1v1M408 292zM405 286zM405 286zM408 292zM405 286zM405 286zM405 286zM405 285zM398 279v1-1M403 282v-1h-1v-1h-2v-1h-2M407 292h-1 1zM391 298v-1h-1v-1h-1v-1h2v2M407 292zM405 286zM409 296zM405 286zM409 296zM389 297zM407 292zM404 286zM407 292zM404 286v-1zM407 293zM407 293zM409 298zM409 296zM405 286zM408 292zM395 280h1v1h-1v-1 1h-2v2h-2v1-1 1h-1v1M407 294zM408 292zM395 280zM407 292zM408 295zM408 294zM390 282v1h-1v1h1v1"/><path d="M395 280h-2l-1 1h-1v1M404 285v1-1 1-1zM405 285v1-1 1-1zM405 286zM391 297h2M390 286v4h-1v5h-1v1h1v1h1v1h1M398 279h-1l-1 1h-1M406 292v1h1v-1h-1zM404 286zM404 283v1h1-1 1-1v-1zM404 282v1-1zM407 292zM407 292zM404 286zM406 292zM406 287v-1h-1v1h-1v1-1 3-1h-1v-1h-3M409 296zM601 116v1h-1v2h1v3h1v1h4v-1 1h-4v-2 1h1l-1-1v-1h-1v-1h1v1h1v-2h-1v-1h-1v1-2h1v1-1h2v-1h-2v1h-1zM622 108v-1 1zM622 106v1h1v-1h-1 1-1zM623 106v1h1v1h-1v-1 1h1v-2h-1zM602 121zM602 120zM87 447v1-1 1l1 1M97 467v4M468 450h1v-1h-1v-1h-1v-1h-1v-1h-1v-1h-1v-3h1v-1h-1v-3h-1M62 479v-1h-1v-1 1-2 1-1 1-1 1-1M45 467v-1 1-1h-1 1-1 1-1 1-1v-1h-1v-1h-1v-1h-1v-1 1-1h-1 1-1v1-1 1M40 463v-2h-1v-1h-1v-1 1h1v-1 1h-1v-1 1-1h-1v-1 1-1h-1v-1h-1v-1 1h-1 1v1-1 1-1h-1v1-1 1M281 409v-1h1-1v-2 1h-1v-1h-1v-1h-1v-1l-1-1v-1l-1-1v1h-1v-1h-1 1-1v-2h-1v-1h-1M282 414v-1h-1 1v-2 1-1h1-1v-2h-1M279 421v1M279 422h1v1M280 424h1-1 1v1M280 423v1M281 425v1h1v1h1v1M278 419h1v2M279 418v1h-1M278 418h1M280 416h-1v1M279 417h-1 1v1h-1M285 432h1v2h1v2M285 434v-2M287 440h-1v1h-1M491 481h2l-1 1v-1 1-1 1h1-1 1v1h-1v-1h-1v-1M491 481v1h-1v-1h-1M432 430v3l1 1M449 441h-1v1h-2v1h-2l-1 1h-1v1h-2v1M486 480h1M487 481zM475 479v-1h-2v-1h-1v-1h-2v-1h-1M489 481h-1v-1 2M488 482h-1v1-1h-1M525 195v1M526 209v1h-1M521 199h-1v5h1v3h1v1h1v1h1v1h1v1M526 207v1M524 198v2M528 201v1M525 202v-1h1v1-1h2M522 198v-1M528 202v1-1M522 197v-1h1v-1 1h-1v1h-1v1M525 194v1M521 198v1M526 208v1-1h1v-2h-1v1"/><path d="M520 201h1v-1 1h1-1v2h1v1-2 1h1-1 1v-1h1v6h1v1-4h1v-1h-1v-1h1-1v-1M525 196v1-1h-2 1v2h1-1"/><path d="M525 210v1-1h-1v-1l-1-1-1-1-1-1v-2l-1-1v-2M528 202v-4h-1v-1 1-1h-1v-1h-1M524 200v-1h-2v1-1h1-1v-1h-1M521 198h1M11 518h1-1 4M15 518h1M373 459v1h-1v1-1 1h-1v1h-1v1M9 517zM209 264v1M211 274h1M212 274h-1v-1h1M206 270h1v1M205 266v3h1v1M209 274h1v-1 1h1M215 258h2v1h1v1M219 271v-1h3v-1h1M215 382v1h2M190 353v1h1v1-1 1M218 438zM224 440zM223 440h1-1zM222 439zM508 279zM508 279v-1 1zM508 278zM508 278zM418 424zM418 424zM418 424zM418 424zM418 424zM212 458zM65 498v-2M414 363l-1-1M265 390h-1v1h-1v-1 1h-1v1h1-1v1h-1v1h-1v-1 1-1h-1v1h1M258 396v1h1v1-1 1-1 1h1M263 398l1 1h-1v-1M260 401h1v1h-1 1-1v1h1v1h1v2h2v1h1v2h1v1-1h1v1-2h-2v-1M272 398h-1v-2h-1v-2h-1v-1h-1v-1h-1v-1h-1v-2h-1v1-1 1-1 1M263 398h-1M261 393zM419 308l-1-1h-1l-1-1h-1l-1-1M421 312v-1h-1v-2h1v1-1 1-1h-1v-1h-1M381 305v1h-1v2h-1v1h-1v3M355 391zM355 391zM375 327v3h-1v1M374 331v5M418 400v-1M417 395v-1h1v-2h1M418 408v-2l-1-1v-1M418 417v-2l1-1v-6h-1M421 317h-1v-5h1M421 320v-1h-1 1-1v-1h1-1 1v-1M522 173h1-1 1v1h1-1 1v-1h1-2v-1h-1v2"/><path d="M522 174h-1 1v1h1v1h3v1h3v-1h-4v-1h-1v-1 1-1 1h-2v-2M436 392v1h-1M417 365h-1M54 472h1-1 1-1v-1h-1 1-1 1-1 1-1v-1 1-1M235 297h1v-1h-2M234 299h-1v1h-3v1-1 1-1h-3M259 251h1v-1h-1 1M578 253h2v1h-1v1h3M582 255v1M481 339v1h-1v1h-2v1h-1 1-1M243 387v-1 1h1-1M243 386h2M373 126h-1v-1h1v-1M209 284h2v1h2v-1M209 287v-1 1h-1v-1M242 388h1-1 1v1h1M262 398h-1v-1h-1v-1h-1v1-1h-1M276 416v-2 1h1M57 474h-1 1v1h-1v1M56 476v-1h-1v-1h-1v-1h-1v-1 1h1v-1h-1 1-1 1v1-1 1-1M63 489v-4h-1 1-1v-1h-1v-1h1v-1h-1v-1 1-1 1-1M62 489h1M61 476h-2v-1M59 475h-1 1-1v-1 1-1 1-1 1-1h-1M414 305h-1v-1h-1v1h1-1v1h-1M47 468v-1h-2M97 473v2M97 471v1h-1v1M539 273v-1 1-1 1-1h-1v1-1 1-1 1h-1v-1h-5M544 272h-3M541 272h-2v1M204 440h2v-1 1h2v-1h3l1-1h3v-1h-5v1h-4v1h-1M418 370v-1h1v-2h-1v-1h-1v-1M230 356v-1h-1 1v-1h-1v-2h-1v-1M231 285h1v1h-1 1-1 1v1M215 379v1h2M217 380h-1M225 327h1v-1h-1v-1h-1M139 481v1-1M636 184h-1M223 338v-1h1v1h1-1v-4h1M194 352v1-1 1h-1 1-1 1v1M237 382v1h1v1h1M242 385v1M651 175h-1 1-1v-1h-1M650 176v-1h1M223 385v-1 1-1M630 188h-1v-2M511 333v2h1v-1h-1v-2h-2v-1h-2v-1h-2v-1h-2v-1h-2v-1l-1-1v-1h-1v-1h-1v-1h-1M653 166v1h-1v1M354 420h1v-1h-1 1-1v-1h-1 1v-1M470 473h1v-2h1-1v-1h-1v-2h1v-2h-1v-1h1v-3M414 490h-1M412 493h2-1v-2 1h1v1-3M568 231h1v1h-2v1h1v-1 1h1l-1-1h2-1 1v-1 1h4v1l1 1v-1 1h1v1h1v-1h2v1-1 1-1 1h-2v1h-1v1l1-1v1h1v2h1v1h3v-1M235 381h-1 1-2v-1 1-1 1-1h1v1h2M569 221v1-1 1-1M569 221h-1v3h-1v1h1v-1h2-1v-1 1-1h-1 1v-1h-1 1v-1M676 122v1h1v-1h-1 1v1M246 264v1h2v2h1M242 264h4M242 264h-2v1h-1v-1M240 264h1M241 264h1"/><path d="M244 265h-2v-1 1-1 1h-1v-1h1M246 265v1h-1v-1 1-1 1h-1v-1 1-1M247 267h-1 1-1v-2M248 268h-1v-1M510 281v1h-1v1h-1 1v1h-2 1-1 1-1v2h-1M564 225v-1 1h-1v1h-1v-1 1h-2M484 370h1v-1h-1v-1 1-1h-1 1v-1 1-1h1v2h1v1h-1v2h-1v2M586 242zM582 241h-1 1zM192 322h1-1M207 458v1h1v-1M348 439v-1h-1v-1 1l-1-1h-1v-1h-2 1-1M424 475v-2h1v-3M512 303v1h-1 1-1v1h1-1 1v1h-1v2h-1v4h2M205 368v1h-1l-1-1M206 369h-1M205 369v-1 1-1 1-1 1M486 321h-1v1h1v-1"/><path d="M486 321v1h-1M425 469v-1h-1v-2h-1v-2h1M424 464v-4M483 364v2h-1 1-1v1l1 1h-1 1v1h1v1M477 342h-2v-1h-2v-2h-1v-1h-1v-1h-1v-1M453 326h1v-1h-1v-2h-1v-2M344 434h-1 1v1-1 1h2-1 1M726 168l-1-1M725 167h-1v-1 1M467 365v-1h-6M469 365h-2M582 256h-1l-1 1h1v1h1v2h1v1h1-1v-1 3h1M539 173h-1 1-1v-1h-2M538 174h1v-1M533 173h1-1 3v-1 1h-1 1-1v1M535 174h3M530 173h-1 4M532 171h-1v2h-1M536 172h-2v-1h-2M281 409h1-1 1-1 1-1 1-1M279 415h1v-1 1-1h1-1 1-1v-1h1v1M272 410v1h1v1-1 1h-1v-1 1h-1v1h1v1h-1 1-1 2v1h2v1h1M260 394v1h1v1-1 1h1v1h1v1M406 287v-2h-1v1-1h1v1h-1 1v1zM408 292v-3h-1v-2h-1M281 414h1M282 414zM282 414zM282 414h-1 1M248 379h-1v-1h-2v-1h-1v-1h-2v-2h-1 1-1v-1h-1v-1h-1v-1M226 340v-1h-1v-1h-2M481 373v1-1 1h-1 1-1 1v-1h-1v-1h-1v-1h-1 1-1 1-1v-1h1-1v-2M481 459v1M479 453v1h-1v-1 1h1v3h1v2h1M477 452h2v1M466 435v1h1v1h3v1-1 1h1v1h1v1h4v5h1v3h-1v2h1v2M471 462h1v-1h-1v-1h-1M421 324v-3h-1v-1h1-1 1M465 355h1v1h3v1h1M478 360v-1h1v-1M581 227h-1v-1h-1v1h1-1v1-1 1h-1v1h1v1-1h2v1h-1v2h1v1h-1v-1h-1M480 361v1h2-1v-1 1h2v2M204 456h1v1h1v1-1 1M595 210v-1M510 288h-1 1-1v1h1v1-1 1h1-1M510 288h-1M341 433v1h1v-1 1h2-1l-1-1h-2v-1h-3v-1M529 173v1h-1 1-1 1v-1h1M514 275h-1v1h-1v-1 1h1-1 1-2v-1h-1 1-1v1-1 1h-2M739 145v1M506 286h1v1h2v1h1M506 292h2-1 2v2h-1M506 291h1v1h-1M510 290h-1v1-1h-1v1h-1v-1h-1v1M470 336h-1v-1h-1v-1h-1 1M473 333h2v-1h2v-1h2v1h1l1 1v1h1v5h-1M537 345h-1v-1h-1M497 308v-3h-1 1v-2h-1l1-1h-1 1-1 1-1v-1h1v-1h-1v-1l-1-1v-1h-1v-2h-1v-1l-1 1M491 288h-2v1l-1 1M508 276v1h1M532 336v4h1M497 323v-1h-6M485 322v1h-1 1v1h-1v-1h-1v-1M484 321h-1v1M478 325l-1 1M477 324h1v-1M483 318h1-1v-3h-1v-1h-3v-1h-4M485 321h-1M491 322h-3v-1h-2M486 321h-1M475 313h-1v1h-1v1h-1v2h-1v2M492 295v1h-1v2h-1v1h-1v1h-1v2h-1v1l-1 1v1M532 252h-1v1-1h-1v2-1 2M560 226v1h2v-1h1v1h1-1v1h1M567 228v-1h-1 1-1 1-1 1-1v-3h-1v1h-1M568 228v1-1 1h1-1v1h-1v1h1M96 478v2h-1M96 477v1M287 436v4M81 515h-1M80 515v-1M399 302v1M400 302h-1M403 302h-1M402 302h-1M401 302h-1M399 303h-2v-1M390 285v1M484 374v1M418 425v-1M418 426v-1M417 483h1M416 485v-1l1-1M417 486v-1h-1M417 487h-1 1-1l1-1M425 470v-1M415 517v1h-1M415 518h-1v1M692 158v1h-1M440 480v1h-1v1h-1v1h-1v1h-1v1h-1v2h-1v2h-1v1M486 482v-1h-1v1-1 1-1 1h1-3v-1h-3v1h-1M254 442v1h-1M61 481h1v-2M577 261h-1 1zM567 251h-1v-1h-3v-1 1h1v1h1v1h-1v1h1v-1 1-1 1-1h2v-1M567 251"/></g></g></svg>