<svg width="32" height="32" viewBox="0 0 32 32" fill="none" xmlns="http://www.w3.org/2000/svg">
<mask id="mask0_130_199" style="mask-type:luminance" maskUnits="userSpaceOnUse" x="6" y="0" width="23" height="9">
<path d="M6.53354 3.18874C11.465 0.800475 14.8855 2.44736 17.0065 4.5343C17.2794 4.80125 17.5387 5.08176 17.7833 5.37477C18.5927 6.34184 19.2593 7.41991 19.7625 8.57606C20.5579 8.72573 21.368 8.78184 22.1764 8.74324C22.2272 8.74019 22.2699 8.74019 22.3193 8.73663C22.3686 8.73307 22.4052 8.72698 22.4504 8.72393C24.6472 8.52705 26.7001 7.54783 28.235 5.96472C28.3031 5.89714 28.3707 5.82498 28.4383 5.75435C28.1333 5.39052 27.8191 5.03177 27.478 4.68725C24.7482 1.96573 21.1301 0.316595 17.2844 0.0410939C13.4387 -0.234407 9.62215 0.882119 6.53201 3.18671" fill="white"/>
</mask>
<g mask="url(#mask0_130_199)">
<path d="M9.59022 -7.58453L3.49045 7.55554L25.3829 16.3669L31.4827 1.22684L9.59022 -7.58453Z" fill="white"/>
</g>
<mask id="mask1_130_199" style="mask-type:luminance" maskUnits="userSpaceOnUse" x="0" y="10" width="10" height="21">
<path d="M0.542086 11.6889C-0.451174 15.4124 -0.0710421 19.3688 1.61304 22.8353C3.29713 26.3018 6.17275 29.047 9.71458 30.5695C5.17714 27.4932 4.89701 23.7095 5.64333 20.8294C5.74196 20.4478 5.85737 20.0824 5.98294 19.7369C6.41647 18.5526 7.01758 17.4366 7.76792 16.4228C7.49984 15.6596 7.14305 14.9305 6.70487 14.2505C6.67843 14.2093 6.65403 14.1702 6.6281 14.129C6.60217 14.0879 6.57726 14.0589 6.55133 14.0223C5.28214 12.2193 3.40723 10.932 1.26808 10.3947C1.17555 10.3698 1.07946 10.348 0.984388 10.3251C0.821193 10.7707 0.66766 11.222 0.541069 11.6884" fill="white"/>
</mask>
<g mask="url(#mask1_130_199)">
<path d="M9.49292 8.76269L-4.35065 10.7238L-1.3149 32.1318L12.5287 30.1707L9.49292 8.76269Z" fill="white"/>
</g>
<mask id="mask2_130_199" style="mask-type:luminance" maskUnits="userSpaceOnUse" x="18" y="14" width="14" height="18">
<path d="M25.483 22.5378C25.1032 22.6435 24.7291 22.7258 24.3676 22.7918C23.1253 23.0084 21.8584 23.0462 20.6055 22.9041C20.0783 23.5176 19.6249 24.1907 19.2547 24.9098C19.2333 24.9535 19.2104 24.9926 19.188 25.0373C19.1657 25.082 19.153 25.1166 19.1337 25.1567C18.2058 27.1567 18.0279 29.4234 18.6324 31.5436C18.6573 31.6355 18.6868 31.7306 18.7142 31.8241C19.1814 31.7422 19.6492 31.6487 20.1164 31.5253C23.8392 30.5237 27.0772 28.2168 29.2388 25.026C31.4003 21.8352 32.3412 17.9737 31.8893 14.1468C31.4933 19.6124 28.3565 21.7466 25.4835 22.5413" fill="white"/>
</mask>
<g mask="url(#mask2_130_199)">
<path d="M27.1472 6.90909L9.31848 20.864L23.5725 39.0566L41.4012 25.1017L27.1472 6.90909Z" fill="white"/>
</g>
<mask id="mask3_130_199" style="mask-type:luminance" maskUnits="userSpaceOnUse" x="1" y="1" width="17" height="16">
<path d="M6.53353 3.18874C4.18204 4.82931 2.34356 7.10203 1.23096 9.74377C2.88587 10.0952 4.41841 10.8777 5.67327 12.0119C6.92813 13.1461 7.8607 14.5917 8.37647 16.2022C8.81878 15.9202 10.1777 14.8475 11.0908 11.8907C12.195 8.31691 14.2912 5.68016 17.0085 4.53278C16.3345 3.69446 15.4781 3.02076 14.5045 2.5629C13.5309 2.10504 12.4656 1.87506 11.3897 1.89044C9.69132 1.93243 8.02707 2.37632 6.53353 3.18569" fill="white"/>
</mask>
<g mask="url(#mask3_130_199)">
<path d="M5.93414 -5.31932L-5.31799 11.938L12.3054 23.4173L23.5575 6.15994L5.93414 -5.31932Z" fill="white"/>
</g>
<mask id="mask4_130_199" style="mask-type:luminance" maskUnits="userSpaceOnUse" x="5" y="20" width="16" height="12">
<path d="M9.71458 30.5694C12.3091 31.7829 15.1942 32.2381 18.0365 31.8825C17.7191 30.9266 17.5613 29.9251 17.5693 28.918C17.567 26.523 18.4648 24.2145 20.0849 22.4499L20.1077 22.4148C19.7788 22.0642 18.6283 21.1993 15.6699 21.8731C12.0222 22.7049 7.99722 22.6089 5.64334 20.8299C5.64334 20.8299 3.11509 26.2609 9.71458 30.5694Z" fill="white"/>
</mask>
<g mask="url(#mask4_130_199)">
<path d="M19.9337 19.1442L1.93585 20.9702L3.2822 34.2271L21.28 32.4011L19.9337 19.1442Z" fill="white"/>
</g>
<mask id="mask5_130_199" style="mask-type:luminance" maskUnits="userSpaceOnUse" x="19" y="6" width="13" height="17">
<path d="M21.758 9.49326C21.0493 9.49186 20.3427 9.41779 19.6492 9.27221L19.6131 9.26459C19.4773 9.76257 19.3655 11.1722 21.3742 13.3368C23.9161 16.0808 25.848 19.6119 25.4825 22.5388C25.4825 22.5388 31.4536 22.0108 31.8883 14.1443C31.6426 11.2892 30.5931 8.56203 28.8613 6.27824C27.9733 7.2868 26.8808 8.09512 25.6564 8.64957C24.432 9.20403 23.1037 9.49196 21.7595 9.49427" fill="white"/>
</mask>
<g mask="url(#mask5_130_199)">
<path d="M31.4137 3.89127L16.2646 6.89102L19.8388 24.9231L34.9879 21.9233L31.4137 3.89127Z" fill="white"/>
</g>
</svg>
