<svg width="176" height="63" viewBox="0 0 176 63" fill="none" xmlns="http://www.w3.org/2000/svg">
<path d="M73.3163 5.1573H72.6623V57.9183H73.3163V5.1573Z" fill="#404041"/>
<mask id="mask0_130_202" style="mask-type:luminance" maskUnits="userSpaceOnUse" x="25" y="24" width="14" height="15">
<path d="M26.8503 27.0993C25.8394 28.2188 25.2438 29.6516 25.163 31.1578C25.0822 32.6639 25.5212 34.1522 26.4065 35.3734C27.2917 36.5946 28.5696 37.4748 30.0262 37.8665C31.4828 38.2582 33.0298 38.1377 34.4082 37.5253C35.7866 36.9128 36.9128 35.8455 37.5984 34.5019C38.284 33.1584 38.4873 31.6201 38.1743 30.1446C37.8613 28.6691 37.0511 27.3458 35.8791 26.3962C34.7072 25.4467 33.2446 24.9285 31.7363 24.9283C30.8158 24.9311 29.9059 25.1256 29.0647 25.4994C28.2235 25.8731 27.4693 26.418 26.8503 27.0993Z" fill="white"/>
</mask>
<g mask="url(#mask0_130_202)">
<path d="M39.0753 24.9213H24.4043V38.8963H39.0753V24.9213Z" fill="url(#paint0_radial_130_202)"/>
</g>
<mask id="mask1_130_202" style="mask-type:luminance" maskUnits="userSpaceOnUse" x="12" y="0" width="44" height="18">
<path d="M12.8513 6.2753C22.5513 1.5753 29.2793 4.8163 33.4513 8.9233C33.988 9.44864 34.498 10.0007 34.9793 10.5773C36.5713 12.4805 37.8823 14.602 38.8723 16.8773C40.4367 17.1718 42.0302 17.2823 43.6203 17.2063C43.7203 17.2003 43.8043 17.2003 43.9013 17.1933C43.9983 17.1863 44.0703 17.1743 44.1593 17.1683C48.4803 16.7809 52.5182 14.8538 55.5373 11.7383C55.6713 11.6053 55.8043 11.4633 55.9373 11.3243C55.3373 10.6083 54.7193 9.9023 54.0483 9.2243C48.679 3.86848 41.5622 0.623045 33.9978 0.080871C26.4334 -0.461303 18.9265 1.73597 12.8483 6.2713" fill="white"/>
</mask>
<g mask="url(#mask1_130_202)">
<path d="M18.8637 -14.926L6.8656 14.869L49.9273 32.2094L61.9254 2.41439L18.8637 -14.926Z" fill="url(#paint1_linear_130_202)"/>
</g>
<mask id="mask2_130_202" style="mask-type:luminance" maskUnits="userSpaceOnUse" x="0" y="20" width="20" height="41">
<path d="M1.06627 23.0033C-0.887445 30.3309 -0.139738 38.1169 3.1728 44.9388C6.48534 51.7607 12.1416 57.1632 19.1083 60.1593C10.1833 54.1053 9.63226 46.6593 11.1003 40.9913C11.2943 40.2403 11.5213 39.5213 11.7683 38.8413C12.621 36.5107 13.8034 34.3144 15.2793 32.3193C14.7519 30.8174 14.0501 29.3826 13.1883 28.0443C13.1363 27.9633 13.0883 27.8863 13.0373 27.8053C12.9863 27.7243 12.9373 27.6673 12.8863 27.5953C10.3898 24.0471 6.70191 21.5136 2.49427 20.4563C2.31227 20.4073 2.12326 20.3643 1.93626 20.3193C1.61526 21.1963 1.31327 22.0843 1.06427 23.0023" fill="white"/>
</mask>
<g mask="url(#mask2_130_202)">
<path d="M18.6723 17.2446L-8.55756 21.1039L-2.58634 63.2339L24.6435 59.3745L18.6723 17.2446Z" fill="url(#paint2_linear_130_202)"/>
</g>
<mask id="mask3_130_202" style="mask-type:luminance" maskUnits="userSpaceOnUse" x="35" y="27" width="28" height="36">
<path d="M50.1243 44.3533C49.3773 44.5613 48.6413 44.7233 47.9303 44.8533C45.4868 45.2795 42.9948 45.3539 40.5303 45.0743C39.4933 46.2815 38.6016 47.6063 37.8733 49.0213C37.8313 49.1073 37.7863 49.1843 37.7423 49.2723C37.6983 49.3603 37.6733 49.4283 37.6353 49.5073C35.8103 53.4432 35.4604 57.9039 36.6493 62.0763C36.6983 62.2573 36.7563 62.4443 36.8103 62.6283C37.7293 62.4673 38.6493 62.2833 39.5683 62.0403C46.8909 60.0692 53.26 55.5293 57.5117 49.25C61.7634 42.9708 63.614 35.3713 62.7253 27.8403C61.9463 38.5963 55.7763 42.7963 50.1253 44.3603" fill="white"/>
</mask>
<g mask="url(#mask3_130_202)">
<path d="M53.3976 13.5968L18.3291 41.0594L46.3664 76.8616L81.4348 49.399L53.3976 13.5968Z" fill="url(#paint3_linear_130_202)"/>
</g>
<mask id="mask4_130_202" style="mask-type:luminance" maskUnits="userSpaceOnUse" x="2" y="3" width="32" height="29">
<path d="M12.8513 6.2753C8.22596 9.50385 4.60972 13.9765 2.42126 19.1753C5.67642 19.867 8.69089 21.4069 11.1592 23.6389C13.6274 25.871 15.4618 28.7159 16.4763 31.8853C17.3463 31.3303 20.0193 29.2193 21.8153 23.4003C23.9873 16.3673 28.1103 11.1783 33.4553 8.9203C32.1295 7.27053 30.445 5.94472 28.5299 5.04367C26.6148 4.14261 24.5195 3.69002 22.4033 3.7203C19.0625 3.80293 15.789 4.67649 12.8513 6.2693" fill="white"/>
</mask>
<g mask="url(#mask4_130_202)">
<path d="M11.6723 -10.4682L-10.4603 23.4935L24.2043 46.0842L46.3369 12.1225L11.6723 -10.4682Z" fill="url(#paint4_linear_130_202)"/>
</g>
<mask id="mask5_130_202" style="mask-type:luminance" maskUnits="userSpaceOnUse" x="10" y="40" width="30" height="23">
<path d="M19.1083 60.1593C24.2117 62.5473 29.8864 63.4431 35.4773 62.7433C34.853 60.8622 34.5425 58.8912 34.5583 56.9093C34.5537 52.1961 36.3196 47.6531 39.5063 44.1803L39.5513 44.1113C38.9043 43.4213 36.6413 41.7193 30.8223 43.0453C23.6473 44.6823 15.7303 44.4933 11.1003 40.9923C11.1003 40.9923 6.12727 51.6803 19.1083 60.1593Z" fill="white"/>
</mask>
<g mask="url(#mask5_130_202)">
<path d="M39.2088 37.675L3.80772 41.2685L6.45594 67.3574L41.857 63.7639L39.2088 37.675Z" fill="url(#paint5_linear_130_202)"/>
</g>
<mask id="mask6_130_202" style="mask-type:luminance" maskUnits="userSpaceOnUse" x="38" y="12" width="25" height="33">
<path d="M42.7973 18.6823C41.4034 18.6796 40.0134 18.5338 38.6493 18.2473L38.5783 18.2323C38.3113 19.2123 38.0913 21.9863 42.0423 26.2463C47.0423 31.6463 50.8423 38.5953 50.1233 44.3553C50.1233 44.3553 61.8683 43.3163 62.7233 27.8353C62.2399 22.2167 60.1756 16.8497 56.7693 12.3553C55.0225 14.3401 52.8737 15.9308 50.4654 17.022C48.057 18.1131 45.4442 18.6798 42.8003 18.6843" fill="white"/>
</mask>
<g mask="url(#mask6_130_202)">
<path d="M61.7898 7.65782L31.992 13.5612L39.0223 49.0475L68.8201 43.1441L61.7898 7.65782Z" fill="url(#paint6_linear_130_202)"/>
</g>
<path d="M82.5303 38.3733H85.1703C85.6763 38.3733 86.1163 38.432 86.4903 38.5493C86.8643 38.6666 87.1723 38.8316 87.4143 39.0443C87.6636 39.2496 87.8469 39.499 87.9643 39.7923C88.0816 40.0783 88.1403 40.3936 88.1403 40.7383C88.1403 41.083 88.0816 41.402 87.9643 41.6953C87.8469 41.9813 87.6636 42.2306 87.4143 42.4433C87.1723 42.6486 86.8643 42.81 86.4903 42.9273C86.1163 43.0446 85.6763 43.1033 85.1703 43.1033H83.5643V46.0733H82.5303V38.3733ZM85.1153 42.2013C85.4819 42.2013 85.7899 42.1683 86.0393 42.1023C86.2959 42.029 86.5013 41.93 86.6553 41.8053C86.8166 41.6806 86.9303 41.5266 86.9963 41.3433C87.0696 41.16 87.1063 40.9583 87.1063 40.7383C87.1063 40.5183 87.0696 40.3166 86.9963 40.1333C86.9303 39.95 86.8166 39.796 86.6553 39.6713C86.5013 39.5466 86.2959 39.4513 86.0393 39.3853C85.7899 39.312 85.4819 39.2753 85.1153 39.2753H83.5643V42.2013H85.1153Z" fill="#005FA2"/>
<path d="M93.4783 46.1833C93.0383 46.1833 92.6129 46.11 92.2023 45.9633C91.7916 45.8093 91.4286 45.5746 91.1133 45.2593C90.7979 44.944 90.5449 44.5406 90.3543 44.0493C90.1636 43.558 90.0683 42.9676 90.0683 42.2783V42.0583C90.0683 41.3983 90.1636 40.83 90.3543 40.3533C90.5449 39.8766 90.7979 39.4843 91.1133 39.1763C91.4286 38.861 91.7916 38.63 92.2023 38.4833C92.6129 38.3366 93.0383 38.2633 93.4783 38.2633C93.9183 38.2633 94.3436 38.3366 94.7543 38.4833C95.1649 38.63 95.5279 38.861 95.8433 39.1763C96.1586 39.4843 96.4116 39.8766 96.6023 40.3533C96.7929 40.83 96.8883 41.3983 96.8883 42.0583V42.2783C96.8883 42.9676 96.7929 43.558 96.6023 44.0493C96.4116 44.5406 96.1586 44.944 95.8433 45.2593C95.5279 45.5746 95.1649 45.8093 94.7543 45.9633C94.3436 46.11 93.9183 46.1833 93.4783 46.1833ZM93.4783 45.2593C93.7789 45.2593 94.0686 45.2043 94.3473 45.0943C94.6259 44.9843 94.8716 44.812 95.0843 44.5773C95.2969 44.3353 95.4656 44.0273 95.5903 43.6533C95.7223 43.272 95.7883 42.8136 95.7883 42.2783V42.0583C95.7883 41.5523 95.7223 41.1196 95.5903 40.7603C95.4656 40.3936 95.2969 40.0966 95.0843 39.8693C94.8716 39.6346 94.6259 39.4623 94.3473 39.3523C94.0686 39.2423 93.7789 39.1873 93.4783 39.1873C93.1776 39.1873 92.8879 39.2423 92.6093 39.3523C92.3306 39.4623 92.0849 39.6346 91.8723 39.8693C91.6596 40.0966 91.4873 40.3936 91.3553 40.7603C91.2306 41.1196 91.1683 41.5523 91.1683 42.0583V42.2783C91.1683 42.8136 91.2306 43.272 91.3553 43.6533C91.4873 44.0273 91.6596 44.3353 91.8723 44.5773C92.0849 44.812 92.3306 44.9843 92.6093 45.0943C92.8879 45.2043 93.1776 45.2593 93.4783 45.2593Z" fill="#005FA2"/>
<path d="M102.226 46.1833C101.793 46.1833 101.383 46.11 100.994 45.9633C100.605 45.8093 100.261 45.5746 99.9599 45.2593C99.6592 44.9366 99.4209 44.5296 99.2449 44.0383C99.0689 43.547 98.9809 42.9603 98.9809 42.2783V42.0583C98.9809 41.3983 99.0689 40.83 99.2449 40.3533C99.4209 39.8766 99.6592 39.4843 99.9599 39.1763C100.261 38.8683 100.605 38.641 100.994 38.4943C101.383 38.3403 101.793 38.2633 102.226 38.2633C102.644 38.2633 103.025 38.3183 103.37 38.4283C103.722 38.5383 104.03 38.696 104.294 38.9013C104.558 39.1066 104.771 39.3596 104.932 39.6603C105.101 39.961 105.207 40.302 105.251 40.6833H104.151C104.048 40.1846 103.832 39.8106 103.502 39.5613C103.172 39.312 102.747 39.1873 102.226 39.1873C101.955 39.1873 101.691 39.2386 101.434 39.3413C101.177 39.444 100.946 39.609 100.741 39.8363C100.543 40.0563 100.382 40.3496 100.257 40.7163C100.14 41.083 100.081 41.5303 100.081 42.0583V42.2783C100.081 42.8356 100.147 43.305 100.279 43.6863C100.411 44.0603 100.58 44.3646 100.785 44.5993C100.99 44.834 101.221 45.0026 101.478 45.1053C101.735 45.208 101.984 45.2593 102.226 45.2593C102.798 45.2593 103.245 45.12 103.568 44.8413C103.891 44.5626 104.085 44.2033 104.151 43.7633H105.251C105.192 44.1886 105.075 44.5553 104.899 44.8633C104.723 45.164 104.499 45.4133 104.228 45.6113C103.964 45.8093 103.66 45.956 103.315 46.0513C102.978 46.1393 102.615 46.1833 102.226 46.1833Z" fill="#005FA2"/>
<path d="M111.644 44.1593H108.388L107.651 46.0733H106.573L109.521 38.3733H110.555L113.503 46.0733H112.381L111.644 44.1593ZM108.729 43.2573H111.303L110.016 39.6933L108.729 43.2573Z" fill="#005FA2"/>
<path d="M116.504 39.2753H113.831V38.3733H120.211V39.2753H117.538V46.0733H116.504V39.2753Z" fill="#005FA2"/>
<path d="M125.057 46.1833C124.617 46.1833 124.192 46.11 123.781 45.9633C123.371 45.8093 123.008 45.5746 122.692 45.2593C122.377 44.944 122.124 44.5406 121.933 44.0493C121.743 43.558 121.647 42.9676 121.647 42.2783V42.0583C121.647 41.3983 121.743 40.83 121.933 40.3533C122.124 39.8766 122.377 39.4843 122.692 39.1763C123.008 38.861 123.371 38.63 123.781 38.4833C124.192 38.3366 124.617 38.2633 125.057 38.2633C125.497 38.2633 125.923 38.3366 126.333 38.4833C126.744 38.63 127.107 38.861 127.422 39.1763C127.738 39.4843 127.991 39.8766 128.181 40.3533C128.372 40.83 128.467 41.3983 128.467 42.0583V42.2783C128.467 42.9676 128.372 43.558 128.181 44.0493C127.991 44.5406 127.738 44.944 127.422 45.2593C127.107 45.5746 126.744 45.8093 126.333 45.9633C125.923 46.11 125.497 46.1833 125.057 46.1833ZM125.057 45.2593C125.358 45.2593 125.648 45.2043 125.926 45.0943C126.205 44.9843 126.451 44.812 126.663 44.5773C126.876 44.3353 127.045 44.0273 127.169 43.6533C127.301 43.272 127.367 42.8136 127.367 42.2783V42.0583C127.367 41.5523 127.301 41.1196 127.169 40.7603C127.045 40.3936 126.876 40.0966 126.663 39.8693C126.451 39.6346 126.205 39.4623 125.926 39.3523C125.648 39.2423 125.358 39.1873 125.057 39.1873C124.757 39.1873 124.467 39.2423 124.188 39.3523C123.91 39.4623 123.664 39.6346 123.451 39.8693C123.239 40.0966 123.066 40.3936 122.934 40.7603C122.81 41.1196 122.747 41.5523 122.747 42.0583V42.2783C122.747 42.8136 122.81 43.272 122.934 43.6533C123.066 44.0273 123.239 44.3353 123.451 44.5773C123.664 44.812 123.91 44.9843 124.188 45.0943C124.467 45.2043 124.757 45.2593 125.057 45.2593Z" fill="#005FA2"/>
<path d="M131 38.3733H132.078L134.652 43.2683L137.226 38.3733H138.26V46.0733H137.226V40.2433L135.015 44.4233H134.245L132.034 40.2433V46.0733H131V38.3733Z" fill="#005FA2"/>
<path d="M144.347 45.6003C143.782 45.6003 143.276 45.5196 142.829 45.3583C142.381 45.197 142.004 44.9696 141.696 44.6763C141.388 44.3756 141.149 44.02 140.981 43.6093C140.819 43.1913 140.739 42.7293 140.739 42.2233V42.0033C140.739 41.556 140.819 41.138 140.981 40.7493C141.149 40.3606 141.388 40.027 141.696 39.7483C142.004 39.4696 142.381 39.2496 142.829 39.0883C143.276 38.927 143.782 38.8463 144.347 38.8463V38.0433H145.381V38.8463C145.945 38.8463 146.451 38.927 146.899 39.0883C147.346 39.2496 147.724 39.4696 148.032 39.7483C148.34 40.027 148.574 40.3606 148.736 40.7493C148.904 41.138 148.989 41.556 148.989 42.0033V42.2233C148.989 42.7293 148.904 43.1913 148.736 43.6093C148.574 44.02 148.34 44.3756 148.032 44.6763C147.724 44.9696 147.346 45.197 146.899 45.3583C146.451 45.5196 145.945 45.6003 145.381 45.6003V46.4033H144.347V45.6003ZM147.889 42.0033C147.889 41.688 147.834 41.3946 147.724 41.1233C147.614 40.852 147.452 40.6173 147.24 40.4193C147.027 40.214 146.763 40.0563 146.448 39.9463C146.14 39.829 145.784 39.7703 145.381 39.7703V44.6763C145.784 44.6763 146.14 44.6176 146.448 44.5003C146.763 44.383 147.027 44.218 147.24 44.0053C147.452 43.7926 147.614 43.536 147.724 43.2353C147.834 42.9346 147.889 42.5973 147.889 42.2233V42.0033ZM141.839 42.2233C141.839 42.5973 141.894 42.9346 142.004 43.2353C142.114 43.536 142.275 43.7926 142.488 44.0053C142.7 44.218 142.961 44.383 143.269 44.5003C143.584 44.6176 143.943 44.6763 144.347 44.6763V39.7703C143.943 39.7703 143.584 39.829 143.269 39.9463C142.961 40.0563 142.7 40.214 142.488 40.4193C142.275 40.6173 142.114 40.852 142.004 41.1233C141.894 41.3946 141.839 41.688 141.839 42.0033V42.2233Z" fill="#005FA2"/>
<path d="M150.973 46.1833C150.863 46.1833 150.753 46.1723 150.643 46.1503V45.1383C150.679 45.1456 150.734 45.1493 150.808 45.1493C150.954 45.1493 151.083 45.1273 151.193 45.0833C151.31 45.032 151.409 44.944 151.49 44.8193C151.578 44.6873 151.651 44.504 151.71 44.2693C151.776 44.0346 151.827 43.734 151.864 43.3673C151.9 42.9933 151.926 42.5423 151.941 42.0143C151.955 41.4863 151.963 40.8593 151.963 40.1333V38.3733H157.133V46.0733H156.099V39.2753H152.997V40.3533C152.997 41.1673 152.978 41.8786 152.942 42.4873C152.905 43.0886 152.85 43.6056 152.777 44.0383C152.703 44.471 152.612 44.8266 152.502 45.1053C152.392 45.384 152.26 45.604 152.106 45.7653C151.959 45.9193 151.79 46.0256 151.6 46.0843C151.409 46.1503 151.2 46.1833 150.973 46.1833Z" fill="#005FA2"/>
<path d="M163.071 46.1833C162.631 46.1833 162.206 46.11 161.795 45.9633C161.384 45.8093 161.021 45.5746 160.706 45.2593C160.391 44.944 160.138 44.5406 159.947 44.0493C159.756 43.558 159.661 42.9676 159.661 42.2783V42.0583C159.661 41.3983 159.756 40.83 159.947 40.3533C160.138 39.8766 160.391 39.4843 160.706 39.1763C161.021 38.861 161.384 38.63 161.795 38.4833C162.206 38.3366 162.631 38.2633 163.071 38.2633C163.511 38.2633 163.936 38.3366 164.347 38.4833C164.758 38.63 165.121 38.861 165.436 39.1763C165.751 39.4843 166.004 39.8766 166.195 40.3533C166.386 40.83 166.481 41.3983 166.481 42.0583V42.2783C166.481 42.9676 166.386 43.558 166.195 44.0493C166.004 44.5406 165.751 44.944 165.436 45.2593C165.121 45.5746 164.758 45.8093 164.347 45.9633C163.936 46.11 163.511 46.1833 163.071 46.1833ZM163.071 45.2593C163.372 45.2593 163.661 45.2043 163.94 45.0943C164.219 44.9843 164.464 44.812 164.677 44.5773C164.89 44.3353 165.058 44.0273 165.183 43.6533C165.315 43.272 165.381 42.8136 165.381 42.2783V42.0583C165.381 41.5523 165.315 41.1196 165.183 40.7603C165.058 40.3936 164.89 40.0966 164.677 39.8693C164.464 39.6346 164.219 39.4623 163.94 39.3523C163.661 39.2423 163.372 39.1873 163.071 39.1873C162.77 39.1873 162.481 39.2423 162.202 39.3523C161.923 39.4623 161.678 39.6346 161.465 39.8693C161.252 40.0966 161.08 40.3936 160.948 40.7603C160.823 41.1196 160.761 41.5523 160.761 42.0583V42.2783C160.761 42.8136 160.823 43.272 160.948 43.6533C161.08 44.0273 161.252 44.3353 161.465 44.5773C161.678 44.812 161.923 44.9843 162.202 45.0943C162.481 45.2043 162.77 45.2593 163.071 45.2593Z" fill="#005FA2"/>
<path d="M170.592 39.2753H167.919V38.3733H174.299V39.2753H171.626V46.0733H170.592V39.2753Z" fill="#005FA2"/>
<path d="M82.8303 18.2733H89.1303V19.4213H84.1463V22.4593H88.7103V23.6073H84.1463V26.9253H89.1303V28.0733H82.8303V18.2733Z" fill="#404041"/>
<path d="M92.3552 18.2733H100.055V28.0733H98.7392V19.4213H93.6712V28.0733H92.3552V18.2733Z" fill="#404041"/>
<path d="M111.465 28.0733H103.835V18.2733H105.151V26.9253H110.079V18.2733H111.395V26.9253H112.725V29.8933H111.465V28.0733Z" fill="#404041"/>
<path d="M118.954 28.2133C118.403 28.2133 117.88 28.12 117.386 27.9333C116.891 27.7373 116.452 27.4386 116.07 27.0373C115.687 26.6266 115.384 26.1086 115.16 25.4833C114.936 24.858 114.824 24.1113 114.824 23.2433V22.9633C114.824 22.1233 114.936 21.4 115.16 20.7933C115.384 20.1866 115.687 19.6873 116.07 19.2953C116.452 18.9033 116.891 18.614 117.386 18.4273C117.88 18.2313 118.403 18.1333 118.954 18.1333C119.486 18.1333 119.971 18.2033 120.41 18.3433C120.858 18.4833 121.25 18.684 121.586 18.9453C121.922 19.2066 122.192 19.5286 122.398 19.9113C122.612 20.294 122.748 20.728 122.804 21.2133H121.404C121.273 20.5786 120.998 20.1026 120.578 19.7853C120.158 19.468 119.616 19.3093 118.954 19.3093C118.608 19.3093 118.272 19.3746 117.946 19.5053C117.619 19.636 117.325 19.846 117.064 20.1353C116.812 20.4153 116.606 20.7886 116.448 21.2553C116.298 21.722 116.224 22.2913 116.224 22.9633V23.2433C116.224 23.9526 116.308 24.55 116.476 25.0353C116.644 25.5113 116.858 25.8986 117.12 26.1973C117.381 26.496 117.675 26.7106 118.002 26.8413C118.328 26.972 118.646 27.0373 118.954 27.0373C119.682 27.0373 120.251 26.86 120.662 26.5053C121.072 26.1506 121.32 25.6933 121.404 25.1333H122.804C122.729 25.6746 122.58 26.1413 122.356 26.5333C122.132 26.916 121.847 27.2333 121.502 27.4853C121.166 27.7373 120.778 27.924 120.34 28.0453C119.91 28.1573 119.448 28.2133 118.954 28.2133Z" fill="#404041"/>
<defs>
<radialGradient id="paint0_radial_130_202" cx="0" cy="0" r="1" gradientUnits="userSpaceOnUse" gradientTransform="translate(29.6231 27.836) rotate(0.0550969) scale(9.27703 9.3038)">
<stop stop-color="#4394D0"/>
<stop offset="1" stop-color="#15256D"/>
</radialGradient>
<linearGradient id="paint1_linear_130_202" x1="22.0732" y1="3.62101" x2="49.8254" y2="14.7965" gradientUnits="userSpaceOnUse">
<stop stop-color="#4394D0"/>
<stop offset="1" stop-color="#15256D"/>
</linearGradient>
<linearGradient id="paint2_linear_130_202" x1="10.0176" y1="53.7788" x2="5.81935" y2="24.1578" gradientUnits="userSpaceOnUse">
<stop stop-color="#4394D0"/>
<stop offset="1" stop-color="#15256D"/>
</linearGradient>
<linearGradient id="paint3_linear_130_202" x1="60.3619" y1="37.0983" x2="36.837" y2="55.521" gradientUnits="userSpaceOnUse">
<stop stop-color="#4394D0"/>
<stop offset="1" stop-color="#15256D"/>
</linearGradient>
<linearGradient id="paint4_linear_130_202" x1="13.4267" y1="24.606" x2="25.9015" y2="5.46383" gradientUnits="userSpaceOnUse">
<stop stop-color="#4394D0"/>
<stop offset="1" stop-color="#15256D"/>
</linearGradient>
<linearGradient id="paint5_linear_130_202" x1="35.188" y1="51.1567" x2="12.8066" y2="53.4285" gradientUnits="userSpaceOnUse">
<stop stop-color="#4394D0"/>
<stop offset="1" stop-color="#15256D"/>
</linearGradient>
<linearGradient id="paint6_linear_130_202" x1="48.5916" y1="18.433" x2="53.1542" y2="41.4631" gradientUnits="userSpaceOnUse">
<stop stop-color="#4394D0"/>
<stop offset="1" stop-color="#15256D"/>
</linearGradient>
</defs>
</svg>
