<svg width="184" height="32" viewBox="0 0 184 32" fill="none" xmlns="http://www.w3.org/2000/svg">
<mask id="mask0_131_259" style="mask-type:luminance" maskUnits="userSpaceOnUse" x="6" y="0" width="23" height="9">
<path d="M6.53354 3.18874C11.465 0.800475 14.8855 2.44736 17.0065 4.5343C17.2794 4.80125 17.5387 5.08176 17.7833 5.37477C18.5927 6.34184 19.2593 7.41991 19.7625 8.57606C20.5579 8.72573 21.368 8.78184 22.1764 8.74324C22.2272 8.74019 22.2699 8.74019 22.3193 8.73663C22.3686 8.73308 22.4052 8.72698 22.4504 8.72393C24.6472 8.52705 26.7001 7.54783 28.235 5.96472C28.3031 5.89714 28.3707 5.82498 28.4383 5.75435C28.1333 5.39052 27.8191 5.03177 27.478 4.68725C24.7482 1.96573 21.1301 0.316595 17.2844 0.0410939C13.4387 -0.234407 9.62215 0.882119 6.53201 3.18671" fill="white"/>
</mask>
<g mask="url(#mask0_131_259)">
<path d="M9.59022 -7.58453L3.49045 7.55554L25.3829 16.3669L31.4827 1.22684L9.59022 -7.58453Z" fill="white"/>
</g>
<mask id="mask1_131_259" style="mask-type:luminance" maskUnits="userSpaceOnUse" x="0" y="10" width="10" height="21">
<path d="M0.542086 11.6889C-0.451174 15.4124 -0.0710421 19.3688 1.61304 22.8353C3.29713 26.3018 6.17275 29.047 9.71458 30.5695C5.17714 27.4932 4.89701 23.7095 5.64333 20.8294C5.74196 20.4478 5.85737 20.0824 5.98294 19.7369C6.41647 18.5526 7.01758 17.4366 7.76792 16.4228C7.49984 15.6596 7.14305 14.9305 6.70487 14.2505C6.67843 14.2093 6.65403 14.1702 6.6281 14.129C6.60217 14.0879 6.57726 14.0589 6.55133 14.0223C5.28214 12.2193 3.40723 10.932 1.26808 10.3947C1.17555 10.3698 1.07946 10.348 0.984388 10.3251C0.821193 10.7707 0.66766 11.222 0.541069 11.6884" fill="white"/>
</mask>
<g mask="url(#mask1_131_259)">
<path d="M9.49292 8.76269L-4.35065 10.7238L-1.3149 32.1318L12.5287 30.1707L9.49292 8.76269Z" fill="white"/>
</g>
<mask id="mask2_131_259" style="mask-type:luminance" maskUnits="userSpaceOnUse" x="18" y="14" width="14" height="18">
<path d="M25.483 22.5378C25.1032 22.6435 24.7291 22.7258 24.3676 22.7918C23.1253 23.0084 21.8584 23.0462 20.6055 22.9041C20.0783 23.5176 19.6249 24.1907 19.2547 24.9098C19.2333 24.9535 19.2104 24.9926 19.188 25.0373C19.1657 25.082 19.153 25.1166 19.1337 25.1567C18.2058 27.1567 18.0279 29.4234 18.6324 31.5436C18.6573 31.6355 18.6868 31.7306 18.7142 31.8241C19.1814 31.7422 19.6492 31.6487 20.1164 31.5253C23.8392 30.5237 27.0772 28.2168 29.2388 25.026C31.4003 21.8352 32.3412 17.9737 31.8893 14.1468C31.4933 19.6124 28.3565 21.7466 25.4835 22.5413" fill="white"/>
</mask>
<g mask="url(#mask2_131_259)">
<path d="M27.1472 6.90909L9.31848 20.864L23.5725 39.0566L41.4012 25.1017L27.1472 6.90909Z" fill="white"/>
</g>
<mask id="mask3_131_259" style="mask-type:luminance" maskUnits="userSpaceOnUse" x="1" y="1" width="17" height="16">
<path d="M6.53353 3.18874C4.18204 4.82931 2.34356 7.10203 1.23096 9.74377C2.88587 10.0952 4.41841 10.8777 5.67327 12.0119C6.92813 13.1461 7.8607 14.5917 8.37647 16.2022C8.81878 15.9202 10.1777 14.8475 11.0908 11.8907C12.195 8.31691 14.2912 5.68016 17.0085 4.53278C16.3345 3.69446 15.4781 3.02076 14.5045 2.5629C13.5309 2.10504 12.4656 1.87506 11.3897 1.89044C9.69132 1.93243 8.02707 2.37632 6.53353 3.18569" fill="white"/>
</mask>
<g mask="url(#mask3_131_259)">
<path d="M5.93414 -5.31932L-5.31799 11.938L12.3054 23.4173L23.5575 6.15994L5.93414 -5.31932Z" fill="white"/>
</g>
<mask id="mask4_131_259" style="mask-type:luminance" maskUnits="userSpaceOnUse" x="5" y="20" width="16" height="12">
<path d="M9.71458 30.5694C12.3091 31.7829 15.1942 32.2381 18.0365 31.8825C17.7191 30.9266 17.5613 29.9251 17.5693 28.918C17.567 26.523 18.4648 24.2145 20.0849 22.4499L20.1077 22.4148C19.7788 22.0642 18.6283 21.1993 15.6699 21.8731C12.0222 22.7049 7.99722 22.6089 5.64334 20.8299C5.64334 20.8299 3.11509 26.2609 9.71458 30.5694Z" fill="white"/>
</mask>
<g mask="url(#mask4_131_259)">
<path d="M19.9337 19.1442L1.93585 20.9702L3.2822 34.2271L21.28 32.4011L19.9337 19.1442Z" fill="white"/>
</g>
<mask id="mask5_131_259" style="mask-type:luminance" maskUnits="userSpaceOnUse" x="19" y="6" width="13" height="17">
<path d="M21.758 9.49326C21.0493 9.49186 20.3427 9.41779 19.6492 9.27221L19.6131 9.26459C19.4773 9.76257 19.3655 11.1722 21.3742 13.3368C23.9161 16.0808 25.848 19.6119 25.4825 22.5388C25.4825 22.5388 31.4536 22.0108 31.8883 14.1443C31.6426 11.2892 30.5931 8.56203 28.8613 6.27824C27.9733 7.2868 26.8808 8.09512 25.6564 8.64957C24.432 9.20403 23.1037 9.49196 21.7595 9.49427" fill="white"/>
</mask>
<g mask="url(#mask5_131_259)">
<path d="M31.4137 3.89127L16.2646 6.89102L19.8388 24.9231L34.9879 21.9233L31.4137 3.89127Z" fill="white"/>
</g>
<path d="M46 10.4737H50.4189C51.9683 10.4737 53.1194 10.8053 53.8722 11.4684C54.6251 12.1211 55.0015 13 55.0015 14.1053C55.0015 15.2105 54.6251 16.0947 53.8722 16.7579C53.1194 17.4105 51.9683 17.7368 50.4189 17.7368H48.455V21.5263H46V10.4737ZM50.1734 15.7789C51.0463 15.7789 51.6573 15.6368 52.0065 15.3526C52.3665 15.0684 52.5466 14.6526 52.5466 14.1053C52.5466 13.5684 52.3665 13.1579 52.0065 12.8737C51.6573 12.5789 51.0463 12.4316 50.1734 12.4316H48.455V15.7789H50.1734Z" fill="white"/>
<path d="M62.9399 21.7158C62.2197 21.7158 61.5323 21.6105 60.8777 21.4C60.2339 21.1895 59.6611 20.8579 59.1592 20.4053C58.6682 19.9526 58.2754 19.3737 57.9808 18.6684C57.6862 17.9526 57.5389 17.0895 57.5389 16.0789V15.7632C57.5389 14.7947 57.6862 13.9684 57.9808 13.2842C58.2754 12.5895 58.6682 12.0211 59.1592 11.5789C59.6611 11.1368 60.2339 10.8105 60.8777 10.6C61.5323 10.3895 62.2197 10.2842 62.9399 10.2842C63.66 10.2842 64.3419 10.3895 64.9857 10.6C65.6403 10.8105 66.2131 11.1368 66.7041 11.5789C67.206 12.0211 67.6043 12.5895 67.8989 13.2842C68.1935 13.9684 68.3408 14.7947 68.3408 15.7632V16.0789C68.3408 17.0895 68.1935 17.9526 67.8989 18.6684C67.6043 19.3737 67.206 19.9526 66.7041 20.4053C66.2131 20.8579 65.6403 21.1895 64.9857 21.4C64.3419 21.6105 63.66 21.7158 62.9399 21.7158ZM62.9399 19.7263C63.3108 19.7263 63.6654 19.6684 64.0037 19.5526C64.3528 19.4263 64.6583 19.2211 64.9202 18.9368C65.1821 18.6526 65.3894 18.2789 65.5421 17.8158C65.7058 17.3526 65.7876 16.7737 65.7876 16.0789V15.7632C65.7876 15.1105 65.7058 14.5632 65.5421 14.1211C65.3894 13.6789 65.1821 13.3211 64.9202 13.0474C64.6583 12.7737 64.3528 12.5789 64.0037 12.4632C63.6654 12.3368 63.3108 12.2737 62.9399 12.2737C62.5689 12.2737 62.2088 12.3368 61.8597 12.4632C61.5214 12.5789 61.2214 12.7737 60.9595 13.0474C60.6977 13.3211 60.4849 13.6789 60.3212 14.1211C60.1685 14.5632 60.0921 15.1105 60.0921 15.7632V16.0789C60.0921 16.7737 60.1685 17.3526 60.3212 17.8158C60.4849 18.2789 60.6977 18.6526 60.9595 18.9368C61.2214 19.2211 61.5214 19.4263 61.8597 19.5526C62.2088 19.6684 62.5689 19.7263 62.9399 19.7263Z" fill="white"/>
<path d="M76.2746 21.7158C75.5218 21.7158 74.8289 21.6105 74.1961 21.4C73.5742 21.1895 73.0341 20.8632 72.5758 20.4211C72.1176 19.9684 71.7575 19.3842 71.4956 18.6684C71.2447 17.9526 71.1192 17.0895 71.1192 16.0789V15.7632C71.1192 14.7947 71.2501 13.9684 71.512 13.2842C71.7848 12.5895 72.1503 12.0211 72.6086 11.5789C73.0777 11.1368 73.6233 10.8105 74.2452 10.6C74.878 10.3895 75.5545 10.2842 76.2746 10.2842C76.9184 10.2842 77.5239 10.3579 78.0913 10.5053C78.6587 10.6526 79.1551 10.8842 79.5806 11.2C80.0171 11.5053 80.3662 11.9 80.6281 12.3842C80.9009 12.8684 81.0591 13.4421 81.1027 14.1053H78.5496C78.4295 13.4737 78.1677 13.0105 77.764 12.7158C77.3603 12.4211 76.8638 12.2737 76.2746 12.2737C75.9364 12.2737 75.6091 12.3316 75.2926 12.4474C74.9871 12.5632 74.7144 12.7579 74.4743 13.0316C74.2343 13.3053 74.0379 13.6632 73.8851 14.1053C73.7433 14.5474 73.6724 15.1 73.6724 15.7632V16.0789C73.6724 16.7737 73.7488 17.3579 73.9015 17.8316C74.0543 18.2947 74.2507 18.6684 74.4907 18.9526C74.7416 19.2263 75.0199 19.4263 75.3254 19.5526C75.6418 19.6684 75.9582 19.7263 76.2746 19.7263C76.8966 19.7263 77.4094 19.5737 77.8131 19.2684C78.2168 18.9526 78.4623 18.4947 78.5496 17.8947H81.1027C81.0482 18.5895 80.89 19.1789 80.6281 19.6632C80.3662 20.1474 80.0225 20.5421 79.597 20.8474C79.1715 21.1526 78.675 21.3737 78.1077 21.5105C77.5403 21.6474 76.9293 21.7158 76.2746 21.7158Z" fill="white"/>
<path d="M90.7784 18.7789H85.934L84.8374 21.5263H83.2335L87.6197 10.4737H89.1582L93.5444 21.5263H91.875L90.7784 18.7789ZM86.4414 17.4842H90.2711L88.3562 12.3684L86.4414 17.4842Z" fill="white"/>
<path d="M98.0098 11.7684H94.0328V10.4737H103.525V11.7684H99.5483V21.5263H98.0098V11.7684Z" fill="white"/>
<path d="M110.736 21.6842C110.081 21.6842 109.449 21.5789 108.838 21.3684C108.227 21.1474 107.687 20.8105 107.217 20.3579C106.748 19.9053 106.372 19.3263 106.088 18.6211C105.804 17.9158 105.663 17.0684 105.663 16.0789V15.7632C105.663 14.8158 105.804 14 106.088 13.3158C106.372 12.6316 106.748 12.0684 107.217 11.6263C107.687 11.1737 108.227 10.8421 108.838 10.6316C109.449 10.4211 110.081 10.3158 110.736 10.3158C111.391 10.3158 112.024 10.4211 112.635 10.6316C113.246 10.8421 113.786 11.1737 114.255 11.6263C114.724 12.0684 115.1 12.6316 115.384 13.3158C115.668 14 115.81 14.8158 115.81 15.7632V16.0789C115.81 17.0684 115.668 17.9158 115.384 18.6211C115.1 19.3263 114.724 19.9053 114.255 20.3579C113.786 20.8105 113.246 21.1474 112.635 21.3684C112.024 21.5789 111.391 21.6842 110.736 21.6842ZM110.736 20.3579C111.183 20.3579 111.614 20.2789 112.029 20.1211C112.444 19.9632 112.809 19.7158 113.126 19.3789C113.442 19.0316 113.693 18.5895 113.878 18.0526C114.075 17.5053 114.173 16.8474 114.173 16.0789V15.7632C114.173 15.0368 114.075 14.4158 113.878 13.9C113.693 13.3737 113.442 12.9474 113.126 12.6211C112.809 12.2842 112.444 12.0368 112.029 11.8789C111.614 11.7211 111.183 11.6421 110.736 11.6421C110.289 11.6421 109.858 11.7211 109.443 11.8789C109.029 12.0368 108.663 12.2842 108.347 12.6211C108.03 12.9474 107.774 13.3737 107.577 13.9C107.392 14.4158 107.299 15.0368 107.299 15.7632V16.0789C107.299 16.8474 107.392 17.5053 107.577 18.0526C107.774 18.5895 108.03 19.0316 108.347 19.3789C108.663 19.7158 109.029 19.9632 109.443 20.1211C109.858 20.2789 110.289 20.3579 110.736 20.3579Z" fill="white"/>
<path d="M119.578 10.4737H121.182L125.011 17.5L128.841 10.4737H130.38V21.5263H128.841V13.1579L125.552 19.1579H124.406L121.116 13.1579V21.5263H119.578V10.4737Z" fill="white"/>
<path d="M139.436 20.8474C138.596 20.8474 137.843 20.7316 137.177 20.5C136.512 20.2684 135.95 19.9421 135.492 19.5211C135.033 19.0895 134.679 18.5789 134.428 17.9895C134.188 17.3895 134.068 16.7263 134.068 16V15.6842C134.068 15.0421 134.188 14.4421 134.428 13.8842C134.679 13.3263 135.033 12.8474 135.492 12.4474C135.95 12.0474 136.512 11.7316 137.177 11.5C137.843 11.2684 138.596 11.1526 139.436 11.1526V10H140.974V11.1526C141.815 11.1526 142.567 11.2684 143.233 11.5C143.899 11.7316 144.46 12.0474 144.919 12.4474C145.377 12.8474 145.726 13.3263 145.966 13.8842C146.217 14.4421 146.343 15.0421 146.343 15.6842V16C146.343 16.7263 146.217 17.3895 145.966 17.9895C145.726 18.5789 145.377 19.0895 144.919 19.5211C144.46 19.9421 143.899 20.2684 143.233 20.5C142.567 20.7316 141.815 20.8474 140.974 20.8474V22H139.436V20.8474ZM144.706 15.6842C144.706 15.2316 144.624 14.8105 144.46 14.4211C144.297 14.0316 144.057 13.6947 143.74 13.4105C143.424 13.1158 143.031 12.8895 142.562 12.7316C142.104 12.5632 141.575 12.4789 140.974 12.4789V19.5211C141.575 19.5211 142.104 19.4368 142.562 19.2684C143.031 19.1 143.424 18.8632 143.74 18.5579C144.057 18.2526 144.297 17.8842 144.46 17.4526C144.624 17.0211 144.706 16.5368 144.706 16V15.6842ZM135.704 16C135.704 16.5368 135.786 17.0211 135.95 17.4526C136.114 17.8842 136.354 18.2526 136.67 18.5579C136.986 18.8632 137.374 19.1 137.832 19.2684C138.301 19.4368 138.836 19.5211 139.436 19.5211V12.4789C138.836 12.4789 138.301 12.5632 137.832 12.7316C137.374 12.8895 136.986 13.1158 136.67 13.4105C136.354 13.6947 136.114 14.0316 135.95 14.4211C135.786 14.8105 135.704 15.2316 135.704 15.6842V16Z" fill="white"/>
<path d="M149.294 21.6842C149.131 21.6842 148.967 21.6684 148.803 21.6368V20.1842C148.858 20.1947 148.94 20.2 149.049 20.2C149.267 20.2 149.458 20.1684 149.622 20.1053C149.796 20.0316 149.944 19.9053 150.064 19.7263C150.194 19.5368 150.304 19.2737 150.391 18.9368C150.489 18.6 150.565 18.1684 150.62 17.6421C150.675 17.1053 150.713 16.4579 150.735 15.7C150.756 14.9421 150.767 14.0421 150.767 13V10.4737H158.459V21.5263H156.921V11.7684H152.306V13.3158C152.306 14.4842 152.278 15.5053 152.224 16.3789C152.169 17.2421 152.088 17.9842 151.978 18.6053C151.869 19.2263 151.733 19.7368 151.569 20.1368C151.406 20.5368 151.209 20.8526 150.98 21.0842C150.762 21.3053 150.511 21.4579 150.227 21.5421C149.944 21.6368 149.633 21.6842 149.294 21.6842Z" fill="white"/>
<path d="M167.295 21.6842C166.64 21.6842 166.007 21.5789 165.396 21.3684C164.785 21.1474 164.245 20.8105 163.776 20.3579C163.307 19.9053 162.93 19.3263 162.647 18.6211C162.363 17.9158 162.221 17.0684 162.221 16.0789V15.7632C162.221 14.8158 162.363 14 162.647 13.3158C162.93 12.6316 163.307 12.0684 163.776 11.6263C164.245 11.1737 164.785 10.8421 165.396 10.6316C166.007 10.4211 166.64 10.3158 167.295 10.3158C167.949 10.3158 168.582 10.4211 169.193 10.6316C169.804 10.8421 170.344 11.1737 170.814 11.6263C171.283 12.0684 171.659 12.6316 171.943 13.3158C172.227 14 172.368 14.8158 172.368 15.7632V16.0789C172.368 17.0684 172.227 17.9158 171.943 18.6211C171.659 19.3263 171.283 19.9053 170.814 20.3579C170.344 20.8105 169.804 21.1474 169.193 21.3684C168.582 21.5789 167.949 21.6842 167.295 21.6842ZM167.295 20.3579C167.742 20.3579 168.173 20.2789 168.588 20.1211C169.002 19.9632 169.368 19.7158 169.684 19.3789C170.001 19.0316 170.252 18.5895 170.437 18.0526C170.634 17.5053 170.732 16.8474 170.732 16.0789V15.7632C170.732 15.0368 170.634 14.4158 170.437 13.9C170.252 13.3737 170.001 12.9474 169.684 12.6211C169.368 12.2842 169.002 12.0368 168.588 11.8789C168.173 11.7211 167.742 11.6421 167.295 11.6421C166.847 11.6421 166.416 11.7211 166.002 11.8789C165.587 12.0368 165.222 12.2842 164.905 12.6211C164.589 12.9474 164.332 13.3737 164.136 13.9C163.951 14.4158 163.858 15.0368 163.858 15.7632V16.0789C163.858 16.8474 163.951 17.5053 164.136 18.0526C164.332 18.5895 164.589 19.0316 164.905 19.3789C165.222 19.7158 165.587 19.9632 166.002 20.1211C166.416 20.2789 166.847 20.3579 167.295 20.3579Z" fill="white"/>
<path d="M178.485 11.7684H174.507V10.4737H184V11.7684H180.023V21.5263H178.485V11.7684Z" fill="white"/>
</svg>
